  0
SECTION
  2
HEADER
  9
$ACADVER
  1
AC1009
  9
$INSBASE
 10
0.000000
 20
0.000000
  9
$EXTMIN
 10
0.000000
 20
0.000000
  9
$EXTMAX
 10
420.000000
 20
297.000000
  9
$LIMMIN
 10
0.000000
 20
0.000000
  9
$LIMMAX
 10
420.000000
 20
297.000000
  9
$VIEWCTR
 10
210.000000
 20
148.500000
  9
$VIEWSIZE
 40
297.000000
  9
$PEXTMIN
 10
0.000000
 20
0.000000
 30
0.000000
  9
$PEXTMAX
 10
420.000000
 20
297.000000
 30
0.000000
  9
$SNAPMODE
 70
     0
  9
$SNAPUNIT
 10
1.000000
 20
1.000000
  9
$SNAPBASE
 10
0.000000
 20
0.000000
  9
$SNAPANG
 50
0.000000
  9
$SNAPISOPAIR
 70
     0
  9
$SNAPSTYLE
 70
     0
  9
$GRIDMODE
 70
     0
  9
$GRIDUNIT
 10
0.000000
 20
0.000000
  9
$ORTHOMODE
 70
     0
  9
$REGENMODE
 70
     1
  9
$FILLMODE
 70
     1
  9
$QTEXTMODE
 70
     0
  9
$DRAGMODE
 70
     2
  9
$LTSCALE
 40
0.250000
  9
$OSMODE
 70
     0
  9
$ATTMODE
 70
     1
  9
$TEXTSIZE
 40
5.000000
  9
$TRACEWID
 40
0.050000
  9
$TEXTSTYLE
  7
STANDARD
  9
$CLAYER
  8
0
  9
$CELTYPE
  6
BYLAYER
  9
$CECOLOR
 62
   256
  9
$DIMSCALE
 40
1.000000
  9
$DIMASZ
 40
1.000000
  9
$DIMEXO
 40
0.000000
  9
$DIMDLI
 40
0.500000
  9
$DIMRND
 40
0.000000
  9
$DIMDLE
 40
0.000000
  9
$DIMEXE
 40
0.000000
  9
$DIMTP
 40
0.000000
  9
$DIMTM
 40
0.000000
  9
$DIMTXT
 40
4.000000
  9
$DIMCEN
 40
0.000000
  9
$DIMTSZ
 40
0.000000
  9
$DIMTOL
 70
     0
  9
$DIMLIM
 70
     0
  9
$DIMTIH
 70
     1
  9
$DIMTOH
 70
     1
  9
$DIMSE1
 70
     0
  9
$DIMSE2
 70
     0
  9
$DIMTAD
 70
     0
  9
$DIMZIN
 70
     0
  9
$DIMBLK
  1

  9
$DIMASO
 70
     0
  9
$DIMSHO
 70
     0
  9
$DIMPOST
  1

  9
$DIMAPOST
  1

  9
$DIMALT
 70
     0
  9
$DIMALTD
 70
     0
  9
$DIMALTF
 40
25.400000
  9
$DIMLFAC
 40
1.000000
  9
$DIMTOFL
 70
     0
  9
$DIMTVP
 40
0.000000
  9
$DIMTIX
 70
     0
  9
$DIMSOXD
 70
     0
  9
$DIMSAH
 70
     0
  9
$DIMBLKL
  1

  9
$DIMBLKR
  1

  9
$LUNITS
 70
     2
  9
$LUPREC
 70
     2
  9
$AXISMODE
 70
     0
  9
$AXISUNIT
 10
1.000000
 20
1.000000
  9
$SKETCHINC
 40
0.000000
  9
$FILLETRAD
 40
0.000000
  9
$AUNITS
 70
     1
  9
$AUPREC
 70
     2
  9
$MENU
  1
ACAD
  9
$ELEVATION
 40
0.000000
  9
$THICKNESS
 40
0.000000
  9
$VIEWDIR
 10
0.000000
 20
0.000000
 30
1.000000
  9
$LIMCHECK
 70
     1
  9
$BLIPMODE
 70
     1
  9
$CHAMFERA
 40
0.000000
  9
$CHAMFERB
 40
0.000000
  9
$FASTZOOM
 70
     1
  9
$SKPOLY
 70
     0
  9
$TDCREATE
 40
0.000000
  9
$TDUPDATE
 40
0.000000
  9
$TDINDWG
 40
0.000000
  9
$TDUSRTIMER
 40
0.000000
  9
$USRTIMER
 70
     1
  9
$ANGBASE
 50
0.000000
  9
$ANGDIR
 70
     0
  9
$PDMODE
 70
     0
  9
$PDSIZE
 40
0.000000
  9
$PLINEWID
 40
0.000000
  9
$COORDS
 70
     2
  9
$USERI1
 70
     0
  9
$USERI2
 70
     0
  9
$USERI3
 70
     0
  9
$USERI4
 70
     0
  9
$USERI5
 70
     0
  9
$USERR1
 40
0.000000
  9
$USERR2
 40
0.000000
  9
$USERR3
 40
0.000000
  9
$USERR4
 40
0.000000
  9
$USERR5
 40
0.000000
  0
ENDSEC
  0
SECTION
  2
TABLES
  0
TABLE
  2
LTYPE
 70
     5
  0
LTYPE
  2
CONTINUOUS
 70
    64
  3
Solid line
 72
    65
 73
     0
 40
0.0
  0
LTYPE
  2
HIDDEN
 70
    64
  3
------------------------
 72
    65
 73
     2
 40
12.6
 49
8.4
 49
-4.2
  0
LTYPE
  2
DOT
 70
    64
  3
ееееееееееееееееееееееее
 72
    65
 73
     2
 40
8.0
 49
6.0
 49
-2.0
  0
LTYPE
  2
DASHDOT
 70
    64
  3
--е--е--е--е--е--е--е--
 72
    65
 73
     4
 40
50.5
 49
30.0
 49
-9.0
 49
2.5
 49
-9.0
  0
LTYPE
  2
DIVIDE
 70
    64
  3
--ее--ее--ее--ее--ее--
 72
    65
 73
     6
 40
58.0
 49
30.0
 49
-9.0
 49
2.5
 49
-5.0
 49
2.5
 49
-9.0
  0
LTYPE
  2
ACAD_ISO06W100
 70
    64
  3
____ ... ____ ... ____
 72
    65
 73
     8
 40
37.5
 49
24.0
 49
-3.0
 49
0.5
 49
-3.0
 49
0.5
 49
-3.0
 49
0.5
 49
-3.0
  0
LTYPE
  2
ACAD_ISO14W100
 70
    64
  3
__ . . . __ . . . __ . . . 
 72
    65
 73
     8
 40
25.5
 49
12.0
 49
-3.0
 49
0.5
 49
-3.0
 49
0.5
 49
-3.0
 49
0.5
 49
-3.0
  0
ENDTAB
  0
TABLE
  2
LAYER
 70
1
  0
LAYER
  2
1
 70
64
 62
7
  6
CONTINUOUS
  0
ENDTAB
  0
TABLE
  2
STYLE
 70
     2
  0
STYLE
  2
STANDARD
 70
    64
 40
0.0
 41
1.0
 50
0.0
 71
     0
 42
0.2
  3
TXT
  4

  0
STYLE
  2
KANJI
 70
    64
 40
0.0
 41
1.0
 50
0.0
 71
     0
 42
0.2
  3
TXT
  4
BIGFONT
  0
ENDTAB
  0
TABLE
  2
VIEW
 70
     0
  0
ENDTAB
  0
ENDSEC
  0
SECTION
  2
BLOCKS
  0
ENDSEC
  0
SECTION
  2
ENTITIES
  0
CIRCLE
  8
1
 62
7
  6
CONTINUOUS
 10
8.500000
 20
8.500000
 40
5.500000
  0
CIRCLE
  8
1
 62
7
  6
CONTINUOUS
 10
8.500000
 20
8.500000
 40
3.050000
  0
CIRCLE
  8
1
 62
7
  6
CONTINUOUS
 10
8.500000
 20
23.600000
 40
5.500000
  0
CIRCLE
  8
1
 62
7
  6
CONTINUOUS
 10
8.500000
 20
23.600000
 40
3.050000
  0
CIRCLE
  8
1
 62
7
  6
CONTINUOUS
 10
23.600000
 20
8.500000
 40
5.500000
  0
CIRCLE
  8
1
 62
7
  6
CONTINUOUS
 10
23.600000
 20
8.500000
 40
3.050000
  0
CIRCLE
  8
1
 62
7
  6
CONTINUOUS
 10
23.600000
 20
23.600000
 40
5.500000
  0
CIRCLE
  8
1
 62
7
  6
CONTINUOUS
 10
23.600000
 20
23.600000
 40
3.050000
  0
CIRCLE
  8
1
 62
7
  6
CONTINUOUS
 10
8.500000
 20
53.800000
 40
5.500000
  0
CIRCLE
  8
1
 62
7
  6
CONTINUOUS
 10
8.500000
 20
53.800000
 40
3.050000
  0
CIRCLE
  8
1
 62
7
  6
CONTINUOUS
 10
8.500000
 20
38.700000
 40
5.500000
  0
CIRCLE
  8
1
 62
7
  6
CONTINUOUS
 10
8.500000
 20
38.700000
 40
3.050000
  0
CIRCLE
  8
1
 62
7
  6
CONTINUOUS
 10
23.600000
 20
53.800000
 40
5.500000
  0
CIRCLE
  8
1
 62
7
  6
CONTINUOUS
 10
23.600000
 20
53.800000
 40
3.050000
  0
CIRCLE
  8
1
 62
7
  6
CONTINUOUS
 10
23.600000
 20
38.700000
 40
5.500000
  0
CIRCLE
  8
1
 62
7
  6
CONTINUOUS
 10
23.600000
 20
38.700000
 40
3.050000
  0
CIRCLE
  8
1
 62
7
  6
CONTINUOUS
 10
8.500000
 20
68.900000
 40
5.500000
  0
CIRCLE
  8
1
 62
7
  6
CONTINUOUS
 10
8.500000
 20
68.900000
 40
3.050000
  0
CIRCLE
  8
1
 62
7
  6
CONTINUOUS
 10
8.500000
 20
84.000000
 40
5.500000
  0
CIRCLE
  8
1
 62
7
  6
CONTINUOUS
 10
8.500000
 20
84.000000
 40
3.050000
  0
CIRCLE
  8
1
 62
7
  6
CONTINUOUS
 10
23.600000
 20
68.900000
 40
5.500000
  0
CIRCLE
  8
1
 62
7
  6
CONTINUOUS
 10
23.600000
 20
68.900000
 40
3.050000
  0
CIRCLE
  8
1
 62
7
  6
CONTINUOUS
 10
23.600000
 20
84.000000
 40
5.500000
  0
CIRCLE
  8
1
 62
7
  6
CONTINUOUS
 10
23.600000
 20
84.000000
 40
3.050000
  0
CIRCLE
  8
1
 62
7
  6
CONTINUOUS
 10
53.800001
 20
8.500000
 40
5.500000
  0
CIRCLE
  8
1
 62
7
  6
CONTINUOUS
 10
53.800001
 20
8.500000
 40
3.050000
  0
CIRCLE
  8
1
 62
7
  6
CONTINUOUS
 10
53.800001
 20
23.600000
 40
5.500000
  0
CIRCLE
  8
1
 62
7
  6
CONTINUOUS
 10
53.800001
 20
23.600000
 40
3.050000
  0
CIRCLE
  8
1
 62
7
  6
CONTINUOUS
 10
38.700001
 20
8.500000
 40
5.500000
  0
CIRCLE
  8
1
 62
7
  6
CONTINUOUS
 10
38.700001
 20
8.500000
 40
3.050000
  0
CIRCLE
  8
1
 62
7
  6
CONTINUOUS
 10
38.700001
 20
23.600000
 40
5.500000
  0
CIRCLE
  8
1
 62
7
  6
CONTINUOUS
 10
38.700001
 20
23.600000
 40
3.050000
  0
CIRCLE
  8
1
 62
7
  6
CONTINUOUS
 10
53.800001
 20
53.800000
 40
5.500000
  0
CIRCLE
  8
1
 62
7
  6
CONTINUOUS
 10
53.800001
 20
53.800000
 40
3.050000
  0
CIRCLE
  8
1
 62
7
  6
CONTINUOUS
 10
53.800001
 20
38.700000
 40
5.500000
  0
CIRCLE
  8
1
 62
7
  6
CONTINUOUS
 10
53.800001
 20
38.700000
 40
3.050000
  0
CIRCLE
  8
1
 62
7
  6
CONTINUOUS
 10
38.700001
 20
53.800000
 40
5.500000
  0
CIRCLE
  8
1
 62
7
  6
CONTINUOUS
 10
38.700001
 20
53.800000
 40
3.050000
  0
CIRCLE
  8
1
 62
7
  6
CONTINUOUS
 10
38.700001
 20
38.700000
 40
5.500000
  0
CIRCLE
  8
1
 62
7
  6
CONTINUOUS
 10
38.700001
 20
38.700000
 40
3.050000
  0
CIRCLE
  8
1
 62
7
  6
CONTINUOUS
 10
53.800001
 20
68.900000
 40
5.500000
  0
CIRCLE
  8
1
 62
7
  6
CONTINUOUS
 10
53.800001
 20
68.900000
 40
3.050000
  0
CIRCLE
  8
1
 62
7
  6
CONTINUOUS
 10
53.800001
 20
84.000000
 40
5.500000
  0
CIRCLE
  8
1
 62
7
  6
CONTINUOUS
 10
53.800001
 20
84.000000
 40
3.050000
  0
CIRCLE
  8
1
 62
7
  6
CONTINUOUS
 10
38.700001
 20
68.900000
 40
5.500000
  0
CIRCLE
  8
1
 62
7
  6
CONTINUOUS
 10
38.700001
 20
68.900000
 40
3.050000
  0
CIRCLE
  8
1
 62
7
  6
CONTINUOUS
 10
38.700001
 20
84.000000
 40
5.500000
  0
CIRCLE
  8
1
 62
7
  6
CONTINUOUS
 10
38.700001
 20
84.000000
 40
3.050000
  0
LINE
  8
1
 62
7
  6
CONTINUOUS
 10
62.300001
 20
92.500000
 11
62.300001
 21
0.000000
  0
LINE
  8
1
 62
7
  6
CONTINUOUS
 10
62.300001
 20
0.000000
 11
0.000000
 21
0.000000
  0
LINE
  8
1
 62
7
  6
CONTINUOUS
 10
0.000000
 20
0.000000
 11
0.000000
 21
92.500000
  0
LINE
  8
1
 62
7
  6
CONTINUOUS
 10
0.000000
 20
92.500000
 11
62.300001
 21
92.500000
  0
CIRCLE
  8
1
 62
7
  6
CONTINUOUS
 10
8.500000
 20
99.100000
 40
5.500000
  0
CIRCLE
  8
1
 62
7
  6
CONTINUOUS
 10
8.500000
 20
99.100000
 40
3.050000
  0
CIRCLE
  8
1
 62
7
  6
CONTINUOUS
 10
23.600000
 20
99.100000
 40
5.500000
  0
CIRCLE
  8
1
 62
7
  6
CONTINUOUS
 10
23.600000
 20
99.100000
 40
3.050000
  0
LINE
  8
1
 62
7
  6
CONTINUOUS
 10
32.100000
 20
107.600000
 11
32.100000
 21
90.600000
  0
LINE
  8
1
 62
7
  6
CONTINUOUS
 10
32.100000
 20
90.600000
 11
0.000000
 21
90.600000
  0
LINE
  8
1
 62
7
  6
CONTINUOUS
 10
0.000000
 20
90.600000
 11
0.000000
 21
107.600000
  0
LINE
  8
1
 62
7
  6
CONTINUOUS
 10
0.000000
 20
107.600000
 11
32.100000
 21
107.600000
  0
ARC
  8
1
 62
7
  6
CONTINUOUS
 10
69.400001
 20
7.050000
 40
2.050000
 50
90.000000
 51
-90.000000
  0
ARC
  8
1
 62
7
  6
CONTINUOUS
 10
74.500001
 20
7.050000
 40
2.050000
 50
-90.000000
 51
90.000000
  0
ARC
  8
1
 62
7
  6
CONTINUOUS
 10
69.400001
 20
48.050000
 40
2.050000
 50
90.000000
 51
-90.000000
  0
ARC
  8
1
 62
7
  6
CONTINUOUS
 10
74.500001
 20
48.050000
 40
2.050000
 50
-90.000000
 51
90.000000
  0
LINE
  8
1
 62
7
  6
CONTINUOUS
 10
69.400001
 20
5.000000
 11
74.500001
 21
5.000000
  0
LINE
  8
1
 62
7
  6
CONTINUOUS
 10
74.500001
 20
9.100000
 11
74.500001
 21
46.000000
  0
LINE
  8
1
 62
7
  6
CONTINUOUS
 10
74.501121
 20
50.100000
 11
69.400001
 21
50.100000
  0
LINE
  8
1
 62
7
  6
CONTINUOUS
 10
69.400001
 20
46.000000
 11
69.400001
 21
9.100000
  0
CIRCLE
  8
1
 62
7
  6
CONTINUOUS
 10
71.950001
 20
7.550000
 40
1.050000
  0
CIRCLE
  8
1
 62
7
  6
CONTINUOUS
 10
71.950001
 20
27.550000
 40
1.050000
  0
CIRCLE
  8
1
 62
7
  6
CONTINUOUS
 10
71.950001
 20
47.550000
 40
1.050000
  0
LINE
  8
1
 62
7
  6
CONTINUOUS
 10
66.400001
 20
3.000000
 11
77.500001
 21
3.000000
  0
LINE
  8
1
 62
7
  6
CONTINUOUS
 10
77.500001
 20
3.000000
 11
77.500001
 21
52.100000
  0
LINE
  8
1
 62
7
  6
CONTINUOUS
 10
77.500001
 20
52.100000
 11
66.400001
 21
52.100000
  0
LINE
  8
1
 62
7
  6
CONTINUOUS
 10
66.400001
 20
52.100000
 11
66.400001
 21
3.000000
  0
ARC
  8
1
 62
7
  6
CONTINUOUS
 10
69.400001
 20
60.250000
 40
2.050000
 50
90.000000
 51
-90.000000
  0
ARC
  8
1
 62
7
  6
CONTINUOUS
 10
74.500001
 20
60.250000
 40
2.050000
 50
-90.000000
 51
90.000000
  0
ARC
  8
1
 62
7
  6
CONTINUOUS
 10
69.400001
 20
75.750000
 40
2.050000
 50
90.000000
 51
-90.000000
  0
ARC
  8
1
 62
7
  6
CONTINUOUS
 10
74.500001
 20
75.750000
 40
2.050000
 50
-90.000000
 51
90.000000
  0
LINE
  8
1
 62
7
  6
CONTINUOUS
 10
69.400001
 20
58.200000
 11
74.500001
 21
58.200000
  0
LINE
  8
1
 62
7
  6
CONTINUOUS
 10
74.500001
 20
62.300000
 11
74.500001
 21
73.700000
  0
LINE
  8
1
 62
7
  6
CONTINUOUS
 10
74.501121
 20
77.800000
 11
69.398881
 21
77.800000
  0
LINE
  8
1
 62
7
  6
CONTINUOUS
 10
69.400001
 20
73.700000
 11
69.400001
 21
62.300000
  0
CIRCLE
  8
1
 62
7
  6
CONTINUOUS
 10
71.950001
 20
60.750000
 40
1.050000
  0
CIRCLE
  8
1
 62
7
  6
CONTINUOUS
 10
71.950001
 20
68.000000
 40
1.050000
  0
CIRCLE
  8
1
 62
7
  6
CONTINUOUS
 10
71.950001
 20
75.250000
 40
1.050000
  0
LINE
  8
1
 62
7
  6
CONTINUOUS
 10
66.400001
 20
56.200000
 11
77.500001
 21
56.200000
  0
LINE
  8
1
 62
7
  6
CONTINUOUS
 10
77.500001
 20
56.200000
 11
77.500001
 21
79.800000
  0
LINE
  8
1
 62
7
  6
CONTINUOUS
 10
77.500001
 20
79.800000
 11
66.400001
 21
79.800000
  0
LINE
  8
1
 62
7
  6
CONTINUOUS
 10
66.400001
 20
79.800000
 11
66.400001
 21
56.200000
  0
ARC
  8
1
 62
7
  6
CONTINUOUS
 10
38.780422
 20
103.658888
 40
2.050000
 50
0.000000
 51
180.000000
  0
ARC
  8
1
 62
7
  6
CONTINUOUS
 10
38.780422
 20
98.558888
 40
2.050000
 50
180.000000
 51
0.000000
  0
ARC
  8
1
 62
7
  6
CONTINUOUS
 10
63.780422
 20
103.658888
 40
2.050000
 50
0.000000
 51
180.000000
  0
ARC
  8
1
 62
7
  6
CONTINUOUS
 10
63.780422
 20
98.558888
 40
2.050000
 50
180.000000
 51
0.000000
  0
LINE
  8
1
 62
7
  6
CONTINUOUS
 10
36.730422
 20
103.658888
 11
36.730422
 21
98.558888
  0
LINE
  8
1
 62
7
  6
CONTINUOUS
 10
40.830422
 20
98.558888
 11
61.730422
 21
98.558888
  0
LINE
  8
1
 62
7
  6
CONTINUOUS
 10
65.830422
 20
98.557768
 11
65.830422
 21
103.658888
  0
LINE
  8
1
 62
7
  6
CONTINUOUS
 10
61.730422
 20
103.658888
 11
40.830422
 21
103.658888
  0
CIRCLE
  8
1
 62
7
  6
CONTINUOUS
 10
39.280422
 20
101.108888
 40
1.050000
  0
CIRCLE
  8
1
 62
7
  6
CONTINUOUS
 10
51.280422
 20
101.108888
 40
1.050000
  0
CIRCLE
  8
1
 62
7
  6
CONTINUOUS
 10
63.280422
 20
101.108888
 40
1.050000
  0
LINE
  8
1
 62
7
  6
CONTINUOUS
 10
34.730422
 20
106.658888
 11
34.730422
 21
95.558888
  0
LINE
  8
1
 62
7
  6
CONTINUOUS
 10
34.730422
 20
95.558888
 11
67.830422
 21
95.558888
  0
LINE
  8
1
 62
7
  6
CONTINUOUS
 10
67.830422
 20
95.558888
 11
67.830422
 21
106.658888
  0
LINE
  8
1
 62
7
  6
CONTINUOUS
 10
67.830422
 20
106.658888
 11
34.730422
 21
106.658888
  0
ENDSEC
  0
EOF
