  0
SECTION
  2
HEADER
  9
$ACADVER
  1
AC1009
  9
$INSBASE
 10
0.000000
 20
0.000000
  9
$EXTMIN
 10
0.000000
 20
0.000000
  9
$EXTMAX
 10
594.000000
 20
420.000000
  9
$LIMMIN
 10
0.000000
 20
0.000000
  9
$LIMMAX
 10
594.000000
 20
420.000000
  9
$VIEWCTR
 10
297.000000
 20
210.000000
  9
$VIEWSIZE
 40
420.000000
  9
$PEXTMIN
 10
0.000000
 20
0.000000
 30
0.000000
  9
$PEXTMAX
 10
297.000000
 20
210.000000
 30
0.000000
  9
$SNAPMODE
 70
     0
  9
$SNAPUNIT
 10
1.000000
 20
1.000000
  9
$SNAPBASE
 10
0.000000
 20
0.000000
  9
$SNAPANG
 50
0.000000
  9
$SNAPISOPAIR
 70
     0
  9
$SNAPSTYLE
 70
     0
  9
$GRIDMODE
 70
     0
  9
$GRIDUNIT
 10
0.000000
 20
0.000000
  9
$ORTHOMODE
 70
     0
  9
$REGENMODE
 70
     1
  9
$FILLMODE
 70
     1
  9
$QTEXTMODE
 70
     0
  9
$DRAGMODE
 70
     2
  9
$LTSCALE
 40
0.500000
  9
$OSMODE
 70
     0
  9
$ATTMODE
 70
     1
  9
$TEXTSIZE
 40
10.000000
  9
$TRACEWID
 40
0.050000
  9
$TEXTSTYLE
  7
STANDARD
  9
$CLAYER
  8
0
  9
$CELTYPE
  6
BYLAYER
  9
$CECOLOR
 62
   256
  9
$DIMSCALE
 40
1.000000
  9
$DIMASZ
 40
1.000000
  9
$DIMEXO
 40
0.000000
  9
$DIMDLI
 40
0.500000
  9
$DIMRND
 40
0.000000
  9
$DIMDLE
 40
0.000000
  9
$DIMEXE
 40
0.000000
  9
$DIMTP
 40
0.000000
  9
$DIMTM
 40
0.000000
  9
$DIMTXT
 40
4.000000
  9
$DIMCEN
 40
0.000000
  9
$DIMTSZ
 40
0.000000
  9
$DIMTOL
 70
     0
  9
$DIMLIM
 70
     0
  9
$DIMTIH
 70
     1
  9
$DIMTOH
 70
     1
  9
$DIMSE1
 70
     0
  9
$DIMSE2
 70
     0
  9
$DIMTAD
 70
     0
  9
$DIMZIN
 70
     0
  9
$DIMBLK
  1

  9
$DIMASO
 70
     0
  9
$DIMSHO
 70
     0
  9
$DIMPOST
  1

  9
$DIMAPOST
  1

  9
$DIMALT
 70
     0
  9
$DIMALTD
 70
     0
  9
$DIMALTF
 40
25.400000
  9
$DIMLFAC
 40
1.000000
  9
$DIMTOFL
 70
     0
  9
$DIMTVP
 40
0.000000
  9
$DIMTIX
 70
     0
  9
$DIMSOXD
 70
     0
  9
$DIMSAH
 70
     0
  9
$DIMBLKL
  1

  9
$DIMBLKR
  1

  9
$LUNITS
 70
     2
  9
$LUPREC
 70
     2
  9
$AXISMODE
 70
     0
  9
$AXISUNIT
 10
1.000000
 20
1.000000
  9
$SKETCHINC
 40
0.000000
  9
$FILLETRAD
 40
0.000000
  9
$AUNITS
 70
     1
  9
$AUPREC
 70
     2
  9
$MENU
  1
ACAD
  9
$ELEVATION
 40
0.000000
  9
$THICKNESS
 40
0.000000
  9
$VIEWDIR
 10
0.000000
 20
0.000000
 30
1.000000
  9
$LIMCHECK
 70
     1
  9
$BLIPMODE
 70
     1
  9
$CHAMFERA
 40
0.000000
  9
$CHAMFERB
 40
0.000000
  9
$FASTZOOM
 70
     1
  9
$SKPOLY
 70
     0
  9
$TDCREATE
 40
0.000000
  9
$TDUPDATE
 40
0.000000
  9
$TDINDWG
 40
0.000000
  9
$TDUSRTIMER
 40
0.000000
  9
$USRTIMER
 70
     1
  9
$ANGBASE
 50
0.000000
  9
$ANGDIR
 70
     0
  9
$PDMODE
 70
     0
  9
$PDSIZE
 40
0.000000
  9
$PLINEWID
 40
0.000000
  9
$COORDS
 70
     2
  9
$USERI1
 70
     0
  9
$USERI2
 70
     0
  9
$USERI3
 70
     0
  9
$USERI4
 70
     0
  9
$USERI5
 70
     0
  9
$USERR1
 40
0.000000
  9
$USERR2
 40
0.000000
  9
$USERR3
 40
0.000000
  9
$USERR4
 40
0.000000
  9
$USERR5
 40
0.000000
  0
ENDSEC
  0
SECTION
  2
TABLES
  0
TABLE
  2
LTYPE
 70
     5
  0
LTYPE
  2
CONTINUOUS
 70
    64
  3
Solid line
 72
    65
 73
     0
 40
0.0
  0
LTYPE
  2
HIDDEN
 70
    64
  3
------------------------
 72
    65
 73
     2
 40
12.6
 49
8.4
 49
-4.2
  0
LTYPE
  2
DOT
 70
    64
  3
ееееееееееееееееееееееее
 72
    65
 73
     2
 40
8.0
 49
6.0
 49
-2.0
  0
LTYPE
  2
DASHDOT
 70
    64
  3
--е--е--е--е--е--е--е--
 72
    65
 73
     4
 40
50.5
 49
30.0
 49
-9.0
 49
2.5
 49
-9.0
  0
LTYPE
  2
DIVIDE
 70
    64
  3
--ее--ее--ее--ее--ее--
 72
    65
 73
     6
 40
58.0
 49
30.0
 49
-9.0
 49
2.5
 49
-5.0
 49
2.5
 49
-9.0
  0
LTYPE
  2
ACAD_ISO06W100
 70
    64
  3
____ ... ____ ... ____
 72
    65
 73
     8
 40
37.5
 49
24.0
 49
-3.0
 49
0.5
 49
-3.0
 49
0.5
 49
-3.0
 49
0.5
 49
-3.0
  0
LTYPE
  2
ACAD_ISO14W100
 70
    64
  3
__ . . . __ . . . __ . . . 
 72
    65
 73
     8
 40
25.5
 49
12.0
 49
-3.0
 49
0.5
 49
-3.0
 49
0.5
 49
-3.0
 49
0.5
 49
-3.0
  0
ENDTAB
  0
TABLE
  2
LAYER
 70
1
  0
LAYER
  2
23
 70
64
 62
7
  6
CONTINUOUS
  0
ENDTAB
  0
TABLE
  2
STYLE
 70
     2
  0
STYLE
  2
STANDARD
 70
    64
 40
0.0
 41
1.0
 50
0.0
 71
     0
 42
0.2
  3
TXT
  4

  0
STYLE
  2
KANJI
 70
    64
 40
0.0
 41
1.0
 50
0.0
 71
     0
 42
0.2
  3
TXT
  4
BIGFONT
  0
ENDTAB
  0
TABLE
  2
VIEW
 70
     0
  0
ENDTAB
  0
ENDSEC
  0
SECTION
  2
BLOCKS
  0
ENDSEC
  0
SECTION
  2
ENTITIES
  0
CIRCLE
  8
23
 62
7
  6
CONTINUOUS
 10
15.500000
 20
44.000000
 40
5.050000
  0
CIRCLE
  8
23
 62
7
  6
CONTINUOUS
 10
25.000000
 20
6.000000
 40
1.550000
  0
CIRCLE
  8
23
 62
7
  6
CONTINUOUS
 10
15.500000
 20
6.000000
 40
1.550000
  0
CIRCLE
  8
23
 62
7
  6
CONTINUOUS
 10
6.000000
 20
6.000000
 40
1.550000
  0
CIRCLE
  8
23
 62
7
  6
CONTINUOUS
 10
15.500000
 20
52.500000
 40
1.350000
  0
CIRCLE
  8
23
 62
7
  6
CONTINUOUS
 10
24.000000
 20
44.000000
 40
1.350000
  0
CIRCLE
  8
23
 62
7
  6
CONTINUOUS
 10
15.500000
 20
35.500000
 40
1.350000
  0
CIRCLE
  8
23
 62
7
  6
CONTINUOUS
 10
7.000000
 20
44.000000
 40
1.350000
  0
LINE
  8
23
 62
7
  6
CONTINUOUS
 10
3.000000
 20
9.000000
 11
3.000000
 21
3.000000
  0
LINE
  8
23
 62
7
  6
CONTINUOUS
 10
4.509955
 20
44.467873
 11
3.000000
 21
9.000000
  0
ARC
  8
23
 62
7
  6
CONTINUOUS
 10
15.500000
 20
44.000000
 40
11.000000
 50
2.437750
 51
177.562250
  0
LINE
  8
23
 62
7
  6
CONTINUOUS
 10
28.000000
 20
9.000000
 11
26.490045
 21
44.467873
  0
LINE
  8
23
 62
7
  6
CONTINUOUS
 10
28.000000
 20
3.000000
 11
28.000000
 21
9.000000
  0
LINE
  8
23
 62
7
  6
CONTINUOUS
 10
3.000000
 20
3.000000
 11
28.000000
 21
3.000000
  0
CIRCLE
  8
23
 62
7
  6
CONTINUOUS
 10
15.500000
 20
68.100000
 40
5.050000
  0
CIRCLE
  8
23
 62
7
  6
CONTINUOUS
 10
25.000000
 20
106.100000
 40
1.550000
  0
CIRCLE
  8
23
 62
7
  6
CONTINUOUS
 10
15.500000
 20
106.100000
 40
1.550000
  0
CIRCLE
  8
23
 62
7
  6
CONTINUOUS
 10
6.000000
 20
106.100000
 40
1.550000
  0
CIRCLE
  8
23
 62
7
  6
CONTINUOUS
 10
15.500000
 20
59.600000
 40
1.350000
  0
CIRCLE
  8
23
 62
7
  6
CONTINUOUS
 10
24.000000
 20
68.100000
 40
1.350000
  0
CIRCLE
  8
23
 62
7
  6
CONTINUOUS
 10
15.500000
 20
76.600000
 40
1.350000
  0
CIRCLE
  8
23
 62
7
  6
CONTINUOUS
 10
7.000000
 20
68.100000
 40
1.350000
  0
LINE
  8
23
 62
7
  6
CONTINUOUS
 10
3.000000
 20
103.100000
 11
3.000000
 21
109.100000
  0
LINE
  8
23
 62
7
  6
CONTINUOUS
 10
4.509955
 20
67.632127
 11
3.000000
 21
103.100000
  0
ARC
  8
23
 62
7
  6
CONTINUOUS
 10
15.500000
 20
68.100000
 40
11.000000
 50
-177.562250
 51
-2.437750
  0
LINE
  8
23
 62
7
  6
CONTINUOUS
 10
28.000000
 20
103.100000
 11
26.490045
 21
67.632127
  0
LINE
  8
23
 62
7
  6
CONTINUOUS
 10
28.000000
 20
109.100000
 11
28.000000
 21
103.100000
  0
LINE
  8
23
 62
7
  6
CONTINUOUS
 10
3.000000
 20
109.100000
 11
28.000000
 21
109.100000
  0
ARC
  8
23
 62
7
  6
CONTINUOUS
 10
32.100000
 20
7.892509
 40
2.000000
 50
123.974476
 51
180.000000
  0
ARC
  8
23
 62
7
  6
CONTINUOUS
 10
36.339513
 20
32.001663
 40
2.000000
 50
169.636750
 51
-143.921087
  0
LINE
  8
23
 62
7
  6
CONTINUOUS
 10
30.100000
 20
7.892509
 11
30.100000
 21
3.000000
  0
LINE
  8
23
 62
7
  6
CONTINUOUS
 10
36.697878
 20
45.079329
 11
34.372139
 21
32.361440
  0
LINE
  8
23
 62
7
  6
CONTINUOUS
 10
30.100000
 20
3.000000
 11
55.100000
 21
3.000000
  0
LINE
  8
23
 62
7
  6
CONTINUOUS
 10
55.100000
 20
3.000000
 11
55.100000
 21
9.000000
  0
LINE
  8
23
 62
7
  6
CONTINUOUS
 10
55.100000
 20
9.000000
 11
48.502122
 21
45.079329
  0
ARC
  8
23
 62
7
  6
CONTINUOUS
 10
42.600000
 20
44.000000
 40
6.000000
 50
10.363250
 51
169.636750
  0
CIRCLE
  8
23
 62
7
  6
CONTINUOUS
 10
33.100000
 20
6.000000
 40
1.550000
  0
CIRCLE
  8
23
 62
7
  6
CONTINUOUS
 10
42.600000
 20
6.000000
 40
1.550000
  0
CIRCLE
  8
23
 62
7
  6
CONTINUOUS
 10
52.100000
 20
6.000000
 40
1.550000
  0
CIRCLE
  8
23
 62
7
  6
CONTINUOUS
 10
42.600000
 20
44.000000
 40
4.050000
  0
ARC
  8
23
 62
7
  6
CONTINUOUS
 10
22.600000
 20
21.990381
 40
15.000000
 50
-56.025524
 51
36.078913
  0
ARC
  8
23
 62
7
  6
CONTINUOUS
 10
32.100000
 20
94.207491
 40
2.000000
 50
180.000000
 51
-123.974476
  0
ARC
  8
23
 62
7
  6
CONTINUOUS
 10
36.339513
 20
70.098337
 40
2.000000
 50
143.921087
 51
-169.636750
  0
LINE
  8
23
 62
7
  6
CONTINUOUS
 10
30.100000
 20
94.207491
 11
30.100000
 21
99.100000
  0
LINE
  8
23
 62
7
  6
CONTINUOUS
 10
36.697878
 20
57.020671
 11
34.372139
 21
69.738560
  0
LINE
  8
23
 62
7
  6
CONTINUOUS
 10
30.100000
 20
99.100000
 11
55.100000
 21
99.100000
  0
LINE
  8
23
 62
7
  6
CONTINUOUS
 10
55.100000
 20
99.100000
 11
55.100000
 21
93.100000
  0
LINE
  8
23
 62
7
  6
CONTINUOUS
 10
55.100000
 20
93.100000
 11
48.502122
 21
57.020671
  0
ARC
  8
23
 62
7
  6
CONTINUOUS
 10
42.600000
 20
58.100000
 40
6.000000
 50
-169.636750
 51
-10.363250
  0
CIRCLE
  8
23
 62
7
  6
CONTINUOUS
 10
33.100000
 20
96.100000
 40
1.550000
  0
CIRCLE
  8
23
 62
7
  6
CONTINUOUS
 10
42.600000
 20
96.100000
 40
1.550000
  0
CIRCLE
  8
23
 62
7
  6
CONTINUOUS
 10
52.100000
 20
96.100000
 40
1.550000
  0
CIRCLE
  8
23
 62
7
  6
CONTINUOUS
 10
42.600000
 20
58.100000
 40
4.050000
  0
ARC
  8
23
 62
7
  6
CONTINUOUS
 10
22.600000
 20
80.109619
 40
15.000000
 50
-36.078913
 51
56.025524
  0
CIRCLE
  8
23
 62
7
  6
CONTINUOUS
 10
69.700000
 20
46.500000
 40
4.050000
  0
LINE
  8
23
 62
7
  6
CONTINUOUS
 10
73.150000
 20
5.450000
 11
66.250000
 21
5.450000
  0
LINE
  8
23
 62
7
  6
CONTINUOUS
 10
64.150000
 20
5.450000
 11
64.150000
 21
8.050000
  0
LINE
  8
23
 62
7
  6
CONTINUOUS
 10
66.250000
 20
8.050000
 11
73.150000
 21
8.050000
  0
LINE
  8
23
 62
7
  6
CONTINUOUS
 10
75.250000
 20
8.050000
 11
75.250000
 21
5.450000
  0
LINE
  8
23
 62
7
  6
CONTINUOUS
 10
82.200000
 20
3.000000
 11
82.200000
 21
8.000000
  0
LINE
  8
23
 62
7
  6
CONTINUOUS
 10
82.200000
 20
8.000000
 11
75.618350
 21
47.486477
  0
ARC
  8
23
 62
7
  6
CONTINUOUS
 10
69.700000
 20
46.500000
 40
6.000000
 50
9.463128
 51
170.536872
  0
LINE
  8
23
 62
7
  6
CONTINUOUS
 10
63.781650
 20
47.486477
 11
57.200000
 21
8.000000
  0
LINE
  8
23
 62
7
  6
CONTINUOUS
 10
57.200000
 20
8.000000
 11
57.200000
 21
3.000000
  0
LINE
  8
23
 62
7
  6
CONTINUOUS
 10
57.200000
 20
3.000000
 11
82.200000
 21
3.000000
  0
ARC
  8
23
 62
7
  6
CONTINUOUS
 10
74.200000
 20
8.050000
 40
1.050000
 50
-0.000000
 51
180.000000
  0
ARC
  8
23
 62
7
  6
CONTINUOUS
 10
74.200000
 20
5.450000
 40
1.050000
 50
180.000000
 51
-0.000000
  0
ARC
  8
23
 62
7
  6
CONTINUOUS
 10
65.200000
 20
5.450000
 40
1.050000
 50
180.000000
 51
-0.000000
  0
ARC
  8
23
 62
7
  6
CONTINUOUS
 10
65.200000
 20
8.050000
 40
1.050000
 50
-0.000000
 51
180.000000
  0
CIRCLE
  8
23
 62
7
  6
CONTINUOUS
 10
79.200000
 20
5.500000
 40
1.550000
  0
CIRCLE
  8
23
 62
7
  6
CONTINUOUS
 10
60.200000
 20
5.500000
 40
1.550000
  0
LINE
  8
23
 62
7
  6
CONTINUOUS
 10
95.200000
 20
42.000000
 11
95.200000
 21
32.334524
  0
ARC
  8
23
 62
7
  6
CONTINUOUS
 10
91.700000
 20
32.334524
 40
3.500000
 50
180.000000
 51
0.000000
  0
LINE
  8
23
 62
7
  6
CONTINUOUS
 10
88.200000
 20
32.334524
 11
88.200000
 21
42.000000
  0
ARC
  8
23
 62
7
  6
CONTINUOUS
 10
91.700000
 20
42.000000
 40
3.500000
 50
0.000000
 51
180.000000
  0
CIRCLE
  8
23
 62
7
  6
CONTINUOUS
 10
91.700000
 20
9.000000
 40
4.050000
  0
LINE
  8
23
 62
7
  6
CONTINUOUS
 10
88.250000
 20
50.050000
 11
95.150000
 21
50.050000
  0
LINE
  8
23
 62
7
  6
CONTINUOUS
 10
97.250000
 20
50.050000
 11
97.250000
 21
47.450000
  0
LINE
  8
23
 62
7
  6
CONTINUOUS
 10
95.150000
 20
47.450000
 11
88.250000
 21
47.450000
  0
LINE
  8
23
 62
7
  6
CONTINUOUS
 10
86.150000
 20
47.450000
 11
86.150000
 21
50.050000
  0
LINE
  8
23
 62
7
  6
CONTINUOUS
 10
79.200000
 20
52.500000
 11
79.200000
 21
47.500000
  0
LINE
  8
23
 62
7
  6
CONTINUOUS
 10
79.200000
 20
47.500000
 11
85.781650
 21
8.013523
  0
ARC
  8
23
 62
7
  6
CONTINUOUS
 10
91.700000
 20
9.000000
 40
6.000000
 50
-170.536872
 51
-9.463128
  0
LINE
  8
23
 62
7
  6
CONTINUOUS
 10
97.618350
 20
8.013523
 11
104.200000
 21
47.500000
  0
LINE
  8
23
 62
7
  6
CONTINUOUS
 10
104.200000
 20
47.500000
 11
104.200000
 21
52.500000
  0
LINE
  8
23
 62
7
  6
CONTINUOUS
 10
104.200000
 20
52.500000
 11
79.200000
 21
52.500000
  0
ARC
  8
23
 62
7
  6
CONTINUOUS
 10
87.200000
 20
47.450000
 40
1.050000
 50
180.000000
 51
0.000000
  0
ARC
  8
23
 62
7
  6
CONTINUOUS
 10
87.200000
 20
50.050000
 40
1.050000
 50
0.000000
 51
180.000000
  0
ARC
  8
23
 62
7
  6
CONTINUOUS
 10
96.200000
 20
50.050000
 40
1.050000
 50
0.000000
 51
180.000000
  0
ARC
  8
23
 62
7
  6
CONTINUOUS
 10
96.200000
 20
47.450000
 40
1.050000
 50
180.000000
 51
0.000000
  0
CIRCLE
  8
23
 62
7
  6
CONTINUOUS
 10
82.200000
 20
50.000000
 40
1.550000
  0
CIRCLE
  8
23
 62
7
  6
CONTINUOUS
 10
101.200000
 20
50.000000
 40
1.550000
  0
CIRCLE
  8
23
 62
7
  6
CONTINUOUS
 10
69.700000
 20
60.600000
 40
4.050000
  0
LINE
  8
23
 62
7
  6
CONTINUOUS
 10
73.150000
 20
101.650000
 11
66.250000
 21
101.650000
  0
LINE
  8
23
 62
7
  6
CONTINUOUS
 10
64.150000
 20
101.650000
 11
64.150000
 21
99.050000
  0
LINE
  8
23
 62
7
  6
CONTINUOUS
 10
66.250000
 20
99.050000
 11
73.150000
 21
99.050000
  0
LINE
  8
23
 62
7
  6
CONTINUOUS
 10
75.250000
 20
99.050000
 11
75.250000
 21
101.650000
  0
LINE
  8
23
 62
7
  6
CONTINUOUS
 10
82.200000
 20
104.100000
 11
82.200000
 21
99.100000
  0
LINE
  8
23
 62
7
  6
CONTINUOUS
 10
82.200000
 20
99.100000
 11
75.618350
 21
59.613523
  0
ARC
  8
23
 62
7
  6
CONTINUOUS
 10
69.700000
 20
60.600000
 40
6.000000
 50
-170.536872
 51
-9.463128
  0
LINE
  8
23
 62
7
  6
CONTINUOUS
 10
63.781650
 20
59.613523
 11
57.200000
 21
99.100000
  0
LINE
  8
23
 62
7
  6
CONTINUOUS
 10
57.200000
 20
99.100000
 11
57.200000
 21
104.100000
  0
LINE
  8
23
 62
7
  6
CONTINUOUS
 10
57.200000
 20
104.100000
 11
82.200000
 21
104.100000
  0
ARC
  8
23
 62
7
  6
CONTINUOUS
 10
74.200000
 20
99.050000
 40
1.050000
 50
-180.000000
 51
0.000000
  0
ARC
  8
23
 62
7
  6
CONTINUOUS
 10
74.200000
 20
101.650000
 40
1.050000
 50
0.000000
 51
-180.000000
  0
ARC
  8
23
 62
7
  6
CONTINUOUS
 10
65.200000
 20
101.650000
 40
1.050000
 50
0.000000
 51
-180.000000
  0
ARC
  8
23
 62
7
  6
CONTINUOUS
 10
65.200000
 20
99.050000
 40
1.050000
 50
-180.000000
 51
0.000000
  0
CIRCLE
  8
23
 62
7
  6
CONTINUOUS
 10
79.200000
 20
101.600000
 40
1.550000
  0
CIRCLE
  8
23
 62
7
  6
CONTINUOUS
 10
60.200000
 20
101.600000
 40
1.550000
  0
LINE
  8
23
 62
7
  6
CONTINUOUS
 10
95.200000
 20
65.100000
 11
95.200000
 21
74.765476
  0
ARC
  8
23
 62
7
  6
CONTINUOUS
 10
91.700000
 20
74.765476
 40
3.500000
 50
0.000000
 51
180.000000
  0
LINE
  8
23
 62
7
  6
CONTINUOUS
 10
88.200000
 20
74.765476
 11
88.200000
 21
65.100000
  0
ARC
  8
23
 62
7
  6
CONTINUOUS
 10
91.700000
 20
65.100000
 40
3.500000
 50
180.000000
 51
0.000000
  0
CIRCLE
  8
23
 62
7
  6
CONTINUOUS
 10
91.700000
 20
98.100000
 40
4.050000
  0
LINE
  8
23
 62
7
  6
CONTINUOUS
 10
88.250000
 20
57.050000
 11
95.150000
 21
57.050000
  0
LINE
  8
23
 62
7
  6
CONTINUOUS
 10
97.250000
 20
57.050000
 11
97.250000
 21
59.650000
  0
LINE
  8
23
 62
7
  6
CONTINUOUS
 10
95.150000
 20
59.650000
 11
88.250000
 21
59.650000
  0
LINE
  8
23
 62
7
  6
CONTINUOUS
 10
86.150000
 20
59.650000
 11
86.150000
 21
57.050000
  0
LINE
  8
23
 62
7
  6
CONTINUOUS
 10
79.200000
 20
54.600000
 11
79.200000
 21
59.600000
  0
LINE
  8
23
 62
7
  6
CONTINUOUS
 10
79.200000
 20
59.600000
 11
85.781650
 21
99.086477
  0
ARC
  8
23
 62
7
  6
CONTINUOUS
 10
91.700000
 20
98.100000
 40
6.000000
 50
9.463128
 51
170.536872
  0
LINE
  8
23
 62
7
  6
CONTINUOUS
 10
97.618350
 20
99.086477
 11
104.200000
 21
59.600000
  0
LINE
  8
23
 62
7
  6
CONTINUOUS
 10
104.200000
 20
59.600000
 11
104.200000
 21
54.600000
  0
LINE
  8
23
 62
7
  6
CONTINUOUS
 10
104.200000
 20
54.600000
 11
79.200000
 21
54.600000
  0
ARC
  8
23
 62
7
  6
CONTINUOUS
 10
87.200000
 20
59.650000
 40
1.050000
 50
0.000000
 51
180.000000
  0
ARC
  8
23
 62
7
  6
CONTINUOUS
 10
87.200000
 20
57.050000
 40
1.050000
 50
180.000000
 51
0.000000
  0
ARC
  8
23
 62
7
  6
CONTINUOUS
 10
96.200000
 20
57.050000
 40
1.050000
 50
180.000000
 51
0.000000
  0
ARC
  8
23
 62
7
  6
CONTINUOUS
 10
96.200000
 20
59.650000
 40
1.050000
 50
0.000000
 51
180.000000
  0
CIRCLE
  8
23
 62
7
  6
CONTINUOUS
 10
82.200000
 20
57.100000
 40
1.550000
  0
CIRCLE
  8
23
 62
7
  6
CONTINUOUS
 10
101.200000
 20
57.100000
 40
1.550000
  0
ARC
  8
23
 62
7
  6
CONTINUOUS
 10
19.600000
 20
132.870338
 40
6.000000
 50
66.141622
 51
180.000000
  0
ARC
  8
23
 62
7
  6
CONTINUOUS
 10
24.857067
 20
130.545294
 40
6.000000
 50
-26.634826
 51
66.141622
  0
ARC
  8
23
 62
7
  6
CONTINUOUS
 10
19.600000
 20
121.200000
 40
6.000000
 50
180.000000
 51
-90.000000
  0
ARC
  8
23
 62
7
  6
CONTINUOUS
 10
23.064404
 20
121.200000
 40
6.000000
 50
-90.000000
 51
4.917100
  0
LINE
  8
23
 62
7
  6
CONTINUOUS
 10
22.026864
 20
138.357626
 11
27.283931
 21
136.032582
  0
LINE
  8
23
 62
7
  6
CONTINUOUS
 10
23.064404
 20
115.200000
 11
19.600000
 21
115.200000
  0
ARC
  8
23
 62
7
  6
CONTINUOUS
 10
40.500000
 20
122.700000
 40
11.500000
 50
153.365174
 51
-175.082900
  0
LINE
  8
23
 62
7
  6
CONTINUOUS
 10
13.600000
 20
121.200000
 11
13.600000
 21
132.870338
  0
CIRCLE
  8
23
 62
7
  6
CONTINUOUS
 10
8.500000
 20
142.700000
 40
1.550000
  0
LINE
  8
23
 62
7
  6
CONTINUOUS
 10
10.640673
 20
140.414082
 11
9.409327
 21
139.703163
  0
LINE
  8
23
 62
7
  6
CONTINUOUS
 10
6.359327
 20
144.985918
 11
7.590673
 21
145.696837
  0
LINE
  8
23
 62
7
  6
CONTINUOUS
 10
5.450000
 20
141.989082
 11
5.450000
 21
143.410918
  0
LINE
  8
23
 62
7
  6
CONTINUOUS
 10
11.550000
 20
143.410918
 11
11.550000
 21
141.989082
  0
LINE
  8
23
 62
7
  6
CONTINUOUS
 10
7.590673
 20
139.703163
 11
6.359327
 21
140.414082
  0
LINE
  8
23
 62
7
  6
CONTINUOUS
 10
9.409327
 20
145.696837
 11
10.640673
 21
144.985918
  0
ARC
  8
23
 62
7
  6
CONTINUOUS
 10
10.640673
 20
143.935918
 40
1.050000
 50
-30.000000
 51
90.000000
  0
ARC
  8
23
 62
7
  6
CONTINUOUS
 10
6.359327
 20
143.935918
 40
1.050000
 50
90.000000
 51
-150.000000
  0
ARC
  8
23
 62
7
  6
CONTINUOUS
 10
6.359327
 20
141.464082
 40
1.050000
 50
150.000000
 51
-90.000000
  0
ARC
  8
23
 62
7
  6
CONTINUOUS
 10
10.640673
 20
141.464082
 40
1.050000
 50
-90.000000
 51
30.000000
  0
ARC
  8
23
 62
7
  6
CONTINUOUS
 10
8.500000
 20
140.228163
 40
1.050000
 50
-150.000000
 51
-30.000000
  0
ARC
  8
23
 62
7
  6
CONTINUOUS
 10
8.500000
 20
145.171837
 40
1.050000
 50
30.000000
 51
150.000000
  0
ARC
  8
23
 62
7
  6
CONTINUOUS
 10
6.600000
 20
135.366667
 40
2.000000
 50
0.000000
 51
67.380135
  0
LINE
  8
23
 62
7
  6
CONTINUOUS
 10
8.600000
 20
135.366667
 11
8.600000
 21
127.300000
  0
CIRCLE
  8
23
 62
7
  6
CONTINUOUS
 10
32.250000
 20
122.700000
 40
1.550000
  0
CIRCLE
  8
23
 62
7
  6
CONTINUOUS
 10
40.500000
 20
130.950000
 40
1.550000
  0
CIRCLE
  8
23
 62
7
  6
CONTINUOUS
 10
40.500000
 20
114.450000
 40
1.550000
  0
CIRCLE
  8
23
 62
7
  6
CONTINUOUS
 10
40.500000
 20
122.700000
 40
1.550000
  0
LINE
  8
23
 62
7
  6
CONTINUOUS
 10
4.600000
 20
125.200000
 11
4.600000
 21
117.200000
  0
LINE
  8
23
 62
7
  6
CONTINUOUS
 10
8.600000
 20
125.200000
 11
4.600000
 21
125.200000
  0
ARC
  8
23
 62
7
  6
CONTINUOUS
 10
8.600000
 20
126.250000
 40
1.050000
 50
-90.000000
 51
90.000000
  0
LINE
  8
23
 62
7
  6
CONTINUOUS
 10
6.384615
 20
137.623077
 11
7.369231
 21
137.212821
  0
ARC
  8
23
 62
7
  6
CONTINUOUS
 10
8.500000
 20
142.700000
 40
5.500000
 50
66.141622
 51
-112.619865
  0
LINE
  8
23
 62
7
  6
CONTINUOUS
 10
48.100000
 20
131.200000
 11
10.724625
 21
147.730014
  0
LINE
  8
23
 62
7
  6
CONTINUOUS
 10
48.100000
 20
127.300000
 11
48.100000
 21
131.200000
  0
ARC
  8
23
 62
7
  6
CONTINUOUS
 10
48.100000
 20
126.250000
 40
1.050000
 50
90.000000
 51
-90.000000
  0
LINE
  8
23
 62
7
  6
CONTINUOUS
 10
52.100000
 20
125.200000
 11
48.100000
 21
125.200000
  0
LINE
  8
23
 62
7
  6
CONTINUOUS
 10
52.100000
 20
117.200000
 11
52.100000
 21
125.200000
  0
LINE
  8
23
 62
7
  6
CONTINUOUS
 10
48.100000
 20
117.200000
 11
52.100000
 21
117.200000
  0
ARC
  8
23
 62
7
  6
CONTINUOUS
 10
48.100000
 20
116.150000
 40
1.050000
 50
90.000000
 51
-90.000000
  0
LINE
  8
23
 62
7
  6
CONTINUOUS
 10
48.100000
 20
111.200000
 11
48.100000
 21
115.100000
  0
LINE
  8
23
 62
7
  6
CONTINUOUS
 10
8.600000
 20
111.200000
 11
48.100000
 21
111.200000
  0
LINE
  8
23
 62
7
  6
CONTINUOUS
 10
8.600000
 20
115.100000
 11
8.600000
 21
111.200000
  0
ARC
  8
23
 62
7
  6
CONTINUOUS
 10
8.600000
 20
116.150000
 40
1.050000
 50
-90.000000
 51
90.000000
  0
LINE
  8
23
 62
7
  6
CONTINUOUS
 10
4.600000
 20
117.200000
 11
8.600000
 21
117.200000
  0
ARC
  8
23
 62
7
  6
CONTINUOUS
 10
35.500000
 20
150.629662
 40
6.000000
 50
-113.858378
 51
-0.000000
  0
ARC
  8
23
 62
7
  6
CONTINUOUS
 10
30.242933
 20
152.954706
 40
6.000000
 50
153.365174
 51
-113.858378
  0
ARC
  8
23
 62
7
  6
CONTINUOUS
 10
35.500000
 20
162.300000
 40
6.000000
 50
-0.000000
 51
90.000000
  0
ARC
  8
23
 62
7
  6
CONTINUOUS
 10
32.035596
 20
162.300000
 40
6.000000
 50
90.000000
 51
-175.082900
  0
LINE
  8
23
 62
7
  6
CONTINUOUS
 10
33.073136
 20
145.142374
 11
27.816069
 21
147.467418
  0
LINE
  8
23
 62
7
  6
CONTINUOUS
 10
32.035596
 20
168.300000
 11
35.500000
 21
168.300000
  0
ARC
  8
23
 62
7
  6
CONTINUOUS
 10
14.600000
 20
160.800000
 40
11.500000
 50
-26.634826
 51
4.917100
  0
LINE
  8
23
 62
7
  6
CONTINUOUS
 10
41.500000
 20
162.300000
 11
41.500000
 21
150.629662
  0
CIRCLE
  8
23
 62
7
  6
CONTINUOUS
 10
46.600000
 20
140.800000
 40
1.550000
  0
LINE
  8
23
 62
7
  6
CONTINUOUS
 10
44.459327
 20
143.085918
 11
45.690673
 21
143.796837
  0
LINE
  8
23
 62
7
  6
CONTINUOUS
 10
48.740673
 20
138.514082
 11
47.509327
 21
137.803163
  0
LINE
  8
23
 62
7
  6
CONTINUOUS
 10
49.650000
 20
141.510918
 11
49.650000
 21
140.089082
  0
LINE
  8
23
 62
7
  6
CONTINUOUS
 10
43.550000
 20
140.089082
 11
43.550000
 21
141.510918
  0
LINE
  8
23
 62
7
  6
CONTINUOUS
 10
47.509327
 20
143.796837
 11
48.740673
 21
143.085918
  0
LINE
  8
23
 62
7
  6
CONTINUOUS
 10
45.690673
 20
137.803163
 11
44.459327
 21
138.514082
  0
ARC
  8
23
 62
7
  6
CONTINUOUS
 10
44.459327
 20
139.564082
 40
1.050000
 50
150.000000
 51
-90.000000
  0
ARC
  8
23
 62
7
  6
CONTINUOUS
 10
48.740673
 20
139.564082
 40
1.050000
 50
-90.000000
 51
30.000000
  0
ARC
  8
23
 62
7
  6
CONTINUOUS
 10
48.740673
 20
142.035918
 40
1.050000
 50
-30.000000
 51
90.000000
  0
ARC
  8
23
 62
7
  6
CONTINUOUS
 10
44.459327
 20
142.035918
 40
1.050000
 50
90.000000
 51
-150.000000
  0
ARC
  8
23
 62
7
  6
CONTINUOUS
 10
46.600000
 20
143.271837
 40
1.050000
 50
30.000000
 51
150.000000
  0
ARC
  8
23
 62
7
  6
CONTINUOUS
 10
46.600000
 20
138.328163
 40
1.050000
 50
-150.000000
 51
-30.000000
  0
ARC
  8
23
 62
7
  6
CONTINUOUS
 10
48.500000
 20
148.133333
 40
2.000000
 50
180.000000
 51
-112.619865
  0
LINE
  8
23
 62
7
  6
CONTINUOUS
 10
46.500000
 20
148.133333
 11
46.500000
 21
156.200000
  0
CIRCLE
  8
23
 62
7
  6
CONTINUOUS
 10
22.850000
 20
160.800000
 40
1.550000
  0
CIRCLE
  8
23
 62
7
  6
CONTINUOUS
 10
14.600000
 20
152.550000
 40
1.550000
  0
CIRCLE
  8
23
 62
7
  6
CONTINUOUS
 10
14.600000
 20
169.050000
 40
1.550000
  0
CIRCLE
  8
23
 62
7
  6
CONTINUOUS
 10
14.600000
 20
160.800000
 40
1.550000
  0
LINE
  8
23
 62
7
  6
CONTINUOUS
 10
50.500000
 20
158.300000
 11
50.500000
 21
166.300000
  0
LINE
  8
23
 62
7
  6
CONTINUOUS
 10
46.500000
 20
158.300000
 11
50.500000
 21
158.300000
  0
ARC
  8
23
 62
7
  6
CONTINUOUS
 10
46.500000
 20
157.250000
 40
1.050000
 50
90.000000
 51
-90.000000
  0
LINE
  8
23
 62
7
  6
CONTINUOUS
 10
48.715385
 20
145.876923
 11
47.730769
 21
146.287179
  0
ARC
  8
23
 62
7
  6
CONTINUOUS
 10
46.600000
 20
140.800000
 40
5.500000
 50
-113.858378
 51
67.380135
  0
LINE
  8
23
 62
7
  6
CONTINUOUS
 10
7.000000
 20
152.300000
 11
44.375375
 21
135.769986
  0
LINE
  8
23
 62
7
  6
CONTINUOUS
 10
7.000000
 20
156.200000
 11
7.000000
 21
152.300000
  0
ARC
  8
23
 62
7
  6
CONTINUOUS
 10
7.000000
 20
157.250000
 40
1.050000
 50
-90.000000
 51
90.000000
  0
LINE
  8
23
 62
7
  6
CONTINUOUS
 10
3.000000
 20
158.300000
 11
7.000000
 21
158.300000
  0
LINE
  8
23
 62
7
  6
CONTINUOUS
 10
3.000000
 20
166.300000
 11
3.000000
 21
158.300000
  0
LINE
  8
23
 62
7
  6
CONTINUOUS
 10
7.000000
 20
166.300000
 11
3.000000
 21
166.300000
  0
ARC
  8
23
 62
7
  6
CONTINUOUS
 10
7.000000
 20
167.350000
 40
1.050000
 50
-90.000000
 51
90.000000
  0
LINE
  8
23
 62
7
  6
CONTINUOUS
 10
7.000000
 20
172.300000
 11
7.000000
 21
168.400000
  0
LINE
  8
23
 62
7
  6
CONTINUOUS
 10
46.500000
 20
172.300000
 11
7.000000
 21
172.300000
  0
LINE
  8
23
 62
7
  6
CONTINUOUS
 10
46.500000
 20
168.400000
 11
46.500000
 21
172.300000
  0
ARC
  8
23
 62
7
  6
CONTINUOUS
 10
46.500000
 20
167.350000
 40
1.050000
 50
90.000000
 51
-90.000000
  0
LINE
  8
23
 62
7
  6
CONTINUOUS
 10
50.500000
 20
166.300000
 11
46.500000
 21
166.300000
  0
ARC
  8
23
 62
7
  6
CONTINUOUS
 10
86.700000
 20
132.870338
 40
6.000000
 50
0.000000
 51
113.858378
  0
ARC
  8
23
 62
7
  6
CONTINUOUS
 10
81.442934
 20
130.545294
 40
6.000000
 50
113.858378
 51
-153.365174
  0
ARC
  8
23
 62
7
  6
CONTINUOUS
 10
86.700000
 20
121.200000
 40
6.000000
 50
-90.000000
 51
0.000000
  0
ARC
  8
23
 62
7
  6
CONTINUOUS
 10
83.235596
 20
121.200000
 40
6.000000
 50
175.082900
 51
-90.000000
  0
LINE
  8
23
 62
7
  6
CONTINUOUS
 10
84.273136
 20
138.357626
 11
79.016070
 21
136.032582
  0
LINE
  8
23
 62
7
  6
CONTINUOUS
 10
83.235596
 20
115.200000
 11
86.700000
 21
115.200000
  0
ARC
  8
23
 62
7
  6
CONTINUOUS
 10
65.800000
 20
122.700000
 40
11.500000
 50
-4.917100
 51
26.634826
  0
LINE
  8
23
 62
7
  6
CONTINUOUS
 10
92.700000
 20
121.200000
 11
92.700000
 21
132.870338
  0
CIRCLE
  8
23
 62
7
  6
CONTINUOUS
 10
97.800000
 20
142.700000
 40
1.550000
  0
LINE
  8
23
 62
7
  6
CONTINUOUS
 10
95.659327
 20
140.414082
 11
96.890674
 21
139.703163
  0
LINE
  8
23
 62
7
  6
CONTINUOUS
 10
99.940674
 20
144.985918
 11
98.709327
 21
145.696837
  0
LINE
  8
23
 62
7
  6
CONTINUOUS
 10
100.850000
 20
141.989082
 11
100.850000
 21
143.410918
  0
LINE
  8
23
 62
7
  6
CONTINUOUS
 10
94.750000
 20
143.410918
 11
94.750000
 21
141.989082
  0
LINE
  8
23
 62
7
  6
CONTINUOUS
 10
98.709327
 20
139.703163
 11
99.940674
 21
140.414082
  0
LINE
  8
23
 62
7
  6
CONTINUOUS
 10
96.890674
 20
145.696837
 11
95.659327
 21
144.985918
  0
ARC
  8
23
 62
7
  6
CONTINUOUS
 10
95.659327
 20
143.935918
 40
1.050000
 50
90.000000
 51
-150.000000
  0
ARC
  8
23
 62
7
  6
CONTINUOUS
 10
99.940674
 20
143.935918
 40
1.050000
 50
-30.000000
 51
90.000000
  0
ARC
  8
23
 62
7
  6
CONTINUOUS
 10
99.940674
 20
141.464082
 40
1.050000
 50
-90.000000
 51
30.000000
  0
ARC
  8
23
 62
7
  6
CONTINUOUS
 10
95.659327
 20
141.464082
 40
1.050000
 50
150.000000
 51
-90.000000
  0
ARC
  8
23
 62
7
  6
CONTINUOUS
 10
97.800000
 20
140.228163
 40
1.050000
 50
-150.000000
 51
-30.000000
  0
ARC
  8
23
 62
7
  6
CONTINUOUS
 10
97.800000
 20
145.171837
 40
1.050000
 50
30.000000
 51
150.000000
  0
ARC
  8
23
 62
7
  6
CONTINUOUS
 10
99.700000
 20
135.366667
 40
2.000000
 50
112.619865
 51
180.000000
  0
LINE
  8
23
 62
7
  6
CONTINUOUS
 10
97.700000
 20
135.366667
 11
97.700000
 21
127.300000
  0
CIRCLE
  8
23
 62
7
  6
CONTINUOUS
 10
74.050000
 20
122.700000
 40
1.550000
  0
CIRCLE
  8
23
 62
7
  6
CONTINUOUS
 10
65.800000
 20
130.950000
 40
1.550000
  0
CIRCLE
  8
23
 62
7
  6
CONTINUOUS
 10
65.800000
 20
114.450000
 40
1.550000
  0
CIRCLE
  8
23
 62
7
  6
CONTINUOUS
 10
65.800000
 20
122.700000
 40
1.550000
  0
LINE
  8
23
 62
7
  6
CONTINUOUS
 10
101.700000
 20
125.200000
 11
101.700000
 21
117.200000
  0
LINE
  8
23
 62
7
  6
CONTINUOUS
 10
97.700000
 20
125.200000
 11
101.700000
 21
125.200000
  0
ARC
  8
23
 62
7
  6
CONTINUOUS
 10
97.700000
 20
126.250000
 40
1.050000
 50
90.000000
 51
-90.000000
  0
LINE
  8
23
 62
7
  6
CONTINUOUS
 10
99.915385
 20
137.623077
 11
98.930770
 21
137.212821
  0
ARC
  8
23
 62
7
  6
CONTINUOUS
 10
97.800000
 20
142.700000
 40
5.500000
 50
-67.380135
 51
113.858378
  0
LINE
  8
23
 62
7
  6
CONTINUOUS
 10
58.200000
 20
131.200000
 11
95.575375
 21
147.730014
  0
LINE
  8
23
 62
7
  6
CONTINUOUS
 10
58.200000
 20
127.300000
 11
58.200000
 21
131.200000
  0
ARC
  8
23
 62
7
  6
CONTINUOUS
 10
58.200000
 20
126.250000
 40
1.050000
 50
-90.000000
 51
90.000000
  0
LINE
  8
23
 62
7
  6
CONTINUOUS
 10
54.200000
 20
125.200000
 11
58.200000
 21
125.200000
  0
LINE
  8
23
 62
7
  6
CONTINUOUS
 10
54.200000
 20
117.200000
 11
54.200000
 21
125.200000
  0
LINE
  8
23
 62
7
  6
CONTINUOUS
 10
58.200000
 20
117.200000
 11
54.200000
 21
117.200000
  0
ARC
  8
23
 62
7
  6
CONTINUOUS
 10
58.200000
 20
116.150000
 40
1.050000
 50
-90.000000
 51
90.000000
  0
LINE
  8
23
 62
7
  6
CONTINUOUS
 10
58.200000
 20
111.200000
 11
58.200000
 21
115.100000
  0
LINE
  8
23
 62
7
  6
CONTINUOUS
 10
97.700000
 20
111.200000
 11
58.200000
 21
111.200000
  0
LINE
  8
23
 62
7
  6
CONTINUOUS
 10
97.700000
 20
115.100000
 11
97.700000
 21
111.200000
  0
ARC
  8
23
 62
7
  6
CONTINUOUS
 10
97.700000
 20
116.150000
 40
1.050000
 50
90.000000
 51
-90.000000
  0
LINE
  8
23
 62
7
  6
CONTINUOUS
 10
101.700000
 20
117.200000
 11
97.700000
 21
117.200000
  0
ARC
  8
23
 62
7
  6
CONTINUOUS
 10
70.800000
 20
150.629662
 40
6.000000
 50
-180.000000
 51
-66.141622
  0
ARC
  8
23
 62
7
  6
CONTINUOUS
 10
76.057067
 20
152.954706
 40
6.000000
 50
-66.141622
 51
26.634826
  0
ARC
  8
23
 62
7
  6
CONTINUOUS
 10
70.800000
 20
162.300000
 40
6.000000
 50
90.000000
 51
-180.000000
  0
ARC
  8
23
 62
7
  6
CONTINUOUS
 10
74.264405
 20
162.300000
 40
6.000000
 50
-4.917100
 51
90.000000
  0
LINE
  8
23
 62
7
  6
CONTINUOUS
 10
73.226864
 20
145.142374
 11
78.483931
 21
147.467418
  0
LINE
  8
23
 62
7
  6
CONTINUOUS
 10
74.264405
 20
168.300000
 11
70.800000
 21
168.300000
  0
ARC
  8
23
 62
7
  6
CONTINUOUS
 10
91.700000
 20
160.800000
 40
11.500000
 50
175.082900
 51
-153.365174
  0
LINE
  8
23
 62
7
  6
CONTINUOUS
 10
64.800000
 20
162.300000
 11
64.800000
 21
150.629662
  0
CIRCLE
  8
23
 62
7
  6
CONTINUOUS
 10
59.700000
 20
140.800000
 40
1.550000
  0
LINE
  8
23
 62
7
  6
CONTINUOUS
 10
61.840674
 20
143.085918
 11
60.609327
 21
143.796837
  0
LINE
  8
23
 62
7
  6
CONTINUOUS
 10
57.559327
 20
138.514082
 11
58.790674
 21
137.803163
  0
LINE
  8
23
 62
7
  6
CONTINUOUS
 10
56.650000
 20
141.510918
 11
56.650000
 21
140.089082
  0
LINE
  8
23
 62
7
  6
CONTINUOUS
 10
62.750000
 20
140.089082
 11
62.750000
 21
141.510918
  0
LINE
  8
23
 62
7
  6
CONTINUOUS
 10
58.790674
 20
143.796837
 11
57.559327
 21
143.085918
  0
LINE
  8
23
 62
7
  6
CONTINUOUS
 10
60.609327
 20
137.803163
 11
61.840674
 21
138.514082
  0
ARC
  8
23
 62
7
  6
CONTINUOUS
 10
61.840674
 20
139.564082
 40
1.050000
 50
-90.000000
 51
30.000000
  0
ARC
  8
23
 62
7
  6
CONTINUOUS
 10
57.559327
 20
139.564082
 40
1.050000
 50
150.000000
 51
-90.000000
  0
ARC
  8
23
 62
7
  6
CONTINUOUS
 10
57.559327
 20
142.035918
 40
1.050000
 50
90.000000
 51
-150.000000
  0
ARC
  8
23
 62
7
  6
CONTINUOUS
 10
61.840674
 20
142.035918
 40
1.050000
 50
-30.000000
 51
90.000000
  0
ARC
  8
23
 62
7
  6
CONTINUOUS
 10
59.700000
 20
143.271837
 40
1.050000
 50
30.000000
 51
150.000000
  0
ARC
  8
23
 62
7
  6
CONTINUOUS
 10
59.700000
 20
138.328163
 40
1.050000
 50
-150.000000
 51
-30.000000
  0
ARC
  8
23
 62
7
  6
CONTINUOUS
 10
57.800000
 20
148.133333
 40
2.000000
 50
-67.380135
 51
0.000000
  0
LINE
  8
23
 62
7
  6
CONTINUOUS
 10
59.800000
 20
148.133333
 11
59.800000
 21
156.200000
  0
CIRCLE
  8
23
 62
7
  6
CONTINUOUS
 10
83.450000
 20
160.800000
 40
1.550000
  0
CIRCLE
  8
23
 62
7
  6
CONTINUOUS
 10
91.700000
 20
152.550000
 40
1.550000
  0
CIRCLE
  8
23
 62
7
  6
CONTINUOUS
 10
91.700000
 20
169.050000
 40
1.550000
  0
CIRCLE
  8
23
 62
7
  6
CONTINUOUS
 10
91.700000
 20
160.800000
 40
1.550000
  0
LINE
  8
23
 62
7
  6
CONTINUOUS
 10
55.800000
 20
158.300000
 11
55.800000
 21
166.300000
  0
LINE
  8
23
 62
7
  6
CONTINUOUS
 10
59.800000
 20
158.300000
 11
55.800000
 21
158.300000
  0
ARC
  8
23
 62
7
  6
CONTINUOUS
 10
59.800000
 20
157.250000
 40
1.050000
 50
-90.000000
 51
90.000000
  0
LINE
  8
23
 62
7
  6
CONTINUOUS
 10
57.584616
 20
145.876923
 11
58.569231
 21
146.287179
  0
ARC
  8
23
 62
7
  6
CONTINUOUS
 10
59.700000
 20
140.800000
 40
5.500000
 50
112.619865
 51
-66.141622
  0
LINE
  8
23
 62
7
  6
CONTINUOUS
 10
99.300000
 20
152.300000
 11
61.924626
 21
135.769986
  0
LINE
  8
23
 62
7
  6
CONTINUOUS
 10
99.300000
 20
156.200000
 11
99.300000
 21
152.300000
  0
ARC
  8
23
 62
7
  6
CONTINUOUS
 10
99.300000
 20
157.250000
 40
1.050000
 50
90.000000
 51
-90.000000
  0
LINE
  8
23
 62
7
  6
CONTINUOUS
 10
103.300000
 20
158.300000
 11
99.300000
 21
158.300000
  0
LINE
  8
23
 62
7
  6
CONTINUOUS
 10
103.300000
 20
166.300000
 11
103.300000
 21
158.300000
  0
LINE
  8
23
 62
7
  6
CONTINUOUS
 10
99.300000
 20
166.300000
 11
103.300000
 21
166.300000
  0
ARC
  8
23
 62
7
  6
CONTINUOUS
 10
99.300000
 20
167.350000
 40
1.050000
 50
90.000000
 51
-90.000000
  0
LINE
  8
23
 62
7
  6
CONTINUOUS
 10
99.300000
 20
172.300000
 11
99.300000
 21
168.400000
  0
LINE
  8
23
 62
7
  6
CONTINUOUS
 10
59.800000
 20
172.300000
 11
99.300000
 21
172.300000
  0
LINE
  8
23
 62
7
  6
CONTINUOUS
 10
59.800000
 20
168.400000
 11
59.800000
 21
172.300000
  0
ARC
  8
23
 62
7
  6
CONTINUOUS
 10
59.800000
 20
167.350000
 40
1.050000
 50
-90.000000
 51
90.000000
  0
LINE
  8
23
 62
7
  6
CONTINUOUS
 10
55.800000
 20
166.300000
 11
59.800000
 21
166.300000
  0
ENDSEC
  0
EOF
