  0
SECTION
  2
HEADER
  9
$ACADVER
  1
AC1009
  9
$INSBASE
 10
0.000000
 20
0.000000
  9
$EXTMIN
 10
0.000000
 20
0.000000
  9
$EXTMAX
 10
594.000000
 20
420.000000
  9
$LIMMIN
 10
0.000000
 20
0.000000
  9
$LIMMAX
 10
594.000000
 20
420.000000
  9
$VIEWCTR
 10
297.000000
 20
210.000000
  9
$VIEWSIZE
 40
420.000000
  9
$PEXTMIN
 10
0.000000
 20
0.000000
 30
0.000000
  9
$PEXTMAX
 10
297.000000
 20
210.000000
 30
0.000000
  9
$SNAPMODE
 70
     0
  9
$SNAPUNIT
 10
1.000000
 20
1.000000
  9
$SNAPBASE
 10
0.000000
 20
0.000000
  9
$SNAPANG
 50
0.000000
  9
$SNAPISOPAIR
 70
     0
  9
$SNAPSTYLE
 70
     0
  9
$GRIDMODE
 70
     0
  9
$GRIDUNIT
 10
0.000000
 20
0.000000
  9
$ORTHOMODE
 70
     0
  9
$REGENMODE
 70
     1
  9
$FILLMODE
 70
     1
  9
$QTEXTMODE
 70
     0
  9
$DRAGMODE
 70
     2
  9
$LTSCALE
 40
0.500000
  9
$OSMODE
 70
     0
  9
$ATTMODE
 70
     1
  9
$TEXTSIZE
 40
10.000000
  9
$TRACEWID
 40
0.050000
  9
$TEXTSTYLE
  7
STANDARD
  9
$CLAYER
  8
0
  9
$CELTYPE
  6
BYLAYER
  9
$CECOLOR
 62
   256
  9
$DIMSCALE
 40
1.000000
  9
$DIMASZ
 40
1.000000
  9
$DIMEXO
 40
0.000000
  9
$DIMDLI
 40
0.500000
  9
$DIMRND
 40
0.000000
  9
$DIMDLE
 40
0.000000
  9
$DIMEXE
 40
0.000000
  9
$DIMTP
 40
0.000000
  9
$DIMTM
 40
0.000000
  9
$DIMTXT
 40
4.000000
  9
$DIMCEN
 40
0.000000
  9
$DIMTSZ
 40
0.000000
  9
$DIMTOL
 70
     0
  9
$DIMLIM
 70
     0
  9
$DIMTIH
 70
     1
  9
$DIMTOH
 70
     1
  9
$DIMSE1
 70
     0
  9
$DIMSE2
 70
     0
  9
$DIMTAD
 70
     0
  9
$DIMZIN
 70
     0
  9
$DIMBLK
  1

  9
$DIMASO
 70
     0
  9
$DIMSHO
 70
     0
  9
$DIMPOST
  1

  9
$DIMAPOST
  1

  9
$DIMALT
 70
     0
  9
$DIMALTD
 70
     0
  9
$DIMALTF
 40
25.400000
  9
$DIMLFAC
 40
1.000000
  9
$DIMTOFL
 70
     0
  9
$DIMTVP
 40
0.000000
  9
$DIMTIX
 70
     0
  9
$DIMSOXD
 70
     0
  9
$DIMSAH
 70
     0
  9
$DIMBLKL
  1

  9
$DIMBLKR
  1

  9
$LUNITS
 70
     2
  9
$LUPREC
 70
     2
  9
$AXISMODE
 70
     0
  9
$AXISUNIT
 10
1.000000
 20
1.000000
  9
$SKETCHINC
 40
0.000000
  9
$FILLETRAD
 40
0.000000
  9
$AUNITS
 70
     1
  9
$AUPREC
 70
     2
  9
$MENU
  1
ACAD
  9
$ELEVATION
 40
0.000000
  9
$THICKNESS
 40
0.000000
  9
$VIEWDIR
 10
0.000000
 20
0.000000
 30
1.000000
  9
$LIMCHECK
 70
     1
  9
$BLIPMODE
 70
     1
  9
$CHAMFERA
 40
0.000000
  9
$CHAMFERB
 40
0.000000
  9
$FASTZOOM
 70
     1
  9
$SKPOLY
 70
     0
  9
$TDCREATE
 40
0.000000
  9
$TDUPDATE
 40
0.000000
  9
$TDINDWG
 40
0.000000
  9
$TDUSRTIMER
 40
0.000000
  9
$USRTIMER
 70
     1
  9
$ANGBASE
 50
0.000000
  9
$ANGDIR
 70
     0
  9
$PDMODE
 70
     0
  9
$PDSIZE
 40
0.000000
  9
$PLINEWID
 40
0.000000
  9
$COORDS
 70
     2
  9
$USERI1
 70
     0
  9
$USERI2
 70
     0
  9
$USERI3
 70
     0
  9
$USERI4
 70
     0
  9
$USERI5
 70
     0
  9
$USERR1
 40
0.000000
  9
$USERR2
 40
0.000000
  9
$USERR3
 40
0.000000
  9
$USERR4
 40
0.000000
  9
$USERR5
 40
0.000000
  0
ENDSEC
  0
SECTION
  2
TABLES
  0
TABLE
  2
LTYPE
 70
     5
  0
LTYPE
  2
CONTINUOUS
 70
    64
  3
Solid line
 72
    65
 73
     0
 40
0.0
  0
LTYPE
  2
HIDDEN
 70
    64
  3
------------------------
 72
    65
 73
     2
 40
12.6
 49
8.4
 49
-4.2
  0
LTYPE
  2
DOT
 70
    64
  3
ееееееееееееееееееееееее
 72
    65
 73
     2
 40
8.0
 49
6.0
 49
-2.0
  0
LTYPE
  2
DASHDOT
 70
    64
  3
--е--е--е--е--е--е--е--
 72
    65
 73
     4
 40
50.5
 49
30.0
 49
-9.0
 49
2.5
 49
-9.0
  0
LTYPE
  2
DIVIDE
 70
    64
  3
--ее--ее--ее--ее--ее--
 72
    65
 73
     6
 40
58.0
 49
30.0
 49
-9.0
 49
2.5
 49
-5.0
 49
2.5
 49
-9.0
  0
LTYPE
  2
ACAD_ISO06W100
 70
    64
  3
____ ... ____ ... ____
 72
    65
 73
     8
 40
37.5
 49
24.0
 49
-3.0
 49
0.5
 49
-3.0
 49
0.5
 49
-3.0
 49
0.5
 49
-3.0
  0
LTYPE
  2
ACAD_ISO14W100
 70
    64
  3
__ . . . __ . . . __ . . . 
 72
    65
 73
     8
 40
25.5
 49
12.0
 49
-3.0
 49
0.5
 49
-3.0
 49
0.5
 49
-3.0
 49
0.5
 49
-3.0
  0
ENDTAB
  0
TABLE
  2
LAYER
 70
1
  0
LAYER
  2
23
 70
64
 62
7
  6
CONTINUOUS
  0
ENDTAB
  0
TABLE
  2
STYLE
 70
     2
  0
STYLE
  2
STANDARD
 70
    64
 40
0.0
 41
1.0
 50
0.0
 71
     0
 42
0.2
  3
TXT
  4

  0
STYLE
  2
KANJI
 70
    64
 40
0.0
 41
1.0
 50
0.0
 71
     0
 42
0.2
  3
TXT
  4
BIGFONT
  0
ENDTAB
  0
TABLE
  2
VIEW
 70
     0
  0
ENDTAB
  0
ENDSEC
  0
SECTION
  2
BLOCKS
  0
ENDSEC
  0
SECTION
  2
ENTITIES
  0
ARC
  8
23
 62
7
  6
CONTINUOUS
 10
32.950000
 20
7.287222
 40
2.000000
 50
-40.399986
 51
0.000000
  0
ARC
  8
23
 62
7
  6
CONTINUOUS
 10
34.662813
 20
94.401970
 40
2.000000
 50
155.772255
 51
180.000000
  0
ARC
  8
23
 62
7
  6
CONTINUOUS
 10
34.500000
 20
103.787592
 40
2.000000
 50
-24.227745
 51
0.000000
  0
ARC
  8
23
 62
7
  6
CONTINUOUS
 10
34.662813
 20
65.239046
 40
2.000000
 50
180.000000
 51
-155.772255
  0
ARC
  8
23
 62
7
  6
CONTINUOUS
 10
34.500000
 20
55.853425
 40
2.000000
 50
0.000000
 51
24.227745
  0
ARC
  8
23
 62
7
  6
CONTINUOUS
 10
36.950000
 20
29.081462
 40
2.000000
 50
155.772255
 51
-180.000000
  0
ARC
  8
23
 62
7
  6
CONTINUOUS
 10
34.500000
 20
33.384446
 40
2.000000
 50
-24.227745
 51
-0.000000
  0
LINE
  8
23
 62
7
  6
CONTINUOUS
 10
34.950000
 20
7.287222
 11
34.950000
 21
29.081462
  0
LINE
  8
23
 62
7
  6
CONTINUOUS
 10
32.662813
 20
65.239046
 11
32.662813
 21
94.401970
  0
LINE
  8
23
 62
7
  6
CONTINUOUS
 10
36.323843
 20
56.674154
 11
32.838970
 21
64.418316
  0
LINE
  8
23
 62
7
  6
CONTINUOUS
 10
35.126157
 20
29.902192
 11
36.323843
 21
32.563716
  0
LINE
  8
23
 62
7
  6
CONTINUOUS
 10
32.838970
 20
95.222700
 11
36.323843
 21
102.966862
  0
LINE
  8
23
 62
7
  6
CONTINUOUS
 10
36.500000
 20
103.787592
 11
36.500000
 21
111.500000
  0
LINE
  8
23
 62
7
  6
CONTINUOUS
 10
36.500000
 20
33.384446
 11
36.500000
 21
55.853425
  0
ARC
  8
23
 62
7
  6
CONTINUOUS
 10
28.000000
 20
111.500000
 40
8.500000
 50
0.000000
 51
137.914388
  0
LINE
  8
23
 62
7
  6
CONTINUOUS
 10
21.691775
 20
117.197042
 11
4.289279
 21
97.927594
  0
LINE
  8
23
 62
7
  6
CONTINUOUS
 10
3.000000
 20
94.576393
 11
3.000000
 21
53.721669
  0
LINE
  8
23
 62
7
  6
CONTINUOUS
 10
4.648799
 20
50.010948
 11
17.851201
 21
38.087682
  0
LINE
  8
23
 62
7
  6
CONTINUOUS
 10
19.500000
 20
34.376961
 11
19.500000
 21
11.500000
  0
ARC
  8
23
 62
7
  6
CONTINUOUS
 10
28.000000
 20
11.500000
 40
8.500000
 50
180.000000
 51
-40.399986
  0
CIRCLE
  8
23
 62
7
  6
CONTINUOUS
 10
6.500000
 20
94.000000
 40
1.550000
  0
CIRCLE
  8
23
 62
7
  6
CONTINUOUS
 10
6.500000
 20
54.000000
 40
1.550000
  0
CIRCLE
  8
23
 62
7
  6
CONTINUOUS
 10
6.500000
 20
74.000000
 40
1.550000
  0
CIRCLE
  8
23
 62
7
  6
CONTINUOUS
 10
28.000000
 20
11.500000
 40
4.050000
  0
CIRCLE
  8
23
 62
7
  6
CONTINUOUS
 10
28.000000
 20
111.500000
 40
4.050000
  0
ARC
  8
23
 62
7
  6
CONTINUOUS
 10
8.000000
 20
94.576393
 40
5.000000
 50
137.914388
 51
180.000000
  0
ARC
  8
23
 62
7
  6
CONTINUOUS
 10
8.000000
 20
53.721669
 40
5.000000
 50
-180.000000
 51
-132.085612
  0
ARC
  8
23
 62
7
  6
CONTINUOUS
 10
14.500000
 20
34.376961
 40
5.000000
 50
-0.000000
 51
47.914388
  0
ARC
  8
23
 62
7
  6
CONTINUOUS
 10
45.100000
 20
104.492888
 40
2.000000
 50
179.592501
 51
-180.000000
  0
ARC
  8
23
 62
7
  6
CONTINUOUS
 10
40.600000
 20
61.070731
 40
2.000000
 50
155.772255
 51
180.000000
  0
ARC
  8
23
 62
7
  6
CONTINUOUS
 10
40.600000
 20
31.929269
 40
2.000000
 50
180.000000
 51
-155.772255
  0
ARC
  8
23
 62
7
  6
CONTINUOUS
 10
41.100000
 20
21.070731
 40
2.000000
 50
-0.000000
 51
24.227745
  0
LINE
  8
23
 62
7
  6
CONTINUOUS
 10
43.100000
 20
104.492888
 11
43.100000
 21
71.500000
  0
LINE
  8
23
 62
7
  6
CONTINUOUS
 10
38.600000
 20
61.070731
 11
38.600000
 21
31.929269
  0
LINE
  8
23
 62
7
  6
CONTINUOUS
 10
43.100000
 20
21.070731
 11
43.100000
 21
11.500000
  0
LINE
  8
23
 62
7
  6
CONTINUOUS
 10
55.050000
 20
86.512989
 11
55.050000
 21
59.500000
  0
ARC
  8
23
 62
7
  6
CONTINUOUS
 10
51.600000
 20
59.500000
 40
3.450000
 50
180.000000
 51
0.000000
  0
LINE
  8
23
 62
7
  6
CONTINUOUS
 10
48.150000
 20
59.500000
 11
48.150000
 21
86.512989
  0
ARC
  8
23
 62
7
  6
CONTINUOUS
 10
51.600000
 20
86.512989
 40
3.450000
 50
0.000000
 51
180.000000
  0
CIRCLE
  8
23
 62
7
  6
CONTINUOUS
 10
51.600000
 20
111.500000
 40
4.050000
  0
CIRCLE
  8
23
 62
7
  6
CONTINUOUS
 10
51.600000
 20
11.500000
 40
4.050000
  0
CIRCLE
  8
23
 62
7
  6
CONTINUOUS
 10
51.413728
 20
37.718750
 40
1.550000
  0
CIRCLE
  8
23
 62
7
  6
CONTINUOUS
 10
54.129626
 20
44.440832
 40
1.550000
  0
CIRCLE
  8
23
 62
7
  6
CONTINUOUS
 10
56.845524
 20
51.162915
 40
1.550000
  0
LINE
  8
23
 62
7
  6
CONTINUOUS
 10
43.150214
 20
111.560098
 11
43.100051
 21
104.507112
  0
ARC
  8
23
 62
7
  6
CONTINUOUS
 10
51.600000
 20
111.500000
 40
8.450000
 50
0.407499
 51
179.592501
  0
LINE
  8
23
 62
7
  6
CONTINUOUS
 10
60.100000
 20
104.500000
 11
60.049786
 21
111.560098
  0
LINE
  8
23
 62
7
  6
CONTINUOUS
 10
60.100000
 20
11.500000
 11
60.100000
 21
104.500000
  0
ARC
  8
23
 62
7
  6
CONTINUOUS
 10
51.600000
 20
11.500000
 40
8.500000
 50
180.000000
 51
-0.000000
  0
LINE
  8
23
 62
7
  6
CONTINUOUS
 10
43.100000
 20
71.500000
 11
38.776157
 21
61.891460
  0
LINE
  8
23
 62
7
  6
CONTINUOUS
 10
38.776157
 20
31.108540
 11
42.923843
 21
21.891460
  0
ARC
  8
23
 62
7
  6
CONTINUOUS
 10
68.700000
 20
104.492888
 40
2.000000
 50
179.592501
 51
-180.000000
  0
ARC
  8
23
 62
7
  6
CONTINUOUS
 10
64.200000
 20
61.070731
 40
2.000000
 50
155.772255
 51
180.000000
  0
ARC
  8
23
 62
7
  6
CONTINUOUS
 10
64.200000
 20
31.929269
 40
2.000000
 50
180.000000
 51
-155.772255
  0
ARC
  8
23
 62
7
  6
CONTINUOUS
 10
64.700000
 20
21.070731
 40
2.000000
 50
-0.000000
 51
24.227745
  0
LINE
  8
23
 62
7
  6
CONTINUOUS
 10
66.700000
 20
104.492888
 11
66.700000
 21
71.500000
  0
LINE
  8
23
 62
7
  6
CONTINUOUS
 10
62.200000
 20
61.070731
 11
62.200000
 21
31.929269
  0
LINE
  8
23
 62
7
  6
CONTINUOUS
 10
66.700000
 20
21.070731
 11
66.700000
 21
11.500000
  0
LINE
  8
23
 62
7
  6
CONTINUOUS
 10
78.650000
 20
86.512989
 11
78.650000
 21
59.500000
  0
ARC
  8
23
 62
7
  6
CONTINUOUS
 10
75.200000
 20
59.500000
 40
3.450000
 50
180.000000
 51
0.000000
  0
LINE
  8
23
 62
7
  6
CONTINUOUS
 10
71.750000
 20
59.500000
 11
71.750000
 21
86.512989
  0
ARC
  8
23
 62
7
  6
CONTINUOUS
 10
75.200000
 20
86.512989
 40
3.450000
 50
0.000000
 51
180.000000
  0
CIRCLE
  8
23
 62
7
  6
CONTINUOUS
 10
75.200000
 20
111.500000
 40
4.050000
  0
CIRCLE
  8
23
 62
7
  6
CONTINUOUS
 10
75.200000
 20
11.500000
 40
4.050000
  0
CIRCLE
  8
23
 62
7
  6
CONTINUOUS
 10
81.200000
 20
47.000000
 40
1.550000
  0
CIRCLE
  8
23
 62
7
  6
CONTINUOUS
 10
81.200000
 20
23.000000
 40
1.550000
  0
CIRCLE
  8
23
 62
7
  6
CONTINUOUS
 10
81.200000
 20
35.000000
 40
1.550000
  0
LINE
  8
23
 62
7
  6
CONTINUOUS
 10
66.750214
 20
111.560098
 11
66.700051
 21
104.507112
  0
ARC
  8
23
 62
7
  6
CONTINUOUS
 10
75.200000
 20
111.500000
 40
8.450000
 50
0.407499
 51
179.592501
  0
LINE
  8
23
 62
7
  6
CONTINUOUS
 10
83.700000
 20
104.500000
 11
83.649786
 21
111.560098
  0
LINE
  8
23
 62
7
  6
CONTINUOUS
 10
83.700000
 20
11.500000
 11
83.700000
 21
104.500000
  0
ARC
  8
23
 62
7
  6
CONTINUOUS
 10
75.200000
 20
11.500000
 40
8.500000
 50
180.000000
 51
-0.000000
  0
LINE
  8
23
 62
7
  6
CONTINUOUS
 10
66.700000
 20
71.500000
 11
62.376157
 21
61.891460
  0
LINE
  8
23
 62
7
  6
CONTINUOUS
 10
62.376157
 20
31.108540
 11
66.523843
 21
21.891460
  0
ARC
  8
23
 62
7
  6
CONTINUOUS
 10
32.950000
 20
234.812778
 40
2.000000
 50
0.000000
 51
40.399986
  0
ARC
  8
23
 62
7
  6
CONTINUOUS
 10
34.662813
 20
147.698030
 40
2.000000
 50
180.000000
 51
-155.772255
  0
ARC
  8
23
 62
7
  6
CONTINUOUS
 10
34.500000
 20
138.312408
 40
2.000000
 50
-0.000000
 51
24.227745
  0
ARC
  8
23
 62
7
  6
CONTINUOUS
 10
34.662813
 20
176.860954
 40
2.000000
 50
155.772255
 51
180.000000
  0
ARC
  8
23
 62
7
  6
CONTINUOUS
 10
34.500000
 20
186.246575
 40
2.000000
 50
-24.227745
 51
0.000000
  0
ARC
  8
23
 62
7
  6
CONTINUOUS
 10
36.950000
 20
213.018538
 40
2.000000
 50
180.000000
 51
-155.772255
  0
ARC
  8
23
 62
7
  6
CONTINUOUS
 10
34.500000
 20
208.715554
 40
2.000000
 50
0.000000
 51
24.227745
  0
LINE
  8
23
 62
7
  6
CONTINUOUS
 10
34.950000
 20
234.812778
 11
34.950000
 21
213.018538
  0
LINE
  8
23
 62
7
  6
CONTINUOUS
 10
32.662813
 20
176.860954
 11
32.662813
 21
147.698030
  0
LINE
  8
23
 62
7
  6
CONTINUOUS
 10
36.323843
 20
185.425846
 11
32.838970
 21
177.681684
  0
LINE
  8
23
 62
7
  6
CONTINUOUS
 10
35.126157
 20
212.197808
 11
36.323843
 21
209.536284
  0
LINE
  8
23
 62
7
  6
CONTINUOUS
 10
32.838970
 20
146.877300
 11
36.323843
 21
139.133138
  0
LINE
  8
23
 62
7
  6
CONTINUOUS
 10
36.500000
 20
138.312408
 11
36.500000
 21
130.600000
  0
LINE
  8
23
 62
7
  6
CONTINUOUS
 10
36.500000
 20
208.715554
 11
36.500000
 21
186.246575
  0
ARC
  8
23
 62
7
  6
CONTINUOUS
 10
28.000000
 20
130.600000
 40
8.500000
 50
-137.914388
 51
0.000000
  0
LINE
  8
23
 62
7
  6
CONTINUOUS
 10
21.691775
 20
124.902958
 11
4.289279
 21
144.172406
  0
LINE
  8
23
 62
7
  6
CONTINUOUS
 10
3.000000
 20
147.523607
 11
3.000000
 21
188.378331
  0
LINE
  8
23
 62
7
  6
CONTINUOUS
 10
4.648799
 20
192.089052
 11
17.851201
 21
204.012318
  0
LINE
  8
23
 62
7
  6
CONTINUOUS
 10
19.500000
 20
207.723039
 11
19.500000
 21
230.600000
  0
ARC
  8
23
 62
7
  6
CONTINUOUS
 10
28.000000
 20
230.600000
 40
8.500000
 50
40.399986
 51
180.000000
  0
CIRCLE
  8
23
 62
7
  6
CONTINUOUS
 10
6.500000
 20
148.100000
 40
1.550000
  0
CIRCLE
  8
23
 62
7
  6
CONTINUOUS
 10
6.500000
 20
188.100000
 40
1.550000
  0
CIRCLE
  8
23
 62
7
  6
CONTINUOUS
 10
6.500000
 20
168.100000
 40
1.550000
  0
CIRCLE
  8
23
 62
7
  6
CONTINUOUS
 10
28.000000
 20
230.600000
 40
4.050000
  0
CIRCLE
  8
23
 62
7
  6
CONTINUOUS
 10
28.000000
 20
130.600000
 40
4.050000
  0
ARC
  8
23
 62
7
  6
CONTINUOUS
 10
8.000000
 20
147.523607
 40
5.000000
 50
180.000000
 51
-137.914388
  0
ARC
  8
23
 62
7
  6
CONTINUOUS
 10
8.000000
 20
188.378331
 40
5.000000
 50
132.085612
 51
180.000000
  0
ARC
  8
23
 62
7
  6
CONTINUOUS
 10
14.500000
 20
207.723039
 40
5.000000
 50
-47.914388
 51
0.000000
  0
ARC
  8
23
 62
7
  6
CONTINUOUS
 10
45.100000
 20
137.607112
 40
2.000000
 50
180.000000
 51
-179.592501
  0
ARC
  8
23
 62
7
  6
CONTINUOUS
 10
40.600000
 20
181.029269
 40
2.000000
 50
180.000000
 51
-155.772255
  0
ARC
  8
23
 62
7
  6
CONTINUOUS
 10
40.600000
 20
210.170731
 40
2.000000
 50
155.772255
 51
180.000000
  0
ARC
  8
23
 62
7
  6
CONTINUOUS
 10
41.100000
 20
221.029269
 40
2.000000
 50
-24.227745
 51
0.000000
  0
LINE
  8
23
 62
7
  6
CONTINUOUS
 10
43.100000
 20
137.607112
 11
43.100000
 21
170.600000
  0
LINE
  8
23
 62
7
  6
CONTINUOUS
 10
38.600000
 20
181.029269
 11
38.600000
 21
210.170731
  0
LINE
  8
23
 62
7
  6
CONTINUOUS
 10
43.100000
 20
221.029269
 11
43.100000
 21
230.600000
  0
LINE
  8
23
 62
7
  6
CONTINUOUS
 10
55.050000
 20
155.587011
 11
55.050000
 21
182.600000
  0
ARC
  8
23
 62
7
  6
CONTINUOUS
 10
51.600000
 20
182.600000
 40
3.450000
 50
0.000000
 51
180.000000
  0
LINE
  8
23
 62
7
  6
CONTINUOUS
 10
48.150000
 20
182.600000
 11
48.150000
 21
155.587011
  0
ARC
  8
23
 62
7
  6
CONTINUOUS
 10
51.600000
 20
155.587011
 40
3.450000
 50
-180.000000
 51
0.000000
  0
CIRCLE
  8
23
 62
7
  6
CONTINUOUS
 10
51.600000
 20
130.600000
 40
4.050000
  0
CIRCLE
  8
23
 62
7
  6
CONTINUOUS
 10
51.600000
 20
230.600000
 40
4.050000
  0
CIRCLE
  8
23
 62
7
  6
CONTINUOUS
 10
51.413728
 20
204.381250
 40
1.550000
  0
CIRCLE
  8
23
 62
7
  6
CONTINUOUS
 10
54.129626
 20
197.659168
 40
1.550000
  0
CIRCLE
  8
23
 62
7
  6
CONTINUOUS
 10
56.845524
 20
190.937085
 40
1.550000
  0
LINE
  8
23
 62
7
  6
CONTINUOUS
 10
43.150214
 20
130.539902
 11
43.100051
 21
137.592888
  0
ARC
  8
23
 62
7
  6
CONTINUOUS
 10
51.600000
 20
130.600000
 40
8.450000
 50
-179.592501
 51
-0.407499
  0
LINE
  8
23
 62
7
  6
CONTINUOUS
 10
60.100000
 20
137.600000
 11
60.049786
 21
130.539902
  0
LINE
  8
23
 62
7
  6
CONTINUOUS
 10
60.100000
 20
230.600000
 11
60.100000
 21
137.600000
  0
ARC
  8
23
 62
7
  6
CONTINUOUS
 10
51.600000
 20
230.600000
 40
8.500000
 50
0.000000
 51
-180.000000
  0
LINE
  8
23
 62
7
  6
CONTINUOUS
 10
43.100000
 20
170.600000
 11
38.776157
 21
180.208540
  0
LINE
  8
23
 62
7
  6
CONTINUOUS
 10
38.776157
 20
210.991460
 11
42.923843
 21
220.208540
  0
ARC
  8
23
 62
7
  6
CONTINUOUS
 10
68.700000
 20
137.607112
 40
2.000000
 50
180.000000
 51
-179.592501
  0
ARC
  8
23
 62
7
  6
CONTINUOUS
 10
64.200000
 20
181.029269
 40
2.000000
 50
180.000000
 51
-155.772255
  0
ARC
  8
23
 62
7
  6
CONTINUOUS
 10
64.200000
 20
210.170731
 40
2.000000
 50
155.772255
 51
-180.000000
  0
ARC
  8
23
 62
7
  6
CONTINUOUS
 10
64.700000
 20
221.029269
 40
2.000000
 50
-24.227745
 51
0.000000
  0
LINE
  8
23
 62
7
  6
CONTINUOUS
 10
66.700000
 20
137.607112
 11
66.700000
 21
170.600000
  0
LINE
  8
23
 62
7
  6
CONTINUOUS
 10
62.200000
 20
181.029269
 11
62.200000
 21
210.170731
  0
LINE
  8
23
 62
7
  6
CONTINUOUS
 10
66.700000
 20
221.029269
 11
66.700000
 21
230.600000
  0
LINE
  8
23
 62
7
  6
CONTINUOUS
 10
78.650000
 20
155.587011
 11
78.650000
 21
182.600000
  0
ARC
  8
23
 62
7
  6
CONTINUOUS
 10
75.200000
 20
182.600000
 40
3.450000
 50
0.000000
 51
-180.000000
  0
LINE
  8
23
 62
7
  6
CONTINUOUS
 10
71.750000
 20
182.600000
 11
71.750000
 21
155.587011
  0
ARC
  8
23
 62
7
  6
CONTINUOUS
 10
75.200000
 20
155.587011
 40
3.450000
 50
-180.000000
 51
0.000000
  0
CIRCLE
  8
23
 62
7
  6
CONTINUOUS
 10
75.200000
 20
130.600000
 40
4.050000
  0
CIRCLE
  8
23
 62
7
  6
CONTINUOUS
 10
75.200000
 20
230.600000
 40
4.050000
  0
CIRCLE
  8
23
 62
7
  6
CONTINUOUS
 10
81.200000
 20
195.100000
 40
1.550000
  0
CIRCLE
  8
23
 62
7
  6
CONTINUOUS
 10
81.200000
 20
219.100000
 40
1.550000
  0
CIRCLE
  8
23
 62
7
  6
CONTINUOUS
 10
81.200000
 20
207.100000
 40
1.550000
  0
LINE
  8
23
 62
7
  6
CONTINUOUS
 10
66.750214
 20
130.539902
 11
66.700051
 21
137.592888
  0
ARC
  8
23
 62
7
  6
CONTINUOUS
 10
75.200000
 20
130.600000
 40
8.450000
 50
-179.592501
 51
-0.407499
  0
LINE
  8
23
 62
7
  6
CONTINUOUS
 10
83.700000
 20
137.600000
 11
83.649786
 21
130.539902
  0
LINE
  8
23
 62
7
  6
CONTINUOUS
 10
83.700000
 20
230.600000
 11
83.700000
 21
137.600000
  0
ARC
  8
23
 62
7
  6
CONTINUOUS
 10
75.200000
 20
230.600000
 40
8.500000
 50
0.000000
 51
-180.000000
  0
LINE
  8
23
 62
7
  6
CONTINUOUS
 10
66.700000
 20
170.600000
 11
62.376157
 21
180.208540
  0
LINE
  8
23
 62
7
  6
CONTINUOUS
 10
62.376157
 20
210.991460
 11
66.523843
 21
220.208540
  0
ARC
  8
23
 62
7
  6
CONTINUOUS
 10
158.750000
 20
7.287222
 40
2.000000
 50
180.000000
 51
-139.600014
  0
ARC
  8
23
 62
7
  6
CONTINUOUS
 10
157.037187
 20
94.401970
 40
2.000000
 50
0.000000
 51
24.227745
  0
ARC
  8
23
 62
7
  6
CONTINUOUS
 10
157.200000
 20
103.787592
 40
2.000000
 50
180.000000
 51
-155.772255
  0
ARC
  8
23
 62
7
  6
CONTINUOUS
 10
157.037187
 20
65.239046
 40
2.000000
 50
-24.227745
 51
0.000000
  0
ARC
  8
23
 62
7
  6
CONTINUOUS
 10
157.200000
 20
55.853425
 40
2.000000
 50
155.772255
 51
180.000000
  0
ARC
  8
23
 62
7
  6
CONTINUOUS
 10
154.750000
 20
29.081462
 40
2.000000
 50
-0.000000
 51
24.227745
  0
ARC
  8
23
 62
7
  6
CONTINUOUS
 10
157.200000
 20
33.384446
 40
2.000000
 50
-180.000000
 51
-155.772255
  0
LINE
  8
23
 62
7
  6
CONTINUOUS
 10
156.750000
 20
7.287222
 11
156.750000
 21
29.081462
  0
LINE
  8
23
 62
7
  6
CONTINUOUS
 10
159.037187
 20
65.239046
 11
159.037187
 21
94.401970
  0
LINE
  8
23
 62
7
  6
CONTINUOUS
 10
155.376157
 20
56.674154
 11
158.861030
 21
64.418316
  0
LINE
  8
23
 62
7
  6
CONTINUOUS
 10
156.573843
 20
29.902192
 11
155.376157
 21
32.563716
  0
LINE
  8
23
 62
7
  6
CONTINUOUS
 10
158.861030
 20
95.222700
 11
155.376157
 21
102.966862
  0
LINE
  8
23
 62
7
  6
CONTINUOUS
 10
155.200000
 20
103.787592
 11
155.200000
 21
111.500000
  0
LINE
  8
23
 62
7
  6
CONTINUOUS
 10
155.200000
 20
33.384446
 11
155.200000
 21
55.853425
  0
ARC
  8
23
 62
7
  6
CONTINUOUS
 10
163.700000
 20
111.500000
 40
8.500000
 50
42.085612
 51
180.000000
  0
LINE
  8
23
 62
7
  6
CONTINUOUS
 10
170.008225
 20
117.197042
 11
187.410721
 21
97.927594
  0
LINE
  8
23
 62
7
  6
CONTINUOUS
 10
188.700000
 20
94.576393
 11
188.700000
 21
53.721669
  0
LINE
  8
23
 62
7
  6
CONTINUOUS
 10
187.051201
 20
50.010948
 11
173.848799
 21
38.087682
  0
LINE
  8
23
 62
7
  6
CONTINUOUS
 10
172.200000
 20
34.376961
 11
172.200000
 21
11.500000
  0
ARC
  8
23
 62
7
  6
CONTINUOUS
 10
163.700000
 20
11.500000
 40
8.500000
 50
-139.600014
 51
0.000000
  0
CIRCLE
  8
23
 62
7
  6
CONTINUOUS
 10
185.200000
 20
94.000000
 40
1.550000
  0
CIRCLE
  8
23
 62
7
  6
CONTINUOUS
 10
185.200000
 20
54.000000
 40
1.550000
  0
CIRCLE
  8
23
 62
7
  6
CONTINUOUS
 10
185.200000
 20
74.000000
 40
1.550000
  0
CIRCLE
  8
23
 62
7
  6
CONTINUOUS
 10
163.700000
 20
11.500000
 40
4.050000
  0
CIRCLE
  8
23
 62
7
  6
CONTINUOUS
 10
163.700000
 20
111.500000
 40
4.050000
  0
ARC
  8
23
 62
7
  6
CONTINUOUS
 10
183.700000
 20
94.576393
 40
5.000000
 50
0.000000
 51
42.085612
  0
ARC
  8
23
 62
7
  6
CONTINUOUS
 10
183.700000
 20
53.721669
 40
5.000000
 50
-47.914388
 51
-0.000000
  0
ARC
  8
23
 62
7
  6
CONTINUOUS
 10
177.200000
 20
34.376961
 40
5.000000
 50
132.085612
 51
-180.000000
  0
ARC
  8
23
 62
7
  6
CONTINUOUS
 10
146.600000
 20
104.492888
 40
2.000000
 50
-0.000000
 51
0.407499
  0
ARC
  8
23
 62
7
  6
CONTINUOUS
 10
151.100000
 20
61.070731
 40
2.000000
 50
0.000000
 51
24.227745
  0
ARC
  8
23
 62
7
  6
CONTINUOUS
 10
151.100000
 20
31.929269
 40
2.000000
 50
-24.227745
 51
0.000000
  0
ARC
  8
23
 62
7
  6
CONTINUOUS
 10
150.600000
 20
21.070731
 40
2.000000
 50
155.772255
 51
-180.000000
  0
LINE
  8
23
 62
7
  6
CONTINUOUS
 10
148.600000
 20
104.492888
 11
148.600000
 21
71.500000
  0
LINE
  8
23
 62
7
  6
CONTINUOUS
 10
153.100000
 20
61.070731
 11
153.100000
 21
31.929269
  0
LINE
  8
23
 62
7
  6
CONTINUOUS
 10
148.600000
 20
21.070731
 11
148.600000
 21
11.500000
  0
LINE
  8
23
 62
7
  6
CONTINUOUS
 10
136.650000
 20
86.512989
 11
136.650000
 21
59.500000
  0
ARC
  8
23
 62
7
  6
CONTINUOUS
 10
140.100000
 20
59.500000
 40
3.450000
 50
180.000000
 51
0.000000
  0
LINE
  8
23
 62
7
  6
CONTINUOUS
 10
143.550000
 20
59.500000
 11
143.550000
 21
86.512989
  0
ARC
  8
23
 62
7
  6
CONTINUOUS
 10
140.100000
 20
86.512989
 40
3.450000
 50
0.000000
 51
180.000000
  0
CIRCLE
  8
23
 62
7
  6
CONTINUOUS
 10
140.100000
 20
111.500000
 40
4.050000
  0
CIRCLE
  8
23
 62
7
  6
CONTINUOUS
 10
140.100000
 20
11.500000
 40
4.050000
  0
CIRCLE
  8
23
 62
7
  6
CONTINUOUS
 10
140.286272
 20
37.718750
 40
1.550000
  0
CIRCLE
  8
23
 62
7
  6
CONTINUOUS
 10
137.570374
 20
44.440832
 40
1.550000
  0
CIRCLE
  8
23
 62
7
  6
CONTINUOUS
 10
134.854476
 20
51.162915
 40
1.550000
  0
LINE
  8
23
 62
7
  6
CONTINUOUS
 10
148.549786
 20
111.560098
 11
148.599949
 21
104.507112
  0
ARC
  8
23
 62
7
  6
CONTINUOUS
 10
140.100000
 20
111.500000
 40
8.450000
 50
0.407499
 51
179.592501
  0
LINE
  8
23
 62
7
  6
CONTINUOUS
 10
131.600000
 20
104.500000
 11
131.650214
 21
111.560098
  0
LINE
  8
23
 62
7
  6
CONTINUOUS
 10
131.600000
 20
11.500000
 11
131.600000
 21
104.500000
  0
ARC
  8
23
 62
7
  6
CONTINUOUS
 10
140.100000
 20
11.500000
 40
8.500000
 50
-180.000000
 51
0.000000
  0
LINE
  8
23
 62
7
  6
CONTINUOUS
 10
148.600000
 20
71.500000
 11
152.923843
 21
61.891460
  0
LINE
  8
23
 62
7
  6
CONTINUOUS
 10
152.923843
 20
31.108540
 11
148.776157
 21
21.891460
  0
ARC
  8
23
 62
7
  6
CONTINUOUS
 10
123.000000
 20
104.492888
 40
2.000000
 50
-0.000000
 51
0.407499
  0
ARC
  8
23
 62
7
  6
CONTINUOUS
 10
127.500000
 20
61.070731
 40
2.000000
 50
0.000000
 51
24.227745
  0
ARC
  8
23
 62
7
  6
CONTINUOUS
 10
127.500000
 20
31.929269
 40
2.000000
 50
-24.227745
 51
0.000000
  0
ARC
  8
23
 62
7
  6
CONTINUOUS
 10
127.000000
 20
21.070731
 40
2.000000
 50
155.772255
 51
-180.000000
  0
LINE
  8
23
 62
7
  6
CONTINUOUS
 10
125.000000
 20
104.492888
 11
125.000000
 21
71.500000
  0
LINE
  8
23
 62
7
  6
CONTINUOUS
 10
129.500000
 20
61.070731
 11
129.500000
 21
31.929269
  0
LINE
  8
23
 62
7
  6
CONTINUOUS
 10
125.000000
 20
21.070731
 11
125.000000
 21
11.500000
  0
LINE
  8
23
 62
7
  6
CONTINUOUS
 10
113.050000
 20
86.512989
 11
113.050000
 21
59.500000
  0
ARC
  8
23
 62
7
  6
CONTINUOUS
 10
116.500000
 20
59.500000
 40
3.450000
 50
180.000000
 51
0.000000
  0
LINE
  8
23
 62
7
  6
CONTINUOUS
 10
119.950000
 20
59.500000
 11
119.950000
 21
86.512989
  0
ARC
  8
23
 62
7
  6
CONTINUOUS
 10
116.500000
 20
86.512989
 40
3.450000
 50
0.000000
 51
180.000000
  0
CIRCLE
  8
23
 62
7
  6
CONTINUOUS
 10
116.500000
 20
111.500000
 40
4.050000
  0
CIRCLE
  8
23
 62
7
  6
CONTINUOUS
 10
116.500000
 20
11.500000
 40
4.050000
  0
CIRCLE
  8
23
 62
7
  6
CONTINUOUS
 10
110.500000
 20
47.000000
 40
1.550000
  0
CIRCLE
  8
23
 62
7
  6
CONTINUOUS
 10
110.500000
 20
23.000000
 40
1.550000
  0
CIRCLE
  8
23
 62
7
  6
CONTINUOUS
 10
110.500000
 20
35.000000
 40
1.550000
  0
LINE
  8
23
 62
7
  6
CONTINUOUS
 10
124.949786
 20
111.560098
 11
124.999949
 21
104.507112
  0
ARC
  8
23
 62
7
  6
CONTINUOUS
 10
116.500000
 20
111.500000
 40
8.450000
 50
0.407499
 51
179.592501
  0
LINE
  8
23
 62
7
  6
CONTINUOUS
 10
108.000000
 20
104.500000
 11
108.050214
 21
111.560098
  0
LINE
  8
23
 62
7
  6
CONTINUOUS
 10
108.000000
 20
11.500000
 11
108.000000
 21
104.500000
  0
ARC
  8
23
 62
7
  6
CONTINUOUS
 10
116.500000
 20
11.500000
 40
8.500000
 50
-180.000000
 51
0.000000
  0
LINE
  8
23
 62
7
  6
CONTINUOUS
 10
125.000000
 20
71.500000
 11
129.323843
 21
61.891460
  0
LINE
  8
23
 62
7
  6
CONTINUOUS
 10
129.323843
 20
31.108540
 11
125.176157
 21
21.891460
  0
ARC
  8
23
 62
7
  6
CONTINUOUS
 10
158.750000
 20
234.812778
 40
2.000000
 50
139.600014
 51
180.000000
  0
ARC
  8
23
 62
7
  6
CONTINUOUS
 10
157.037187
 20
147.698030
 40
2.000000
 50
-24.227745
 51
0.000000
  0
ARC
  8
23
 62
7
  6
CONTINUOUS
 10
157.200000
 20
138.312408
 40
2.000000
 50
155.772255
 51
-180.000000
  0
ARC
  8
23
 62
7
  6
CONTINUOUS
 10
157.037187
 20
176.860954
 40
2.000000
 50
0.000000
 51
24.227745
  0
ARC
  8
23
 62
7
  6
CONTINUOUS
 10
157.200000
 20
186.246575
 40
2.000000
 50
180.000000
 51
-155.772255
  0
ARC
  8
23
 62
7
  6
CONTINUOUS
 10
154.750000
 20
213.018538
 40
2.000000
 50
-24.227745
 51
0.000000
  0
ARC
  8
23
 62
7
  6
CONTINUOUS
 10
157.200000
 20
208.715554
 40
2.000000
 50
155.772255
 51
180.000000
  0
LINE
  8
23
 62
7
  6
CONTINUOUS
 10
156.750000
 20
234.812778
 11
156.750000
 21
213.018538
  0
LINE
  8
23
 62
7
  6
CONTINUOUS
 10
159.037187
 20
176.860954
 11
159.037187
 21
147.698030
  0
LINE
  8
23
 62
7
  6
CONTINUOUS
 10
155.376157
 20
185.425846
 11
158.861030
 21
177.681684
  0
LINE
  8
23
 62
7
  6
CONTINUOUS
 10
156.573843
 20
212.197808
 11
155.376157
 21
209.536284
  0
LINE
  8
23
 62
7
  6
CONTINUOUS
 10
158.861030
 20
146.877300
 11
155.376157
 21
139.133138
  0
LINE
  8
23
 62
7
  6
CONTINUOUS
 10
155.200000
 20
138.312408
 11
155.200000
 21
130.600000
  0
LINE
  8
23
 62
7
  6
CONTINUOUS
 10
155.200000
 20
208.715554
 11
155.200000
 21
186.246575
  0
ARC
  8
23
 62
7
  6
CONTINUOUS
 10
163.700000
 20
130.600000
 40
8.500000
 50
180.000000
 51
-42.085612
  0
LINE
  8
23
 62
7
  6
CONTINUOUS
 10
170.008225
 20
124.902958
 11
187.410721
 21
144.172406
  0
LINE
  8
23
 62
7
  6
CONTINUOUS
 10
188.700000
 20
147.523607
 11
188.700000
 21
188.378331
  0
LINE
  8
23
 62
7
  6
CONTINUOUS
 10
187.051201
 20
192.089052
 11
173.848799
 21
204.012318
  0
LINE
  8
23
 62
7
  6
CONTINUOUS
 10
172.200000
 20
207.723039
 11
172.200000
 21
230.600000
  0
ARC
  8
23
 62
7
  6
CONTINUOUS
 10
163.700000
 20
230.600000
 40
8.500000
 50
0.000000
 51
139.600014
  0
CIRCLE
  8
23
 62
7
  6
CONTINUOUS
 10
185.200000
 20
148.100000
 40
1.550000
  0
CIRCLE
  8
23
 62
7
  6
CONTINUOUS
 10
185.200000
 20
188.100000
 40
1.550000
  0
CIRCLE
  8
23
 62
7
  6
CONTINUOUS
 10
185.200000
 20
168.100000
 40
1.550000
  0
CIRCLE
  8
23
 62
7
  6
CONTINUOUS
 10
163.700000
 20
230.600000
 40
4.050000
  0
CIRCLE
  8
23
 62
7
  6
CONTINUOUS
 10
163.700000
 20
130.600000
 40
4.050000
  0
ARC
  8
23
 62
7
  6
CONTINUOUS
 10
183.700000
 20
147.523607
 40
5.000000
 50
-42.085612
 51
0.000000
  0
ARC
  8
23
 62
7
  6
CONTINUOUS
 10
183.700000
 20
188.378331
 40
5.000000
 50
0.000000
 51
47.914388
  0
ARC
  8
23
 62
7
  6
CONTINUOUS
 10
177.200000
 20
207.723039
 40
5.000000
 50
180.000000
 51
-132.085612
  0
ARC
  8
23
 62
7
  6
CONTINUOUS
 10
146.600000
 20
137.607112
 40
2.000000
 50
-0.407499
 51
0.000000
  0
ARC
  8
23
 62
7
  6
CONTINUOUS
 10
151.100000
 20
181.029269
 40
2.000000
 50
-24.227745
 51
0.000000
  0
ARC
  8
23
 62
7
  6
CONTINUOUS
 10
151.100000
 20
210.170731
 40
2.000000
 50
0.000000
 51
24.227745
  0
ARC
  8
23
 62
7
  6
CONTINUOUS
 10
150.600000
 20
221.029269
 40
2.000000
 50
180.000000
 51
-155.772255
  0
LINE
  8
23
 62
7
  6
CONTINUOUS
 10
148.600000
 20
137.607112
 11
148.600000
 21
170.600000
  0
LINE
  8
23
 62
7
  6
CONTINUOUS
 10
153.100000
 20
181.029269
 11
153.100000
 21
210.170731
  0
LINE
  8
23
 62
7
  6
CONTINUOUS
 10
148.600000
 20
221.029269
 11
148.600000
 21
230.600000
  0
LINE
  8
23
 62
7
  6
CONTINUOUS
 10
136.650000
 20
155.587011
 11
136.650000
 21
182.600000
  0
ARC
  8
23
 62
7
  6
CONTINUOUS
 10
140.100000
 20
182.600000
 40
3.450000
 50
0.000000
 51
180.000000
  0
LINE
  8
23
 62
7
  6
CONTINUOUS
 10
143.550000
 20
182.600000
 11
143.550000
 21
155.587011
  0
ARC
  8
23
 62
7
  6
CONTINUOUS
 10
140.100000
 20
155.587011
 40
3.450000
 50
180.000000
 51
-0.000000
  0
CIRCLE
  8
23
 62
7
  6
CONTINUOUS
 10
140.100000
 20
130.600000
 40
4.050000
  0
CIRCLE
  8
23
 62
7
  6
CONTINUOUS
 10
140.100000
 20
230.600000
 40
4.050000
  0
CIRCLE
  8
23
 62
7
  6
CONTINUOUS
 10
140.286272
 20
204.381250
 40
1.550000
  0
CIRCLE
  8
23
 62
7
  6
CONTINUOUS
 10
137.570374
 20
197.659168
 40
1.550000
  0
CIRCLE
  8
23
 62
7
  6
CONTINUOUS
 10
134.854476
 20
190.937085
 40
1.550000
  0
LINE
  8
23
 62
7
  6
CONTINUOUS
 10
148.549786
 20
130.539902
 11
148.599949
 21
137.592888
  0
ARC
  8
23
 62
7
  6
CONTINUOUS
 10
140.100000
 20
130.600000
 40
8.450000
 50
-179.592501
 51
-0.407499
  0
LINE
  8
23
 62
7
  6
CONTINUOUS
 10
131.600000
 20
137.600000
 11
131.650214
 21
130.539902
  0
LINE
  8
23
 62
7
  6
CONTINUOUS
 10
131.600000
 20
230.600000
 11
131.600000
 21
137.600000
  0
ARC
  8
23
 62
7
  6
CONTINUOUS
 10
140.100000
 20
230.600000
 40
8.500000
 50
-0.000000
 51
180.000000
  0
LINE
  8
23
 62
7
  6
CONTINUOUS
 10
148.600000
 20
170.600000
 11
152.923843
 21
180.208540
  0
LINE
  8
23
 62
7
  6
CONTINUOUS
 10
152.923843
 20
210.991460
 11
148.776157
 21
220.208540
  0
ARC
  8
23
 62
7
  6
CONTINUOUS
 10
123.000000
 20
137.607112
 40
2.000000
 50
-0.407499
 51
0.000000
  0
ARC
  8
23
 62
7
  6
CONTINUOUS
 10
127.500000
 20
181.029269
 40
2.000000
 50
-24.227745
 51
0.000000
  0
ARC
  8
23
 62
7
  6
CONTINUOUS
 10
127.500000
 20
210.170731
 40
2.000000
 50
-0.000000
 51
24.227745
  0
ARC
  8
23
 62
7
  6
CONTINUOUS
 10
127.000000
 20
221.029269
 40
2.000000
 50
180.000000
 51
-155.772255
  0
LINE
  8
23
 62
7
  6
CONTINUOUS
 10
125.000000
 20
137.607112
 11
125.000000
 21
170.600000
  0
LINE
  8
23
 62
7
  6
CONTINUOUS
 10
129.500000
 20
181.029269
 11
129.500000
 21
210.170731
  0
LINE
  8
23
 62
7
  6
CONTINUOUS
 10
125.000000
 20
221.029269
 11
125.000000
 21
230.600000
  0
LINE
  8
23
 62
7
  6
CONTINUOUS
 10
113.050000
 20
155.587011
 11
113.050000
 21
182.600000
  0
ARC
  8
23
 62
7
  6
CONTINUOUS
 10
116.500000
 20
182.600000
 40
3.450000
 50
-0.000000
 51
180.000000
  0
LINE
  8
23
 62
7
  6
CONTINUOUS
 10
119.950000
 20
182.600000
 11
119.950000
 21
155.587011
  0
ARC
  8
23
 62
7
  6
CONTINUOUS
 10
116.500000
 20
155.587011
 40
3.450000
 50
180.000000
 51
-0.000000
  0
CIRCLE
  8
23
 62
7
  6
CONTINUOUS
 10
116.500000
 20
130.600000
 40
4.050000
  0
CIRCLE
  8
23
 62
7
  6
CONTINUOUS
 10
116.500000
 20
230.600000
 40
4.050000
  0
CIRCLE
  8
23
 62
7
  6
CONTINUOUS
 10
110.500000
 20
195.100000
 40
1.550000
  0
CIRCLE
  8
23
 62
7
  6
CONTINUOUS
 10
110.500000
 20
219.100000
 40
1.550000
  0
CIRCLE
  8
23
 62
7
  6
CONTINUOUS
 10
110.500000
 20
207.100000
 40
1.550000
  0
LINE
  8
23
 62
7
  6
CONTINUOUS
 10
124.949786
 20
130.539902
 11
124.999949
 21
137.592888
  0
ARC
  8
23
 62
7
  6
CONTINUOUS
 10
116.500000
 20
130.600000
 40
8.450000
 50
-179.592501
 51
-0.407499
  0
LINE
  8
23
 62
7
  6
CONTINUOUS
 10
108.000000
 20
137.600000
 11
108.050214
 21
130.539902
  0
LINE
  8
23
 62
7
  6
CONTINUOUS
 10
108.000000
 20
230.600000
 11
108.000000
 21
137.600000
  0
ARC
  8
23
 62
7
  6
CONTINUOUS
 10
116.500000
 20
230.600000
 40
8.500000
 50
-0.000000
 51
180.000000
  0
LINE
  8
23
 62
7
  6
CONTINUOUS
 10
125.000000
 20
170.600000
 11
129.323843
 21
180.208540
  0
LINE
  8
23
 62
7
  6
CONTINUOUS
 10
129.323843
 20
210.991460
 11
125.176157
 21
220.208540
  0
ENDSEC
  0
EOF
