  0
SECTION
  2
HEADER
  9
$ACADVER
  1
AC1009
  9
$INSBASE
 10
0.000000
 20
0.000000
  9
$EXTMIN
 10
0.000000
 20
0.000000
  9
$EXTMAX
 10
594.000000
 20
420.000000
  9
$LIMMIN
 10
0.000000
 20
0.000000
  9
$LIMMAX
 10
594.000000
 20
420.000000
  9
$VIEWCTR
 10
297.000000
 20
210.000000
  9
$VIEWSIZE
 40
420.000000
  9
$PEXTMIN
 10
0.000000
 20
0.000000
 30
0.000000
  9
$PEXTMAX
 10
297.000000
 20
210.000000
 30
0.000000
  9
$SNAPMODE
 70
     0
  9
$SNAPUNIT
 10
1.000000
 20
1.000000
  9
$SNAPBASE
 10
0.000000
 20
0.000000
  9
$SNAPANG
 50
0.000000
  9
$SNAPISOPAIR
 70
     0
  9
$SNAPSTYLE
 70
     0
  9
$GRIDMODE
 70
     0
  9
$GRIDUNIT
 10
0.000000
 20
0.000000
  9
$ORTHOMODE
 70
     0
  9
$REGENMODE
 70
     1
  9
$FILLMODE
 70
     1
  9
$QTEXTMODE
 70
     0
  9
$DRAGMODE
 70
     2
  9
$LTSCALE
 40
0.500000
  9
$OSMODE
 70
     0
  9
$ATTMODE
 70
     1
  9
$TEXTSIZE
 40
10.000000
  9
$TRACEWID
 40
0.050000
  9
$TEXTSTYLE
  7
STANDARD
  9
$CLAYER
  8
0
  9
$CELTYPE
  6
BYLAYER
  9
$CECOLOR
 62
   256
  9
$DIMSCALE
 40
1.000000
  9
$DIMASZ
 40
1.000000
  9
$DIMEXO
 40
0.000000
  9
$DIMDLI
 40
0.500000
  9
$DIMRND
 40
0.000000
  9
$DIMDLE
 40
0.000000
  9
$DIMEXE
 40
0.000000
  9
$DIMTP
 40
0.000000
  9
$DIMTM
 40
0.000000
  9
$DIMTXT
 40
4.000000
  9
$DIMCEN
 40
0.000000
  9
$DIMTSZ
 40
0.000000
  9
$DIMTOL
 70
     0
  9
$DIMLIM
 70
     0
  9
$DIMTIH
 70
     1
  9
$DIMTOH
 70
     1
  9
$DIMSE1
 70
     0
  9
$DIMSE2
 70
     0
  9
$DIMTAD
 70
     0
  9
$DIMZIN
 70
     0
  9
$DIMBLK
  1

  9
$DIMASO
 70
     0
  9
$DIMSHO
 70
     0
  9
$DIMPOST
  1

  9
$DIMAPOST
  1

  9
$DIMALT
 70
     0
  9
$DIMALTD
 70
     0
  9
$DIMALTF
 40
25.400000
  9
$DIMLFAC
 40
1.000000
  9
$DIMTOFL
 70
     0
  9
$DIMTVP
 40
0.000000
  9
$DIMTIX
 70
     0
  9
$DIMSOXD
 70
     0
  9
$DIMSAH
 70
     0
  9
$DIMBLKL
  1

  9
$DIMBLKR
  1

  9
$LUNITS
 70
     2
  9
$LUPREC
 70
     2
  9
$AXISMODE
 70
     0
  9
$AXISUNIT
 10
1.000000
 20
1.000000
  9
$SKETCHINC
 40
0.000000
  9
$FILLETRAD
 40
0.000000
  9
$AUNITS
 70
     1
  9
$AUPREC
 70
     2
  9
$MENU
  1
ACAD
  9
$ELEVATION
 40
0.000000
  9
$THICKNESS
 40
0.000000
  9
$VIEWDIR
 10
0.000000
 20
0.000000
 30
1.000000
  9
$LIMCHECK
 70
     1
  9
$BLIPMODE
 70
     1
  9
$CHAMFERA
 40
0.000000
  9
$CHAMFERB
 40
0.000000
  9
$FASTZOOM
 70
     1
  9
$SKPOLY
 70
     0
  9
$TDCREATE
 40
0.000000
  9
$TDUPDATE
 40
0.000000
  9
$TDINDWG
 40
0.000000
  9
$TDUSRTIMER
 40
0.000000
  9
$USRTIMER
 70
     1
  9
$ANGBASE
 50
0.000000
  9
$ANGDIR
 70
     0
  9
$PDMODE
 70
     0
  9
$PDSIZE
 40
0.000000
  9
$PLINEWID
 40
0.000000
  9
$COORDS
 70
     2
  9
$USERI1
 70
     0
  9
$USERI2
 70
     0
  9
$USERI3
 70
     0
  9
$USERI4
 70
     0
  9
$USERI5
 70
     0
  9
$USERR1
 40
0.000000
  9
$USERR2
 40
0.000000
  9
$USERR3
 40
0.000000
  9
$USERR4
 40
0.000000
  9
$USERR5
 40
0.000000
  0
ENDSEC
  0
SECTION
  2
TABLES
  0
TABLE
  2
LTYPE
 70
     5
  0
LTYPE
  2
CONTINUOUS
 70
    64
  3
Solid line
 72
    65
 73
     0
 40
0.0
  0
LTYPE
  2
HIDDEN
 70
    64
  3
------------------------
 72
    65
 73
     2
 40
12.6
 49
8.4
 49
-4.2
  0
LTYPE
  2
DOT
 70
    64
  3
ееееееееееееееееееееееее
 72
    65
 73
     2
 40
8.0
 49
6.0
 49
-2.0
  0
LTYPE
  2
DASHDOT
 70
    64
  3
--е--е--е--е--е--е--е--
 72
    65
 73
     4
 40
50.5
 49
30.0
 49
-9.0
 49
2.5
 49
-9.0
  0
LTYPE
  2
DIVIDE
 70
    64
  3
--ее--ее--ее--ее--ее--
 72
    65
 73
     6
 40
58.0
 49
30.0
 49
-9.0
 49
2.5
 49
-5.0
 49
2.5
 49
-9.0
  0
LTYPE
  2
ACAD_ISO06W100
 70
    64
  3
____ ... ____ ... ____
 72
    65
 73
     8
 40
37.5
 49
24.0
 49
-3.0
 49
0.5
 49
-3.0
 49
0.5
 49
-3.0
 49
0.5
 49
-3.0
  0
LTYPE
  2
ACAD_ISO14W100
 70
    64
  3
__ . . . __ . . . __ . . . 
 72
    65
 73
     8
 40
25.5
 49
12.0
 49
-3.0
 49
0.5
 49
-3.0
 49
0.5
 49
-3.0
 49
0.5
 49
-3.0
  0
ENDTAB
  0
TABLE
  2
LAYER
 70
1
  0
LAYER
  2
23
 70
64
 62
7
  6
CONTINUOUS
  0
ENDTAB
  0
TABLE
  2
STYLE
 70
     2
  0
STYLE
  2
STANDARD
 70
    64
 40
0.0
 41
1.0
 50
0.0
 71
     0
 42
0.2
  3
TXT
  4

  0
STYLE
  2
KANJI
 70
    64
 40
0.0
 41
1.0
 50
0.0
 71
     0
 42
0.2
  3
TXT
  4
BIGFONT
  0
ENDTAB
  0
TABLE
  2
VIEW
 70
     0
  0
ENDTAB
  0
ENDSEC
  0
SECTION
  2
BLOCKS
  0
ENDSEC
  0
SECTION
  2
ENTITIES
  0
CIRCLE
  8
23
 62
7
  6
CONTINUOUS
 10
18.000000
 20
41.042055
 40
1.550000
  0
LINE
  8
23
 62
7
  6
CONTINUOUS
 10
21.050000
 20
41.752973
 11
21.050000
 21
40.331136
  0
LINE
  8
23
 62
7
  6
CONTINUOUS
 10
18.909327
 20
44.038891
 11
20.140673
 21
43.327973
  0
LINE
  8
23
 62
7
  6
CONTINUOUS
 10
17.090673
 20
38.045218
 11
15.859327
 21
38.756136
  0
LINE
  8
23
 62
7
  6
CONTINUOUS
 10
20.140673
 20
38.756136
 11
18.909327
 21
38.045218
  0
LINE
  8
23
 62
7
  6
CONTINUOUS
 10
15.859327
 20
43.327973
 11
17.090673
 21
44.038891
  0
LINE
  8
23
 62
7
  6
CONTINUOUS
 10
14.950000
 20
40.331136
 11
14.950000
 21
41.752973
  0
ARC
  8
23
 62
7
  6
CONTINUOUS
 10
18.000000
 20
38.570218
 40
1.050000
 50
-150.000000
 51
-30.000000
  0
ARC
  8
23
 62
7
  6
CONTINUOUS
 10
18.000000
 20
43.513891
 40
1.050000
 50
30.000000
 51
150.000000
  0
ARC
  8
23
 62
7
  6
CONTINUOUS
 10
20.140673
 20
42.277973
 40
1.050000
 50
-30.000000
 51
90.000000
  0
ARC
  8
23
 62
7
  6
CONTINUOUS
 10
15.859327
 20
42.277973
 40
1.050000
 50
90.000000
 51
-150.000000
  0
ARC
  8
23
 62
7
  6
CONTINUOUS
 10
15.859327
 20
39.806136
 40
1.050000
 50
150.000000
 51
-90.000000
  0
ARC
  8
23
 62
7
  6
CONTINUOUS
 10
20.140673
 20
39.806136
 40
1.050000
 50
-90.000000
 51
30.000000
  0
CIRCLE
  8
23
 62
7
  6
CONTINUOUS
 10
18.000000
 20
58.042055
 40
1.550000
  0
LINE
  8
23
 62
7
  6
CONTINUOUS
 10
21.050000
 20
58.752973
 11
21.050000
 21
57.331136
  0
LINE
  8
23
 62
7
  6
CONTINUOUS
 10
20.140673
 20
55.756136
 11
18.909327
 21
55.045218
  0
LINE
  8
23
 62
7
  6
CONTINUOUS
 10
15.859327
 20
60.327973
 11
17.090673
 21
61.038891
  0
LINE
  8
23
 62
7
  6
CONTINUOUS
 10
18.909327
 20
61.038891
 11
20.140673
 21
60.327973
  0
LINE
  8
23
 62
7
  6
CONTINUOUS
 10
14.950000
 20
57.331136
 11
14.950000
 21
58.752973
  0
LINE
  8
23
 62
7
  6
CONTINUOUS
 10
17.090673
 20
55.045218
 11
15.859327
 21
55.756136
  0
ARC
  8
23
 62
7
  6
CONTINUOUS
 10
15.859327
 20
59.277973
 40
1.050000
 50
90.000000
 51
-150.000000
  0
ARC
  8
23
 62
7
  6
CONTINUOUS
 10
15.859327
 20
56.806136
 40
1.050000
 50
150.000000
 51
-90.000000
  0
ARC
  8
23
 62
7
  6
CONTINUOUS
 10
20.140673
 20
56.806136
 40
1.050000
 50
-90.000000
 51
30.000000
  0
ARC
  8
23
 62
7
  6
CONTINUOUS
 10
18.000000
 20
55.570218
 40
1.050000
 50
-150.000000
 51
-30.000000
  0
ARC
  8
23
 62
7
  6
CONTINUOUS
 10
20.140673
 20
59.277973
 40
1.050000
 50
-30.000000
 51
90.000000
  0
ARC
  8
23
 62
7
  6
CONTINUOUS
 10
18.000000
 20
60.513891
 40
1.050000
 50
30.000000
 51
150.000000
  0
CIRCLE
  8
23
 62
7
  6
CONTINUOUS
 10
50.000000
 20
78.042055
 40
1.550000
  0
LINE
  8
23
 62
7
  6
CONTINUOUS
 10
47.859327
 20
80.327973
 11
49.090673
 21
81.038891
  0
LINE
  8
23
 62
7
  6
CONTINUOUS
 10
52.140673
 20
75.756136
 11
50.909327
 21
75.045218
  0
LINE
  8
23
 62
7
  6
CONTINUOUS
 10
53.050000
 20
78.752973
 11
53.050000
 21
77.331136
  0
LINE
  8
23
 62
7
  6
CONTINUOUS
 10
46.950000
 20
77.331136
 11
46.950000
 21
78.752973
  0
LINE
  8
23
 62
7
  6
CONTINUOUS
 10
50.909327
 20
81.038891
 11
52.140673
 21
80.327973
  0
LINE
  8
23
 62
7
  6
CONTINUOUS
 10
49.090673
 20
75.045218
 11
47.859327
 21
75.756136
  0
ARC
  8
23
 62
7
  6
CONTINUOUS
 10
47.859327
 20
76.806136
 40
1.050000
 50
150.000000
 51
-90.000000
  0
ARC
  8
23
 62
7
  6
CONTINUOUS
 10
52.140673
 20
76.806136
 40
1.050000
 50
-90.000000
 51
30.000000
  0
ARC
  8
23
 62
7
  6
CONTINUOUS
 10
52.140673
 20
79.277973
 40
1.050000
 50
-30.000000
 51
90.000000
  0
ARC
  8
23
 62
7
  6
CONTINUOUS
 10
47.859327
 20
79.277973
 40
1.050000
 50
90.000000
 51
-150.000000
  0
ARC
  8
23
 62
7
  6
CONTINUOUS
 10
50.000000
 20
80.513891
 40
1.050000
 50
30.000000
 51
150.000000
  0
ARC
  8
23
 62
7
  6
CONTINUOUS
 10
50.000000
 20
75.570218
 40
1.050000
 50
-150.000000
 51
-30.000000
  0
CIRCLE
  8
23
 62
7
  6
CONTINUOUS
 10
50.000000
 20
21.042055
 40
1.550000
  0
LINE
  8
23
 62
7
  6
CONTINUOUS
 10
49.090673
 20
18.045218
 11
47.859327
 21
18.756136
  0
LINE
  8
23
 62
7
  6
CONTINUOUS
 10
52.140673
 20
18.756136
 11
50.909327
 21
18.045218
  0
LINE
  8
23
 62
7
  6
CONTINUOUS
 10
47.859327
 20
23.327973
 11
49.090673
 21
24.038891
  0
LINE
  8
23
 62
7
  6
CONTINUOUS
 10
53.050000
 20
21.752973
 11
53.050000
 21
20.331136
  0
LINE
  8
23
 62
7
  6
CONTINUOUS
 10
50.909327
 20
24.038891
 11
52.140673
 21
23.327973
  0
LINE
  8
23
 62
7
  6
CONTINUOUS
 10
46.950000
 20
20.331136
 11
46.950000
 21
21.752973
  0
ARC
  8
23
 62
7
  6
CONTINUOUS
 10
52.140673
 20
22.277973
 40
1.050000
 50
-30.000000
 51
90.000000
  0
ARC
  8
23
 62
7
  6
CONTINUOUS
 10
47.859327
 20
22.277973
 40
1.050000
 50
90.000000
 51
-150.000000
  0
ARC
  8
23
 62
7
  6
CONTINUOUS
 10
50.000000
 20
18.570218
 40
1.050000
 50
-150.000000
 51
-30.000000
  0
ARC
  8
23
 62
7
  6
CONTINUOUS
 10
47.859327
 20
19.806136
 40
1.050000
 50
150.000000
 51
-90.000000
  0
ARC
  8
23
 62
7
  6
CONTINUOUS
 10
52.140673
 20
19.806136
 40
1.050000
 50
-90.000000
 51
30.000000
  0
ARC
  8
23
 62
7
  6
CONTINUOUS
 10
50.000000
 20
23.513891
 40
1.050000
 50
30.000000
 51
150.000000
  0
ARC
  8
23
 62
7
  6
CONTINUOUS
 10
32.600383
 20
5.998320
 40
3.000000
 50
-141.481417
 51
-55.393030
  0
ARC
  8
23
 62
7
  6
CONTINUOUS
 10
32.600383
 20
93.085789
 40
3.000000
 50
55.393030
 51
141.481417
  0
ARC
  8
23
 62
7
  6
CONTINUOUS
 10
6.000000
 20
66.343130
 40
3.000000
 50
96.150640
 51
180.000000
  0
ARC
  8
23
 62
7
  6
CONTINUOUS
 10
6.000000
 20
32.740979
 40
3.000000
 50
180.000000
 51
-96.150640
  0
LINE
  8
23
 62
7
  6
CONTINUOUS
 10
30.253165
 20
4.130015
 11
13.106468
 21
25.672021
  0
CIRCLE
  8
23
 62
7
  6
CONTINUOUS
 10
32.500000
 20
66.762541
 40
1.350000
  0
CIRCLE
  8
23
 62
7
  6
CONTINUOUS
 10
5.500000
 20
66.762541
 40
1.350000
  0
CIRCLE
  8
23
 62
7
  6
CONTINUOUS
 10
32.500000
 20
93.762541
 40
1.350000
  0
CIRCLE
  8
23
 62
7
  6
CONTINUOUS
 10
32.500000
 20
5.321569
 40
1.350000
  0
CIRCLE
  8
23
 62
7
  6
CONTINUOUS
 10
32.500000
 20
32.321569
 40
1.350000
  0
CIRCLE
  8
23
 62
7
  6
CONTINUOUS
 10
5.500000
 20
32.321569
 40
1.350000
  0
LINE
  8
23
 62
7
  6
CONTINUOUS
 10
53.123691
 20
16.515184
 11
34.304215
 21
3.529118
  0
ARC
  8
23
 62
7
  6
CONTINUOUS
 10
50.000000
 20
21.042055
 40
5.500000
 50
-55.393030
 51
0.000000
  0
LINE
  8
23
 62
7
  6
CONTINUOUS
 10
55.500000
 20
78.042055
 11
55.500000
 21
21.042055
  0
ARC
  8
23
 62
7
  6
CONTINUOUS
 10
50.000000
 20
78.042055
 40
5.500000
 50
0.000000
 51
55.393030
  0
LINE
  8
23
 62
7
  6
CONTINUOUS
 10
34.304215
 20
95.554991
 11
53.123691
 21
82.568925
  0
LINE
  8
23
 62
7
  6
CONTINUOUS
 10
13.106468
 20
73.412088
 11
30.253165
 21
94.954094
  0
ARC
  8
23
 62
7
  6
CONTINUOUS
 10
4.500000
 20
80.262541
 40
11.000000
 50
-83.849360
 51
-38.518583
  0
LINE
  8
23
 62
7
  6
CONTINUOUS
 10
3.000000
 20
32.740979
 11
3.000000
 21
66.343130
  0
ARC
  8
23
 62
7
  6
CONTINUOUS
 10
4.500000
 20
18.821569
 40
11.000000
 50
38.518583
 51
83.849360
  0
CIRCLE
  8
23
 62
7
  6
CONTINUOUS
 10
18.000000
 20
153.229524
 40
1.550000
  0
CIRCLE
  8
23
 62
7
  6
CONTINUOUS
 10
18.000000
 20
136.229524
 40
1.550000
  0
CIRCLE
  8
23
 62
7
  6
CONTINUOUS
 10
50.000000
 20
116.229524
 40
1.550000
  0
CIRCLE
  8
23
 62
7
  6
CONTINUOUS
 10
50.000000
 20
173.229524
 40
1.550000
  0
ARC
  8
23
 62
7
  6
CONTINUOUS
 10
32.600383
 20
188.273258
 40
3.000000
 50
55.393030
 51
141.481417
  0
ARC
  8
23
 62
7
  6
CONTINUOUS
 10
32.600383
 20
101.185789
 40
3.000000
 50
-141.481417
 51
-55.393030
  0
ARC
  8
23
 62
7
  6
CONTINUOUS
 10
6.000000
 20
127.928448
 40
3.000000
 50
180.000000
 51
-96.150640
  0
ARC
  8
23
 62
7
  6
CONTINUOUS
 10
6.000000
 20
161.530599
 40
3.000000
 50
96.150640
 51
180.000000
  0
LINE
  8
23
 62
7
  6
CONTINUOUS
 10
30.253165
 20
190.141563
 11
13.106468
 21
168.599557
  0
CIRCLE
  8
23
 62
7
  6
CONTINUOUS
 10
32.500000
 20
127.509037
 40
1.350000
  0
CIRCLE
  8
23
 62
7
  6
CONTINUOUS
 10
5.500000
 20
127.509037
 40
1.350000
  0
CIRCLE
  8
23
 62
7
  6
CONTINUOUS
 10
32.500000
 20
100.509037
 40
1.350000
  0
CIRCLE
  8
23
 62
7
  6
CONTINUOUS
 10
32.500000
 20
188.950010
 40
1.350000
  0
CIRCLE
  8
23
 62
7
  6
CONTINUOUS
 10
32.500000
 20
161.950010
 40
1.350000
  0
CIRCLE
  8
23
 62
7
  6
CONTINUOUS
 10
5.500000
 20
161.950010
 40
1.350000
  0
LINE
  8
23
 62
7
  6
CONTINUOUS
 10
53.123691
 20
177.756394
 11
34.304215
 21
190.742460
  0
ARC
  8
23
 62
7
  6
CONTINUOUS
 10
50.000000
 20
173.229524
 40
5.500000
 50
0.000000
 51
55.393030
  0
LINE
  8
23
 62
7
  6
CONTINUOUS
 10
55.500000
 20
116.229524
 11
55.500000
 21
173.229524
  0
ARC
  8
23
 62
7
  6
CONTINUOUS
 10
50.000000
 20
116.229524
 40
5.500000
 50
-55.393030
 51
0.000000
  0
LINE
  8
23
 62
7
  6
CONTINUOUS
 10
34.304215
 20
98.716587
 11
53.123691
 21
111.702653
  0
LINE
  8
23
 62
7
  6
CONTINUOUS
 10
13.106468
 20
120.859490
 11
30.253165
 21
99.317484
  0
ARC
  8
23
 62
7
  6
CONTINUOUS
 10
4.500000
 20
114.009037
 40
11.000000
 50
38.518583
 51
83.849360
  0
LINE
  8
23
 62
7
  6
CONTINUOUS
 10
3.000000
 20
161.530599
 11
3.000000
 21
127.928448
  0
ARC
  8
23
 62
7
  6
CONTINUOUS
 10
4.500000
 20
175.450010
 40
11.000000
 50
-83.849360
 51
-38.518583
  0
ARC
  8
23
 62
7
  6
CONTINUOUS
 10
87.550000
 20
7.287222
 40
2.000000
 50
-40.399986
 51
0.000000
  0
ARC
  8
23
 62
7
  6
CONTINUOUS
 10
89.262813
 20
94.401970
 40
2.000000
 50
155.772255
 51
180.000000
  0
ARC
  8
23
 62
7
  6
CONTINUOUS
 10
89.100000
 20
103.787592
 40
2.000000
 50
-24.227745
 51
0.000000
  0
ARC
  8
23
 62
7
  6
CONTINUOUS
 10
89.262813
 20
65.239046
 40
2.000000
 50
180.000000
 51
-155.772255
  0
ARC
  8
23
 62
7
  6
CONTINUOUS
 10
89.100000
 20
55.853425
 40
2.000000
 50
0.000000
 51
24.227745
  0
ARC
  8
23
 62
7
  6
CONTINUOUS
 10
91.550000
 20
29.081462
 40
2.000000
 50
155.772255
 51
-180.000000
  0
ARC
  8
23
 62
7
  6
CONTINUOUS
 10
89.100000
 20
33.384446
 40
2.000000
 50
-24.227745
 51
0.000000
  0
LINE
  8
23
 62
7
  6
CONTINUOUS
 10
89.550000
 20
7.287222
 11
89.550000
 21
29.081462
  0
LINE
  8
23
 62
7
  6
CONTINUOUS
 10
87.262813
 20
65.239046
 11
87.262813
 21
94.401970
  0
LINE
  8
23
 62
7
  6
CONTINUOUS
 10
90.923843
 20
56.674154
 11
87.438970
 21
64.418316
  0
LINE
  8
23
 62
7
  6
CONTINUOUS
 10
89.726157
 20
29.902192
 11
90.923843
 21
32.563716
  0
LINE
  8
23
 62
7
  6
CONTINUOUS
 10
87.438970
 20
95.222700
 11
90.923843
 21
102.966862
  0
LINE
  8
23
 62
7
  6
CONTINUOUS
 10
91.100000
 20
103.787592
 11
91.100000
 21
111.500000
  0
LINE
  8
23
 62
7
  6
CONTINUOUS
 10
91.100000
 20
33.384446
 11
91.100000
 21
55.853425
  0
ARC
  8
23
 62
7
  6
CONTINUOUS
 10
82.600000
 20
111.500000
 40
8.500000
 50
0.000000
 51
137.914388
  0
LINE
  8
23
 62
7
  6
CONTINUOUS
 10
76.291775
 20
117.197042
 11
58.889279
 21
97.927594
  0
LINE
  8
23
 62
7
  6
CONTINUOUS
 10
57.600000
 20
94.576393
 11
57.600000
 21
53.721669
  0
LINE
  8
23
 62
7
  6
CONTINUOUS
 10
59.248799
 20
50.010948
 11
72.451201
 21
38.087682
  0
LINE
  8
23
 62
7
  6
CONTINUOUS
 10
74.100000
 20
34.376961
 11
74.100000
 21
11.500000
  0
ARC
  8
23
 62
7
  6
CONTINUOUS
 10
82.600000
 20
11.500000
 40
8.500000
 50
180.000000
 51
-40.399986
  0
CIRCLE
  8
23
 62
7
  6
CONTINUOUS
 10
61.100000
 20
94.000000
 40
1.550000
  0
CIRCLE
  8
23
 62
7
  6
CONTINUOUS
 10
61.100000
 20
54.000000
 40
1.550000
  0
CIRCLE
  8
23
 62
7
  6
CONTINUOUS
 10
61.100000
 20
74.000000
 40
1.550000
  0
CIRCLE
  8
23
 62
7
  6
CONTINUOUS
 10
82.600000
 20
11.500000
 40
4.050000
  0
CIRCLE
  8
23
 62
7
  6
CONTINUOUS
 10
82.600000
 20
111.500000
 40
4.050000
  0
ARC
  8
23
 62
7
  6
CONTINUOUS
 10
62.600000
 20
94.576393
 40
5.000000
 50
137.914388
 51
180.000000
  0
ARC
  8
23
 62
7
  6
CONTINUOUS
 10
62.600000
 20
53.721669
 40
5.000000
 50
-180.000000
 51
-132.085612
  0
ARC
  8
23
 62
7
  6
CONTINUOUS
 10
69.100000
 20
34.376961
 40
5.000000
 50
-0.000000
 51
47.914388
  0
ARC
  8
23
 62
7
  6
CONTINUOUS
 10
87.550000
 20
234.812778
 40
2.000000
 50
0.000000
 51
40.399986
  0
ARC
  8
23
 62
7
  6
CONTINUOUS
 10
89.262813
 20
147.698030
 40
2.000000
 50
180.000000
 51
-155.772255
  0
ARC
  8
23
 62
7
  6
CONTINUOUS
 10
89.100000
 20
138.312408
 40
2.000000
 50
-0.000000
 51
24.227745
  0
ARC
  8
23
 62
7
  6
CONTINUOUS
 10
89.262813
 20
176.860954
 40
2.000000
 50
155.772255
 51
180.000000
  0
ARC
  8
23
 62
7
  6
CONTINUOUS
 10
89.100000
 20
186.246575
 40
2.000000
 50
-24.227745
 51
0.000000
  0
ARC
  8
23
 62
7
  6
CONTINUOUS
 10
91.550000
 20
213.018538
 40
2.000000
 50
180.000000
 51
-155.772255
  0
ARC
  8
23
 62
7
  6
CONTINUOUS
 10
89.100000
 20
208.715554
 40
2.000000
 50
0.000000
 51
24.227745
  0
LINE
  8
23
 62
7
  6
CONTINUOUS
 10
89.550000
 20
234.812778
 11
89.550000
 21
213.018538
  0
LINE
  8
23
 62
7
  6
CONTINUOUS
 10
87.262813
 20
176.860954
 11
87.262813
 21
147.698030
  0
LINE
  8
23
 62
7
  6
CONTINUOUS
 10
90.923843
 20
185.425846
 11
87.438970
 21
177.681684
  0
LINE
  8
23
 62
7
  6
CONTINUOUS
 10
89.726157
 20
212.197808
 11
90.923843
 21
209.536284
  0
LINE
  8
23
 62
7
  6
CONTINUOUS
 10
87.438970
 20
146.877300
 11
90.923843
 21
139.133138
  0
LINE
  8
23
 62
7
  6
CONTINUOUS
 10
91.100000
 20
138.312408
 11
91.100000
 21
130.600000
  0
LINE
  8
23
 62
7
  6
CONTINUOUS
 10
91.100000
 20
208.715554
 11
91.100000
 21
186.246575
  0
ARC
  8
23
 62
7
  6
CONTINUOUS
 10
82.600000
 20
130.600000
 40
8.500000
 50
-137.914388
 51
0.000000
  0
LINE
  8
23
 62
7
  6
CONTINUOUS
 10
76.291775
 20
124.902958
 11
58.889279
 21
144.172406
  0
LINE
  8
23
 62
7
  6
CONTINUOUS
 10
57.600000
 20
147.523607
 11
57.600000
 21
188.378331
  0
LINE
  8
23
 62
7
  6
CONTINUOUS
 10
59.248799
 20
192.089052
 11
72.451201
 21
204.012318
  0
LINE
  8
23
 62
7
  6
CONTINUOUS
 10
74.100000
 20
207.723039
 11
74.100000
 21
230.600000
  0
ARC
  8
23
 62
7
  6
CONTINUOUS
 10
82.600000
 20
230.600000
 40
8.500000
 50
40.399986
 51
180.000000
  0
CIRCLE
  8
23
 62
7
  6
CONTINUOUS
 10
61.100000
 20
148.100000
 40
1.550000
  0
CIRCLE
  8
23
 62
7
  6
CONTINUOUS
 10
61.100000
 20
188.100000
 40
1.550000
  0
CIRCLE
  8
23
 62
7
  6
CONTINUOUS
 10
61.100000
 20
168.100000
 40
1.550000
  0
CIRCLE
  8
23
 62
7
  6
CONTINUOUS
 10
82.600000
 20
230.600000
 40
4.050000
  0
CIRCLE
  8
23
 62
7
  6
CONTINUOUS
 10
82.600000
 20
130.600000
 40
4.050000
  0
ARC
  8
23
 62
7
  6
CONTINUOUS
 10
62.600000
 20
147.523607
 40
5.000000
 50
-180.000000
 51
-137.914388
  0
ARC
  8
23
 62
7
  6
CONTINUOUS
 10
62.600000
 20
188.378331
 40
5.000000
 50
132.085612
 51
180.000000
  0
ARC
  8
23
 62
7
  6
CONTINUOUS
 10
69.100000
 20
207.723039
 40
5.000000
 50
-47.914388
 51
0.000000
  0
CIRCLE
  8
23
 62
7
  6
CONTINUOUS
 10
14.346527
 20
193.484336
 40
5.050000
  0
CIRCLE
  8
23
 62
7
  6
CONTINUOUS
 10
14.346527
 20
209.984336
 40
1.550000
  0
CIRCLE
  8
23
 62
7
  6
CONTINUOUS
 10
14.346527
 20
201.984336
 40
1.350000
  0
CIRCLE
  8
23
 62
7
  6
CONTINUOUS
 10
22.846527
 20
193.484336
 40
1.350000
  0
CIRCLE
  8
23
 62
7
  6
CONTINUOUS
 10
14.346527
 20
184.984336
 40
1.350000
  0
CIRCLE
  8
23
 62
7
  6
CONTINUOUS
 10
5.846527
 20
193.484336
 40
1.350000
  0
ARC
  8
23
 62
7
  6
CONTINUOUS
 10
14.346527
 20
209.984336
 40
3.450000
 50
27.230786
 51
152.769214
  0
LINE
  8
23
 62
7
  6
CONTINUOUS
 10
24.127404
 20
198.517669
 11
17.414166
 21
211.562972
  0
ARC
  8
23
 62
7
  6
CONTINUOUS
 10
14.346527
 20
193.484336
 40
11.000000
 50
152.769214
 51
27.230786
  0
LINE
  8
23
 62
7
  6
CONTINUOUS
 10
11.278888
 20
211.562972
 11
4.565650
 21
198.517669
  0
CIRCLE
  8
23
 62
7
  6
CONTINUOUS
 10
36.210165
 20
205.198836
 40
5.050000
  0
CIRCLE
  8
23
 62
7
  6
CONTINUOUS
 10
62.155404
 20
203.512242
 40
1.550000
  0
CIRCLE
  8
23
 62
7
  6
CONTINUOUS
 10
43.172958
 20
200.323437
 40
1.350000
  0
CIRCLE
  8
23
 62
7
  6
CONTINUOUS
 10
31.334765
 20
198.236044
 40
1.350000
  0
CIRCLE
  8
23
 62
7
  6
CONTINUOUS
 10
29.247373
 20
210.074236
 40
1.350000
  0
CIRCLE
  8
23
 62
7
  6
CONTINUOUS
 10
41.085565
 20
212.161629
 40
1.350000
  0
LINE
  8
23
 62
7
  6
CONTINUOUS
 10
63.261702
 20
206.300808
 11
40.266593
 21
215.423580
  0
ARC
  8
23
 62
7
  6
CONTINUOUS
 10
62.155404
 20
203.512242
 40
3.000000
 50
-75.799120
 51
68.360454
  0
LINE
  8
23
 62
7
  6
CONTINUOUS
 10
38.908710
 20
194.534979
 11
62.891370
 21
200.603917
  0
ARC
  8
23
 62
7
  6
CONTINUOUS
 10
36.210165
 20
205.198836
 40
11.000000
 50
68.360454
 51
-75.799120
  0
CIRCLE
  8
23
 62
7
  6
CONTINUOUS
 10
59.826690
 20
224.739912
 40
5.050000
  0
CIRCLE
  8
23
 62
7
  6
CONTINUOUS
 10
33.881452
 20
226.426506
 40
1.550000
  0
CIRCLE
  8
23
 62
7
  6
CONTINUOUS
 10
52.863898
 20
229.615312
 40
1.350000
  0
CIRCLE
  8
23
 62
7
  6
CONTINUOUS
 10
64.702090
 20
231.702704
 40
1.350000
  0
CIRCLE
  8
23
 62
7
  6
CONTINUOUS
 10
66.789482
 20
219.864512
 40
1.350000
  0
CIRCLE
  8
23
 62
7
  6
CONTINUOUS
 10
54.951290
 20
217.777119
 40
1.350000
  0
LINE
  8
23
 62
7
  6
CONTINUOUS
 10
32.775153
 20
223.637940
 11
55.770262
 21
214.515168
  0
ARC
  8
23
 62
7
  6
CONTINUOUS
 10
33.881452
 20
226.426506
 40
3.000000
 50
104.200880
 51
-111.639546
  0
LINE
  8
23
 62
7
  6
CONTINUOUS
 10
57.128145
 20
235.403769
 11
33.145485
 21
229.334831
  0
ARC
  8
23
 62
7
  6
CONTINUOUS
 10
59.826690
 20
224.739912
 40
11.000000
 50
-111.639546
 51
104.200880
  0
CIRCLE
  8
23
 62
7
  6
CONTINUOUS
 10
178.100000
 20
41.042055
 40
1.550000
  0
LINE
  8
23
 62
7
  6
CONTINUOUS
 10
175.050000
 20
41.752973
 11
175.050000
 21
40.331136
  0
LINE
  8
23
 62
7
  6
CONTINUOUS
 10
177.190673
 20
44.038891
 11
175.959327
 21
43.327973
  0
LINE
  8
23
 62
7
  6
CONTINUOUS
 10
179.009327
 20
38.045218
 11
180.240673
 21
38.756136
  0
LINE
  8
23
 62
7
  6
CONTINUOUS
 10
175.959327
 20
38.756136
 11
177.190673
 21
38.045218
  0
LINE
  8
23
 62
7
  6
CONTINUOUS
 10
180.240673
 20
43.327973
 11
179.009327
 21
44.038891
  0
LINE
  8
23
 62
7
  6
CONTINUOUS
 10
181.150000
 20
40.331136
 11
181.150000
 21
41.752973
  0
ARC
  8
23
 62
7
  6
CONTINUOUS
 10
178.100000
 20
38.570218
 40
1.050000
 50
-150.000000
 51
-30.000000
  0
ARC
  8
23
 62
7
  6
CONTINUOUS
 10
178.100000
 20
43.513891
 40
1.050000
 50
30.000000
 51
150.000000
  0
ARC
  8
23
 62
7
  6
CONTINUOUS
 10
175.959327
 20
42.277973
 40
1.050000
 50
90.000000
 51
-150.000000
  0
ARC
  8
23
 62
7
  6
CONTINUOUS
 10
180.240673
 20
42.277973
 40
1.050000
 50
-30.000000
 51
90.000000
  0
ARC
  8
23
 62
7
  6
CONTINUOUS
 10
180.240673
 20
39.806136
 40
1.050000
 50
-90.000000
 51
30.000000
  0
ARC
  8
23
 62
7
  6
CONTINUOUS
 10
175.959327
 20
39.806136
 40
1.050000
 50
150.000000
 51
-90.000000
  0
CIRCLE
  8
23
 62
7
  6
CONTINUOUS
 10
178.100000
 20
58.042055
 40
1.550000
  0
LINE
  8
23
 62
7
  6
CONTINUOUS
 10
175.050000
 20
58.752973
 11
175.050000
 21
57.331136
  0
LINE
  8
23
 62
7
  6
CONTINUOUS
 10
175.959327
 20
55.756136
 11
177.190673
 21
55.045218
  0
LINE
  8
23
 62
7
  6
CONTINUOUS
 10
180.240673
 20
60.327973
 11
179.009327
 21
61.038891
  0
LINE
  8
23
 62
7
  6
CONTINUOUS
 10
177.190673
 20
61.038891
 11
175.959327
 21
60.327973
  0
LINE
  8
23
 62
7
  6
CONTINUOUS
 10
181.150000
 20
57.331136
 11
181.150000
 21
58.752973
  0
LINE
  8
23
 62
7
  6
CONTINUOUS
 10
179.009327
 20
55.045218
 11
180.240673
 21
55.756136
  0
ARC
  8
23
 62
7
  6
CONTINUOUS
 10
180.240673
 20
59.277973
 40
1.050000
 50
-30.000000
 51
90.000000
  0
ARC
  8
23
 62
7
  6
CONTINUOUS
 10
180.240673
 20
56.806136
 40
1.050000
 50
-90.000000
 51
30.000000
  0
ARC
  8
23
 62
7
  6
CONTINUOUS
 10
175.959327
 20
56.806136
 40
1.050000
 50
150.000000
 51
-90.000000
  0
ARC
  8
23
 62
7
  6
CONTINUOUS
 10
178.100000
 20
55.570218
 40
1.050000
 50
-150.000000
 51
-30.000000
  0
ARC
  8
23
 62
7
  6
CONTINUOUS
 10
175.959327
 20
59.277973
 40
1.050000
 50
90.000000
 51
-150.000000
  0
ARC
  8
23
 62
7
  6
CONTINUOUS
 10
178.100000
 20
60.513891
 40
1.050000
 50
30.000000
 51
150.000000
  0
CIRCLE
  8
23
 62
7
  6
CONTINUOUS
 10
146.100000
 20
78.042055
 40
1.550000
  0
LINE
  8
23
 62
7
  6
CONTINUOUS
 10
148.240673
 20
80.327973
 11
147.009327
 21
81.038891
  0
LINE
  8
23
 62
7
  6
CONTINUOUS
 10
143.959327
 20
75.756136
 11
145.190673
 21
75.045218
  0
LINE
  8
23
 62
7
  6
CONTINUOUS
 10
143.050000
 20
78.752973
 11
143.050000
 21
77.331136
  0
LINE
  8
23
 62
7
  6
CONTINUOUS
 10
149.150000
 20
77.331136
 11
149.150000
 21
78.752973
  0
LINE
  8
23
 62
7
  6
CONTINUOUS
 10
145.190673
 20
81.038891
 11
143.959327
 21
80.327973
  0
LINE
  8
23
 62
7
  6
CONTINUOUS
 10
147.009327
 20
75.045218
 11
148.240673
 21
75.756136
  0
ARC
  8
23
 62
7
  6
CONTINUOUS
 10
148.240673
 20
76.806136
 40
1.050000
 50
-90.000000
 51
30.000000
  0
ARC
  8
23
 62
7
  6
CONTINUOUS
 10
143.959327
 20
76.806136
 40
1.050000
 50
150.000000
 51
-90.000000
  0
ARC
  8
23
 62
7
  6
CONTINUOUS
 10
143.959327
 20
79.277973
 40
1.050000
 50
90.000000
 51
-150.000000
  0
ARC
  8
23
 62
7
  6
CONTINUOUS
 10
148.240673
 20
79.277973
 40
1.050000
 50
-30.000000
 51
90.000000
  0
ARC
  8
23
 62
7
  6
CONTINUOUS
 10
146.100000
 20
80.513891
 40
1.050000
 50
30.000000
 51
150.000000
  0
ARC
  8
23
 62
7
  6
CONTINUOUS
 10
146.100000
 20
75.570218
 40
1.050000
 50
-150.000000
 51
-30.000000
  0
CIRCLE
  8
23
 62
7
  6
CONTINUOUS
 10
146.100000
 20
21.042055
 40
1.550000
  0
LINE
  8
23
 62
7
  6
CONTINUOUS
 10
147.009327
 20
18.045218
 11
148.240673
 21
18.756136
  0
LINE
  8
23
 62
7
  6
CONTINUOUS
 10
143.959327
 20
18.756136
 11
145.190673
 21
18.045218
  0
LINE
  8
23
 62
7
  6
CONTINUOUS
 10
148.240673
 20
23.327973
 11
147.009327
 21
24.038891
  0
LINE
  8
23
 62
7
  6
CONTINUOUS
 10
143.050000
 20
21.752973
 11
143.050000
 21
20.331136
  0
LINE
  8
23
 62
7
  6
CONTINUOUS
 10
145.190673
 20
24.038891
 11
143.959327
 21
23.327973
  0
LINE
  8
23
 62
7
  6
CONTINUOUS
 10
149.150000
 20
20.331136
 11
149.150000
 21
21.752973
  0
ARC
  8
23
 62
7
  6
CONTINUOUS
 10
143.959327
 20
22.277973
 40
1.050000
 50
90.000000
 51
-150.000000
  0
ARC
  8
23
 62
7
  6
CONTINUOUS
 10
148.240673
 20
22.277973
 40
1.050000
 50
-30.000000
 51
90.000000
  0
ARC
  8
23
 62
7
  6
CONTINUOUS
 10
146.100000
 20
18.570218
 40
1.050000
 50
-150.000000
 51
-30.000000
  0
ARC
  8
23
 62
7
  6
CONTINUOUS
 10
148.240673
 20
19.806136
 40
1.050000
 50
-90.000000
 51
30.000000
  0
ARC
  8
23
 62
7
  6
CONTINUOUS
 10
143.959327
 20
19.806136
 40
1.050000
 50
150.000000
 51
-90.000000
  0
ARC
  8
23
 62
7
  6
CONTINUOUS
 10
146.100000
 20
23.513891
 40
1.050000
 50
30.000000
 51
150.000000
  0
ARC
  8
23
 62
7
  6
CONTINUOUS
 10
163.499617
 20
5.998320
 40
3.000000
 50
-124.606970
 51
-38.518583
  0
ARC
  8
23
 62
7
  6
CONTINUOUS
 10
163.499617
 20
93.085789
 40
3.000000
 50
38.518583
 51
124.606970
  0
ARC
  8
23
 62
7
  6
CONTINUOUS
 10
190.100000
 20
66.343130
 40
3.000000
 50
0.000000
 51
83.849360
  0
ARC
  8
23
 62
7
  6
CONTINUOUS
 10
190.100000
 20
32.740979
 40
3.000000
 50
-83.849360
 51
0.000000
  0
LINE
  8
23
 62
7
  6
CONTINUOUS
 10
165.846835
 20
4.130015
 11
182.993532
 21
25.672021
  0
CIRCLE
  8
23
 62
7
  6
CONTINUOUS
 10
163.600000
 20
66.762541
 40
1.350000
  0
CIRCLE
  8
23
 62
7
  6
CONTINUOUS
 10
190.600000
 20
66.762541
 40
1.350000
  0
CIRCLE
  8
23
 62
7
  6
CONTINUOUS
 10
163.600000
 20
93.762541
 40
1.350000
  0
CIRCLE
  8
23
 62
7
  6
CONTINUOUS
 10
163.600000
 20
5.321569
 40
1.350000
  0
CIRCLE
  8
23
 62
7
  6
CONTINUOUS
 10
163.600000
 20
32.321569
 40
1.350000
  0
CIRCLE
  8
23
 62
7
  6
CONTINUOUS
 10
190.600000
 20
32.321569
 40
1.350000
  0
LINE
  8
23
 62
7
  6
CONTINUOUS
 10
142.976309
 20
16.515184
 11
161.795785
 21
3.529118
  0
ARC
  8
23
 62
7
  6
CONTINUOUS
 10
146.100000
 20
21.042055
 40
5.500000
 50
180.000000
 51
-124.606970
  0
LINE
  8
23
 62
7
  6
CONTINUOUS
 10
140.600000
 20
78.042055
 11
140.600000
 21
21.042055
  0
ARC
  8
23
 62
7
  6
CONTINUOUS
 10
146.100000
 20
78.042055
 40
5.500000
 50
124.606970
 51
180.000000
  0
LINE
  8
23
 62
7
  6
CONTINUOUS
 10
161.795785
 20
95.554991
 11
142.976309
 21
82.568925
  0
LINE
  8
23
 62
7
  6
CONTINUOUS
 10
182.993532
 20
73.412088
 11
165.846835
 21
94.954094
  0
ARC
  8
23
 62
7
  6
CONTINUOUS
 10
191.600000
 20
80.262541
 40
11.000000
 50
-141.481417
 51
-96.150640
  0
LINE
  8
23
 62
7
  6
CONTINUOUS
 10
193.100000
 20
32.740979
 11
193.100000
 21
66.343130
  0
ARC
  8
23
 62
7
  6
CONTINUOUS
 10
191.600000
 20
18.821569
 40
11.000000
 50
96.150640
 51
141.481417
  0
CIRCLE
  8
23
 62
7
  6
CONTINUOUS
 10
178.100000
 20
153.229524
 40
1.550000
  0
CIRCLE
  8
23
 62
7
  6
CONTINUOUS
 10
178.100000
 20
136.229524
 40
1.550000
  0
CIRCLE
  8
23
 62
7
  6
CONTINUOUS
 10
146.100000
 20
116.229524
 40
1.550000
  0
CIRCLE
  8
23
 62
7
  6
CONTINUOUS
 10
146.100000
 20
173.229524
 40
1.550000
  0
ARC
  8
23
 62
7
  6
CONTINUOUS
 10
163.499617
 20
188.273258
 40
3.000000
 50
38.518583
 51
124.606970
  0
ARC
  8
23
 62
7
  6
CONTINUOUS
 10
163.499617
 20
101.185789
 40
3.000000
 50
-124.606970
 51
-38.518583
  0
ARC
  8
23
 62
7
  6
CONTINUOUS
 10
190.100000
 20
127.928448
 40
3.000000
 50
-83.849360
 51
0.000000
  0
ARC
  8
23
 62
7
  6
CONTINUOUS
 10
190.100000
 20
161.530599
 40
3.000000
 50
0.000000
 51
83.849360
  0
LINE
  8
23
 62
7
  6
CONTINUOUS
 10
165.846835
 20
190.141563
 11
182.993532
 21
168.599557
  0
CIRCLE
  8
23
 62
7
  6
CONTINUOUS
 10
163.600000
 20
127.509037
 40
1.350000
  0
CIRCLE
  8
23
 62
7
  6
CONTINUOUS
 10
190.600000
 20
127.509037
 40
1.350000
  0
CIRCLE
  8
23
 62
7
  6
CONTINUOUS
 10
163.600000
 20
100.509037
 40
1.350000
  0
CIRCLE
  8
23
 62
7
  6
CONTINUOUS
 10
163.600000
 20
188.950010
 40
1.350000
  0
CIRCLE
  8
23
 62
7
  6
CONTINUOUS
 10
163.600000
 20
161.950010
 40
1.350000
  0
CIRCLE
  8
23
 62
7
  6
CONTINUOUS
 10
190.600000
 20
161.950010
 40
1.350000
  0
LINE
  8
23
 62
7
  6
CONTINUOUS
 10
142.976309
 20
177.756394
 11
161.795785
 21
190.742460
  0
ARC
  8
23
 62
7
  6
CONTINUOUS
 10
146.100000
 20
173.229524
 40
5.500000
 50
124.606970
 51
180.000000
  0
LINE
  8
23
 62
7
  6
CONTINUOUS
 10
140.600000
 20
116.229524
 11
140.600000
 21
173.229524
  0
ARC
  8
23
 62
7
  6
CONTINUOUS
 10
146.100000
 20
116.229524
 40
5.500000
 50
180.000000
 51
-124.606970
  0
LINE
  8
23
 62
7
  6
CONTINUOUS
 10
161.795785
 20
98.716587
 11
142.976309
 21
111.702653
  0
LINE
  8
23
 62
7
  6
CONTINUOUS
 10
182.993532
 20
120.859490
 11
165.846835
 21
99.317484
  0
ARC
  8
23
 62
7
  6
CONTINUOUS
 10
191.600000
 20
114.009037
 40
11.000000
 50
96.150640
 51
141.481417
  0
LINE
  8
23
 62
7
  6
CONTINUOUS
 10
193.100000
 20
161.530599
 11
193.100000
 21
127.928448
  0
ARC
  8
23
 62
7
  6
CONTINUOUS
 10
191.600000
 20
175.450010
 40
11.000000
 50
-141.481417
 51
-96.150640
  0
ARC
  8
23
 62
7
  6
CONTINUOUS
 10
108.550000
 20
7.287222
 40
2.000000
 50
180.000000
 51
-139.600014
  0
ARC
  8
23
 62
7
  6
CONTINUOUS
 10
106.837187
 20
94.401970
 40
2.000000
 50
0.000000
 51
24.227745
  0
ARC
  8
23
 62
7
  6
CONTINUOUS
 10
107.000000
 20
103.787592
 40
2.000000
 50
180.000000
 51
-155.772255
  0
ARC
  8
23
 62
7
  6
CONTINUOUS
 10
106.837187
 20
65.239046
 40
2.000000
 50
-24.227745
 51
0.000000
  0
ARC
  8
23
 62
7
  6
CONTINUOUS
 10
107.000000
 20
55.853425
 40
2.000000
 50
155.772255
 51
180.000000
  0
ARC
  8
23
 62
7
  6
CONTINUOUS
 10
104.550000
 20
29.081462
 40
2.000000
 50
-0.000000
 51
24.227745
  0
ARC
  8
23
 62
7
  6
CONTINUOUS
 10
107.000000
 20
33.384446
 40
2.000000
 50
180.000000
 51
-155.772255
  0
LINE
  8
23
 62
7
  6
CONTINUOUS
 10
106.550000
 20
7.287222
 11
106.550000
 21
29.081462
  0
LINE
  8
23
 62
7
  6
CONTINUOUS
 10
108.837187
 20
65.239046
 11
108.837187
 21
94.401970
  0
LINE
  8
23
 62
7
  6
CONTINUOUS
 10
105.176157
 20
56.674154
 11
108.661030
 21
64.418316
  0
LINE
  8
23
 62
7
  6
CONTINUOUS
 10
106.373843
 20
29.902192
 11
105.176157
 21
32.563716
  0
LINE
  8
23
 62
7
  6
CONTINUOUS
 10
108.661030
 20
95.222700
 11
105.176157
 21
102.966862
  0
LINE
  8
23
 62
7
  6
CONTINUOUS
 10
105.000000
 20
103.787592
 11
105.000000
 21
111.500000
  0
LINE
  8
23
 62
7
  6
CONTINUOUS
 10
105.000000
 20
33.384446
 11
105.000000
 21
55.853425
  0
ARC
  8
23
 62
7
  6
CONTINUOUS
 10
113.500000
 20
111.500000
 40
8.500000
 50
42.085612
 51
180.000000
  0
LINE
  8
23
 62
7
  6
CONTINUOUS
 10
119.808225
 20
117.197042
 11
137.210721
 21
97.927594
  0
LINE
  8
23
 62
7
  6
CONTINUOUS
 10
138.500000
 20
94.576393
 11
138.500000
 21
53.721669
  0
LINE
  8
23
 62
7
  6
CONTINUOUS
 10
136.851201
 20
50.010948
 11
123.648799
 21
38.087682
  0
LINE
  8
23
 62
7
  6
CONTINUOUS
 10
122.000000
 20
34.376961
 11
122.000000
 21
11.500000
  0
ARC
  8
23
 62
7
  6
CONTINUOUS
 10
113.500000
 20
11.500000
 40
8.500000
 50
-139.600014
 51
0.000000
  0
CIRCLE
  8
23
 62
7
  6
CONTINUOUS
 10
135.000000
 20
94.000000
 40
1.550000
  0
CIRCLE
  8
23
 62
7
  6
CONTINUOUS
 10
135.000000
 20
54.000000
 40
1.550000
  0
CIRCLE
  8
23
 62
7
  6
CONTINUOUS
 10
135.000000
 20
74.000000
 40
1.550000
  0
CIRCLE
  8
23
 62
7
  6
CONTINUOUS
 10
113.500000
 20
11.500000
 40
4.050000
  0
CIRCLE
  8
23
 62
7
  6
CONTINUOUS
 10
113.500000
 20
111.500000
 40
4.050000
  0
ARC
  8
23
 62
7
  6
CONTINUOUS
 10
133.500000
 20
94.576393
 40
5.000000
 50
0.000000
 51
42.085612
  0
ARC
  8
23
 62
7
  6
CONTINUOUS
 10
133.500000
 20
53.721669
 40
5.000000
 50
-47.914388
 51
-0.000000
  0
ARC
  8
23
 62
7
  6
CONTINUOUS
 10
127.000000
 20
34.376961
 40
5.000000
 50
132.085612
 51
-180.000000
  0
ARC
  8
23
 62
7
  6
CONTINUOUS
 10
108.550000
 20
234.812778
 40
2.000000
 50
139.600014
 51
180.000000
  0
ARC
  8
23
 62
7
  6
CONTINUOUS
 10
106.837187
 20
147.698030
 40
2.000000
 50
-24.227745
 51
0.000000
  0
ARC
  8
23
 62
7
  6
CONTINUOUS
 10
107.000000
 20
138.312408
 40
2.000000
 50
155.772255
 51
-180.000000
  0
ARC
  8
23
 62
7
  6
CONTINUOUS
 10
106.837187
 20
176.860954
 40
2.000000
 50
0.000000
 51
24.227745
  0
ARC
  8
23
 62
7
  6
CONTINUOUS
 10
107.000000
 20
186.246575
 40
2.000000
 50
180.000000
 51
-155.772255
  0
ARC
  8
23
 62
7
  6
CONTINUOUS
 10
104.550000
 20
213.018538
 40
2.000000
 50
-24.227745
 51
0.000000
  0
ARC
  8
23
 62
7
  6
CONTINUOUS
 10
107.000000
 20
208.715554
 40
2.000000
 50
155.772255
 51
180.000000
  0
LINE
  8
23
 62
7
  6
CONTINUOUS
 10
106.550000
 20
234.812778
 11
106.550000
 21
213.018538
  0
LINE
  8
23
 62
7
  6
CONTINUOUS
 10
108.837187
 20
176.860954
 11
108.837187
 21
147.698030
  0
LINE
  8
23
 62
7
  6
CONTINUOUS
 10
105.176157
 20
185.425846
 11
108.661030
 21
177.681684
  0
LINE
  8
23
 62
7
  6
CONTINUOUS
 10
106.373843
 20
212.197808
 11
105.176157
 21
209.536284
  0
LINE
  8
23
 62
7
  6
CONTINUOUS
 10
108.661030
 20
146.877300
 11
105.176157
 21
139.133138
  0
LINE
  8
23
 62
7
  6
CONTINUOUS
 10
105.000000
 20
138.312408
 11
105.000000
 21
130.600000
  0
LINE
  8
23
 62
7
  6
CONTINUOUS
 10
105.000000
 20
208.715554
 11
105.000000
 21
186.246575
  0
ARC
  8
23
 62
7
  6
CONTINUOUS
 10
113.500000
 20
130.600000
 40
8.500000
 50
180.000000
 51
-42.085612
  0
LINE
  8
23
 62
7
  6
CONTINUOUS
 10
119.808225
 20
124.902958
 11
137.210721
 21
144.172406
  0
LINE
  8
23
 62
7
  6
CONTINUOUS
 10
138.500000
 20
147.523607
 11
138.500000
 21
188.378331
  0
LINE
  8
23
 62
7
  6
CONTINUOUS
 10
136.851201
 20
192.089052
 11
123.648799
 21
204.012318
  0
LINE
  8
23
 62
7
  6
CONTINUOUS
 10
122.000000
 20
207.723039
 11
122.000000
 21
230.600000
  0
ARC
  8
23
 62
7
  6
CONTINUOUS
 10
113.500000
 20
230.600000
 40
8.500000
 50
0.000000
 51
139.600014
  0
CIRCLE
  8
23
 62
7
  6
CONTINUOUS
 10
135.000000
 20
148.100000
 40
1.550000
  0
CIRCLE
  8
23
 62
7
  6
CONTINUOUS
 10
135.000000
 20
188.100000
 40
1.550000
  0
CIRCLE
  8
23
 62
7
  6
CONTINUOUS
 10
135.000000
 20
168.100000
 40
1.550000
  0
CIRCLE
  8
23
 62
7
  6
CONTINUOUS
 10
113.500000
 20
230.600000
 40
4.050000
  0
CIRCLE
  8
23
 62
7
  6
CONTINUOUS
 10
113.500000
 20
130.600000
 40
4.050000
  0
ARC
  8
23
 62
7
  6
CONTINUOUS
 10
133.500000
 20
147.523607
 40
5.000000
 50
-42.085612
 51
-0.000000
  0
ARC
  8
23
 62
7
  6
CONTINUOUS
 10
133.500000
 20
188.378331
 40
5.000000
 50
0.000000
 51
47.914388
  0
ARC
  8
23
 62
7
  6
CONTINUOUS
 10
127.000000
 20
207.723039
 40
5.000000
 50
180.000000
 51
-132.085612
  0
CIRCLE
  8
23
 62
7
  6
CONTINUOUS
 10
181.753473
 20
193.484336
 40
5.050000
  0
CIRCLE
  8
23
 62
7
  6
CONTINUOUS
 10
181.753473
 20
209.984336
 40
1.550000
  0
CIRCLE
  8
23
 62
7
  6
CONTINUOUS
 10
181.753473
 20
201.984336
 40
1.350000
  0
CIRCLE
  8
23
 62
7
  6
CONTINUOUS
 10
173.253473
 20
193.484336
 40
1.350000
  0
CIRCLE
  8
23
 62
7
  6
CONTINUOUS
 10
181.753473
 20
184.984336
 40
1.350000
  0
CIRCLE
  8
23
 62
7
  6
CONTINUOUS
 10
190.253473
 20
193.484336
 40
1.350000
  0
ARC
  8
23
 62
7
  6
CONTINUOUS
 10
181.753473
 20
209.984336
 40
3.450000
 50
27.230786
 51
152.769214
  0
LINE
  8
23
 62
7
  6
CONTINUOUS
 10
171.972596
 20
198.517669
 11
178.685834
 21
211.562972
  0
ARC
  8
23
 62
7
  6
CONTINUOUS
 10
181.753473
 20
193.484336
 40
11.000000
 50
152.769214
 51
27.230786
  0
LINE
  8
23
 62
7
  6
CONTINUOUS
 10
184.821112
 20
211.562972
 11
191.534350
 21
198.517669
  0
CIRCLE
  8
23
 62
7
  6
CONTINUOUS
 10
159.889835
 20
205.198836
 40
5.050000
  0
CIRCLE
  8
23
 62
7
  6
CONTINUOUS
 10
133.944596
 20
203.512242
 40
1.550000
  0
CIRCLE
  8
23
 62
7
  6
CONTINUOUS
 10
152.927042
 20
200.323437
 40
1.350000
  0
CIRCLE
  8
23
 62
7
  6
CONTINUOUS
 10
164.765235
 20
198.236044
 40
1.350000
  0
CIRCLE
  8
23
 62
7
  6
CONTINUOUS
 10
166.852627
 20
210.074236
 40
1.350000
  0
CIRCLE
  8
23
 62
7
  6
CONTINUOUS
 10
155.014435
 20
212.161629
 40
1.350000
  0
LINE
  8
23
 62
7
  6
CONTINUOUS
 10
132.838298
 20
206.300808
 11
155.833407
 21
215.423580
  0
ARC
  8
23
 62
7
  6
CONTINUOUS
 10
133.944596
 20
203.512242
 40
3.000000
 50
111.639546
 51
-104.200880
  0
LINE
  8
23
 62
7
  6
CONTINUOUS
 10
157.191290
 20
194.534979
 11
133.208630
 21
200.603917
  0
ARC
  8
23
 62
7
  6
CONTINUOUS
 10
159.889835
 20
205.198836
 40
11.000000
 50
-104.200880
 51
111.639546
  0
CIRCLE
  8
23
 62
7
  6
CONTINUOUS
 10
136.273310
 20
224.739912
 40
5.050000
  0
CIRCLE
  8
23
 62
7
  6
CONTINUOUS
 10
162.218548
 20
226.426506
 40
1.550000
  0
CIRCLE
  8
23
 62
7
  6
CONTINUOUS
 10
143.236102
 20
229.615312
 40
1.350000
  0
CIRCLE
  8
23
 62
7
  6
CONTINUOUS
 10
131.397910
 20
231.702704
 40
1.350000
  0
CIRCLE
  8
23
 62
7
  6
CONTINUOUS
 10
129.310518
 20
219.864512
 40
1.350000
  0
CIRCLE
  8
23
 62
7
  6
CONTINUOUS
 10
141.148710
 20
217.777119
 40
1.350000
  0
LINE
  8
23
 62
7
  6
CONTINUOUS
 10
163.324847
 20
223.637940
 11
140.329738
 21
214.515168
  0
ARC
  8
23
 62
7
  6
CONTINUOUS
 10
162.218548
 20
226.426506
 40
3.000000
 50
-68.360454
 51
75.799120
  0
LINE
  8
23
 62
7
  6
CONTINUOUS
 10
138.971855
 20
235.403769
 11
162.954515
 21
229.334831
  0
ARC
  8
23
 62
7
  6
CONTINUOUS
 10
136.273310
 20
224.739912
 40
11.000000
 50
75.799120
 51
-68.360454
  0
ENDSEC
  0
EOF
