  0
SECTION
  2
HEADER
  9
$ACADVER
  1
AC1009
  9
$INSBASE
 10
0.000000
 20
0.000000
  9
$EXTMIN
 10
0.000000
 20
0.000000
  9
$EXTMAX
 10
594.000000
 20
420.000000
  9
$LIMMIN
 10
0.000000
 20
0.000000
  9
$LIMMAX
 10
594.000000
 20
420.000000
  9
$VIEWCTR
 10
297.000000
 20
210.000000
  9
$VIEWSIZE
 40
420.000000
  9
$PEXTMIN
 10
0.000000
 20
0.000000
 30
0.000000
  9
$PEXTMAX
 10
594.000000
 20
420.000000
 30
0.000000
  9
$SNAPMODE
 70
     0
  9
$SNAPUNIT
 10
1.000000
 20
1.000000
  9
$SNAPBASE
 10
0.000000
 20
0.000000
  9
$SNAPANG
 50
0.000000
  9
$SNAPISOPAIR
 70
     0
  9
$SNAPSTYLE
 70
     0
  9
$GRIDMODE
 70
     0
  9
$GRIDUNIT
 10
0.000000
 20
0.000000
  9
$ORTHOMODE
 70
     0
  9
$REGENMODE
 70
     1
  9
$FILLMODE
 70
     1
  9
$QTEXTMODE
 70
     0
  9
$DRAGMODE
 70
     2
  9
$LTSCALE
 40
0.250000
  9
$OSMODE
 70
     0
  9
$ATTMODE
 70
     1
  9
$TEXTSIZE
 40
5.000000
  9
$TRACEWID
 40
0.050000
  9
$TEXTSTYLE
  7
STANDARD
  9
$CLAYER
  8
0
  9
$CELTYPE
  6
BYLAYER
  9
$CECOLOR
 62
   256
  9
$DIMSCALE
 40
1.000000
  9
$DIMASZ
 40
1.000000
  9
$DIMEXO
 40
0.000000
  9
$DIMDLI
 40
0.500000
  9
$DIMRND
 40
0.000000
  9
$DIMDLE
 40
0.000000
  9
$DIMEXE
 40
0.000000
  9
$DIMTP
 40
0.000000
  9
$DIMTM
 40
0.000000
  9
$DIMTXT
 40
4.000000
  9
$DIMCEN
 40
0.000000
  9
$DIMTSZ
 40
0.000000
  9
$DIMTOL
 70
     0
  9
$DIMLIM
 70
     0
  9
$DIMTIH
 70
     1
  9
$DIMTOH
 70
     1
  9
$DIMSE1
 70
     0
  9
$DIMSE2
 70
     0
  9
$DIMTAD
 70
     0
  9
$DIMZIN
 70
     0
  9
$DIMBLK
  1

  9
$DIMASO
 70
     0
  9
$DIMSHO
 70
     0
  9
$DIMPOST
  1

  9
$DIMAPOST
  1

  9
$DIMALT
 70
     0
  9
$DIMALTD
 70
     0
  9
$DIMALTF
 40
25.400000
  9
$DIMLFAC
 40
1.000000
  9
$DIMTOFL
 70
     0
  9
$DIMTVP
 40
0.000000
  9
$DIMTIX
 70
     0
  9
$DIMSOXD
 70
     0
  9
$DIMSAH
 70
     0
  9
$DIMBLKL
  1

  9
$DIMBLKR
  1

  9
$LUNITS
 70
     2
  9
$LUPREC
 70
     2
  9
$AXISMODE
 70
     0
  9
$AXISUNIT
 10
1.000000
 20
1.000000
  9
$SKETCHINC
 40
0.000000
  9
$FILLETRAD
 40
0.000000
  9
$AUNITS
 70
     1
  9
$AUPREC
 70
     2
  9
$MENU
  1
ACAD
  9
$ELEVATION
 40
0.000000
  9
$THICKNESS
 40
0.000000
  9
$VIEWDIR
 10
0.000000
 20
0.000000
 30
1.000000
  9
$LIMCHECK
 70
     1
  9
$BLIPMODE
 70
     1
  9
$CHAMFERA
 40
0.000000
  9
$CHAMFERB
 40
0.000000
  9
$FASTZOOM
 70
     1
  9
$SKPOLY
 70
     0
  9
$TDCREATE
 40
0.000000
  9
$TDUPDATE
 40
0.000000
  9
$TDINDWG
 40
0.000000
  9
$TDUSRTIMER
 40
0.000000
  9
$USRTIMER
 70
     1
  9
$ANGBASE
 50
0.000000
  9
$ANGDIR
 70
     0
  9
$PDMODE
 70
     0
  9
$PDSIZE
 40
0.000000
  9
$PLINEWID
 40
0.000000
  9
$COORDS
 70
     2
  9
$USERI1
 70
     0
  9
$USERI2
 70
     0
  9
$USERI3
 70
     0
  9
$USERI4
 70
     0
  9
$USERI5
 70
     0
  9
$USERR1
 40
0.000000
  9
$USERR2
 40
0.000000
  9
$USERR3
 40
0.000000
  9
$USERR4
 40
0.000000
  9
$USERR5
 40
0.000000
  0
ENDSEC
  0
SECTION
  2
TABLES
  0
TABLE
  2
LTYPE
 70
     5
  0
LTYPE
  2
CONTINUOUS
 70
    64
  3
Solid line
 72
    65
 73
     0
 40
0.0
  0
LTYPE
  2
HIDDEN
 70
    64
  3
------------------------
 72
    65
 73
     2
 40
12.6
 49
8.4
 49
-4.2
  0
LTYPE
  2
DOT
 70
    64
  3
ееееееееееееееееееееееее
 72
    65
 73
     2
 40
8.0
 49
6.0
 49
-2.0
  0
LTYPE
  2
DASHDOT
 70
    64
  3
--е--е--е--е--е--е--е--
 72
    65
 73
     4
 40
50.5
 49
30.0
 49
-9.0
 49
2.5
 49
-9.0
  0
LTYPE
  2
DIVIDE
 70
    64
  3
--ее--ее--ее--ее--ее--
 72
    65
 73
     6
 40
58.0
 49
30.0
 49
-9.0
 49
2.5
 49
-5.0
 49
2.5
 49
-9.0
  0
LTYPE
  2
ACAD_ISO06W100
 70
    64
  3
____ ... ____ ... ____
 72
    65
 73
     8
 40
37.5
 49
24.0
 49
-3.0
 49
0.5
 49
-3.0
 49
0.5
 49
-3.0
 49
0.5
 49
-3.0
  0
LTYPE
  2
ACAD_ISO14W100
 70
    64
  3
__ . . . __ . . . __ . . . 
 72
    65
 73
     8
 40
25.5
 49
12.0
 49
-3.0
 49
0.5
 49
-3.0
 49
0.5
 49
-3.0
 49
0.5
 49
-3.0
  0
ENDTAB
  0
TABLE
  2
LAYER
 70
2
  0
LAYER
  2
1
 70
64
 62
7
  6
CONTINUOUS
  0
LAYER
  2
24
 70
64
 62
7
  6
CONTINUOUS
  0
ENDTAB
  0
TABLE
  2
STYLE
 70
     2
  0
STYLE
  2
STANDARD
 70
    64
 40
0.0
 41
1.0
 50
0.0
 71
     0
 42
0.2
  3
TXT
  4

  0
STYLE
  2
KANJI
 70
    64
 40
0.0
 41
1.0
 50
0.0
 71
     0
 42
0.2
  3
TXT
  4
BIGFONT
  0
ENDTAB
  0
TABLE
  2
VIEW
 70
     0
  0
ENDTAB
  0
ENDSEC
  0
SECTION
  2
BLOCKS
  0
ENDSEC
  0
SECTION
  2
ENTITIES
  0
ARC
  8
24
 62
7
  6
CONTINUOUS
 10
25.005233
 20
35.474020
 40
1.500000
 50
-170.058244
 51
-81.264525
  0
ARC
  8
24
 62
7
  6
CONTINUOUS
 10
26.994767
 20
35.474020
 40
1.500000
 50
-98.735475
 51
-9.941756
  0
ARC
  8
24
 62
7
  6
CONTINUOUS
 10
32.474020
 20
29.994767
 40
1.500000
 50
99.941756
 51
-171.264525
  0
ARC
  8
24
 62
7
  6
CONTINUOUS
 10
32.474020
 20
28.005233
 40
1.500000
 50
171.264525
 51
-99.941756
  0
ARC
  8
24
 62
7
  6
CONTINUOUS
 10
26.994767
 20
22.525980
 40
1.500000
 50
9.941756
 51
98.735475
  0
ARC
  8
24
 62
7
  6
CONTINUOUS
 10
25.005233
 20
22.525980
 40
1.500000
 50
81.264525
 51
170.058244
  0
ARC
  8
24
 62
7
  6
CONTINUOUS
 10
19.525980
 20
28.005233
 40
1.500000
 50
-80.058244
 51
8.735475
  0
ARC
  8
24
 62
7
  6
CONTINUOUS
 10
19.525980
 20
29.994767
 40
1.500000
 50
-8.735475
 51
80.058244
  0
ARC
  8
24
 62
7
  6
CONTINUOUS
 10
26.000000
 20
29.000000
 40
5.050000
 50
81.264525
 51
98.735475
  0
ARC
  8
24
 62
7
  6
CONTINUOUS
 10
26.000000
 20
29.000000
 40
5.050000
 50
-8.735475
 51
8.735475
  0
ARC
  8
24
 62
7
  6
CONTINUOUS
 10
26.000000
 20
29.000000
 40
5.050000
 50
-98.735475
 51
-81.264525
  0
ARC
  8
24
 62
7
  6
CONTINUOUS
 10
26.000000
 20
29.000000
 40
5.050000
 50
171.264525
 51
-171.264525
  0
CIRCLE
  8
24
 62
7
  6
CONTINUOUS
 10
26.000000
 20
20.500000
 40
2.500000
  0
CIRCLE
  8
24
 62
7
  6
CONTINUOUS
 10
17.500000
 20
29.000000
 40
2.500000
  0
CIRCLE
  8
24
 62
7
  6
CONTINUOUS
 10
26.000000
 20
37.500000
 40
2.500000
  0
CIRCLE
  8
24
 62
7
  6
CONTINUOUS
 10
34.500000
 20
29.000000
 40
2.500000
  0
LINE
  8
24
 62
7
  6
CONTINUOUS
 10
38.500000
 20
49.519564
 11
38.500000
 21
62.000000
  0
LINE
  8
24
 62
7
  6
CONTINUOUS
 10
38.500000
 20
62.000000
 11
33.550000
 21
62.000000
  0
ARC
  8
24
 62
7
  6
CONTINUOUS
 10
32.500000
 20
62.000000
 40
1.050000
 50
180.000000
 51
0.000000
  0
ARC
  8
24
 62
7
  6
CONTINUOUS
 10
19.500000
 20
62.000000
 40
1.050000
 50
180.000000
 51
0.000000
  0
LINE
  8
24
 62
7
  6
CONTINUOUS
 10
18.450000
 20
62.000000
 11
13.500000
 21
62.000000
  0
LINE
  8
24
 62
7
  6
CONTINUOUS
 10
13.500000
 20
62.000000
 11
13.500000
 21
49.519564
  0
LINE
  8
24
 62
7
  6
CONTINUOUS
 10
13.500000
 20
8.480436
 11
13.500000
 21
7.000000
  0
LINE
  8
24
 62
7
  6
CONTINUOUS
 10
13.500000
 20
7.000000
 11
18.450000
 21
7.000000
  0
ARC
  8
24
 62
7
  6
CONTINUOUS
 10
19.500000
 20
7.000000
 40
1.050000
 50
0.000000
 51
180.000000
  0
ARC
  8
24
 62
7
  6
CONTINUOUS
 10
32.500000
 20
7.000000
 40
1.050000
 50
0.000000
 51
180.000000
  0
LINE
  8
24
 62
7
  6
CONTINUOUS
 10
33.550000
 20
7.000000
 11
38.500000
 21
7.000000
  0
LINE
  8
24
 62
7
  6
CONTINUOUS
 10
38.500000
 20
7.000000
 11
38.500000
 21
8.480436
  0
ARC
  8
24
 62
7
  6
CONTINUOUS
 10
31.656854
 20
34.656854
 40
3.233162
 50
-80.058244
 51
170.058244
  0
ARC
  8
24
 62
7
  6
CONTINUOUS
 10
31.656854
 20
23.343146
 40
3.233162
 50
-170.058244
 51
80.058244
  0
ARC
  8
24
 62
7
  6
CONTINUOUS
 10
20.343146
 20
23.343146
 40
3.233162
 50
99.941756
 51
-9.941756
  0
ARC
  8
24
 62
7
  6
CONTINUOUS
 10
20.343146
 20
34.656854
 40
3.233162
 50
9.941756
 51
-99.941756
  0
CIRCLE
  8
24
 62
7
  6
CONTINUOUS
 10
20.343146
 20
34.656854
 40
1.550000
  0
CIRCLE
  8
24
 62
7
  6
CONTINUOUS
 10
31.656854
 20
23.343146
 40
1.550000
  0
CIRCLE
  8
24
 62
7
  6
CONTINUOUS
 10
20.343146
 20
23.343146
 40
1.550000
  0
CIRCLE
  8
24
 62
7
  6
CONTINUOUS
 10
31.656854
 20
34.656854
 40
1.550000
  0
CIRCLE
  8
24
 62
7
  6
CONTINUOUS
 10
26.000000
 20
29.000000
 40
12.450000
  0
ARC
  8
24
 62
7
  6
CONTINUOUS
 10
26.000000
 20
29.000000
 40
21.050000
 50
62.900866
 51
117.099134
  0
LINE
  8
24
 62
7
  6
CONTINUOUS
 10
38.500000
 20
45.874537
 11
38.500000
 21
49.519564
  0
ARC
  8
24
 62
7
  6
CONTINUOUS
 10
26.000000
 20
29.000000
 40
21.050000
 50
-117.099134
 51
-62.900866
  0
LINE
  8
24
 62
7
  6
CONTINUOUS
 10
13.500000
 20
12.125463
 11
13.500000
 21
8.480436
  0
LINE
  8
24
 62
7
  6
CONTINUOUS
 10
38.500000
 20
8.480436
 11
38.500000
 21
12.125463
  0
ARC
  8
24
 62
7
  6
CONTINUOUS
 10
26.000000
 20
29.000000
 40
21.000000
 50
-53.470393
 51
53.470393
  0
LINE
  8
24
 62
7
  6
CONTINUOUS
 10
13.500000
 20
49.519564
 11
13.500000
 21
45.874537
  0
ARC
  8
24
 62
7
  6
CONTINUOUS
 10
26.000000
 20
29.000000
 40
21.000000
 50
126.529607
 51
-126.529607
  0
ARC
  8
24
 62
7
  6
CONTINUOUS
 10
33.500000
 20
56.000000
 40
2.000000
 50
0.000000
 51
90.000000
  0
ARC
  8
24
 62
7
  6
CONTINUOUS
 10
18.500000
 20
56.000000
 40
2.000000
 50
90.000000
 51
180.000000
  0
ARC
  8
24
 62
7
  6
CONTINUOUS
 10
33.500000
 20
53.946994
 40
2.000000
 50
-106.732745
 51
0.000000
  0
ARC
  8
24
 62
7
  6
CONTINUOUS
 10
15.500000
 20
49.519564
 40
2.000000
 50
180.000000
 51
-62.900866
  0
ARC
  8
24
 62
7
  6
CONTINUOUS
 10
18.500000
 20
53.946994
 40
2.000000
 50
180.000000
 51
-73.267255
  0
ARC
  8
24
 62
7
  6
CONTINUOUS
 10
36.500000
 20
49.519564
 40
2.000000
 50
-117.099134
 51
0.000000
  0
ARC
  8
24
 62
7
  6
CONTINUOUS
 10
10.043732
 20
33.000000
 40
2.000000
 50
-90.000000
 51
-14.073186
  0
ARC
  8
24
 62
7
  6
CONTINUOUS
 10
9.992189
 20
33.000000
 40
2.000000
 50
165.970335
 51
-90.000000
  0
ARC
  8
24
 62
7
  6
CONTINUOUS
 10
10.043732
 20
25.000000
 40
2.000000
 50
14.073186
 51
90.000000
  0
ARC
  8
24
 62
7
  6
CONTINUOUS
 10
9.992189
 20
25.000000
 40
2.000000
 50
90.000000
 51
-165.970335
  0
ARC
  8
24
 62
7
  6
CONTINUOUS
 10
22.000000
 20
44.956268
 40
2.000000
 50
-75.926814
 51
0.000000
  0
ARC
  8
24
 62
7
  6
CONTINUOUS
 10
22.000000
 20
45.007811
 40
2.000000
 50
0.000000
 51
104.029665
  0
ARC
  8
24
 62
7
  6
CONTINUOUS
 10
30.000000
 20
45.007811
 40
2.000000
 50
75.970335
 51
180.000000
  0
ARC
  8
24
 62
7
  6
CONTINUOUS
 10
30.000000
 20
44.956268
 40
2.000000
 50
180.000000
 51
-104.073186
  0
ARC
  8
24
 62
7
  6
CONTINUOUS
 10
41.956268
 20
33.000000
 40
2.000000
 50
-165.926814
 51
-90.000000
  0
ARC
  8
24
 62
7
  6
CONTINUOUS
 10
42.007811
 20
33.000000
 40
2.000000
 50
-90.000000
 51
14.029665
  0
ARC
  8
24
 62
7
  6
CONTINUOUS
 10
42.007811
 20
25.000000
 40
2.000000
 50
-14.029665
 51
90.000000
  0
ARC
  8
24
 62
7
  6
CONTINUOUS
 10
41.956268
 20
25.000000
 40
2.000000
 50
90.000000
 51
165.926814
  0
ARC
  8
24
 62
7
  6
CONTINUOUS
 10
22.000000
 20
13.043732
 40
2.000000
 50
0.000000
 51
75.926814
  0
ARC
  8
24
 62
7
  6
CONTINUOUS
 10
22.000000
 20
12.992189
 40
2.000000
 50
-104.029665
 51
0.000000
  0
ARC
  8
24
 62
7
  6
CONTINUOUS
 10
30.000000
 20
13.043732
 40
2.000000
 50
104.073186
 51
180.000000
  0
ARC
  8
24
 62
7
  6
CONTINUOUS
 10
30.000000
 20
12.992189
 40
2.000000
 50
180.000000
 51
-75.970335
  0
ARC
  8
24
 62
7
  6
CONTINUOUS
 10
36.500000
 20
8.480436
 40
2.000000
 50
0.000000
 51
117.099134
  0
ARC
  8
24
 62
7
  6
CONTINUOUS
 10
15.500000
 20
8.480436
 40
2.000000
 50
62.900866
 51
180.000000
  0
LINE
  8
24
 62
7
  6
CONTINUOUS
 10
18.500000
 20
58.000000
 11
33.500000
 21
58.000000
  0
ARC
  8
24
 62
7
  6
CONTINUOUS
 10
26.000000
 20
29.000000
 40
24.050000
 50
73.267255
 51
106.732745
  0
LINE
  8
24
 62
7
  6
CONTINUOUS
 10
16.500000
 20
53.946994
 11
16.500000
 21
56.000000
  0
LINE
  8
24
 62
7
  6
CONTINUOUS
 10
35.500000
 20
56.000000
 11
35.500000
 21
53.946994
  0
ARC
  8
24
 62
7
  6
CONTINUOUS
 10
32.500000
 20
7.000000
 40
1.050000
 50
180.000000
 51
-162.247210
  0
ARC
  8
24
 62
7
  6
CONTINUOUS
 10
19.500000
 20
7.000000
 40
1.050000
 50
-17.752790
 51
0.000000
  0
LINE
  8
24
 62
7
  6
CONTINUOUS
 10
20.500000
 20
5.000000
 11
20.500000
 21
6.679844
  0
LINE
  8
24
 62
7
  6
CONTINUOUS
 10
31.500000
 20
5.000000
 11
20.500000
 21
5.000000
  0
LINE
  8
24
 62
7
  6
CONTINUOUS
 10
31.500000
 20
6.679844
 11
31.500000
 21
5.000000
  0
ARC
  8
24
 62
7
  6
CONTINUOUS
 10
19.500000
 20
62.000000
 40
1.050000
 50
0.000000
 51
17.752790
  0
ARC
  8
24
 62
7
  6
CONTINUOUS
 10
32.500000
 20
62.000000
 40
1.050000
 50
162.247210
 51
180.000000
  0
LINE
  8
24
 62
7
  6
CONTINUOUS
 10
31.500000
 20
64.000000
 11
31.500000
 21
62.320156
  0
LINE
  8
24
 62
7
  6
CONTINUOUS
 10
20.500000
 20
64.000000
 11
31.500000
 21
64.000000
  0
LINE
  8
24
 62
7
  6
CONTINUOUS
 10
20.500000
 20
62.320156
 11
20.500000
 21
64.000000
  0
ARC
  8
24
 62
7
  6
CONTINUOUS
 10
26.000000
 20
29.000000
 40
14.450000
 50
104.073186
 51
165.926814
  0
LINE
  8
24
 62
7
  6
CONTINUOUS
 10
10.043732
 20
31.000000
 11
9.992189
 21
31.000000
  0
LINE
  8
24
 62
7
  6
CONTINUOUS
 10
9.992189
 20
27.000000
 11
10.043732
 21
27.000000
  0
ARC
  8
24
 62
7
  6
CONTINUOUS
 10
26.000000
 20
29.000000
 40
18.500000
 50
-165.970335
 51
-104.029665
  0
LINE
  8
24
 62
7
  6
CONTINUOUS
 10
24.000000
 20
45.007811
 11
24.000000
 21
44.956268
  0
ARC
  8
24
 62
7
  6
CONTINUOUS
 10
26.000000
 20
29.000000
 40
18.500000
 50
104.029665
 51
165.970335
  0
LINE
  8
24
 62
7
  6
CONTINUOUS
 10
28.000000
 20
44.956268
 11
28.000000
 21
45.007811
  0
ARC
  8
24
 62
7
  6
CONTINUOUS
 10
26.000000
 20
29.000000
 40
14.450000
 50
14.073186
 51
75.926814
  0
LINE
  8
24
 62
7
  6
CONTINUOUS
 10
42.007811
 20
31.000000
 11
41.956268
 21
31.000000
  0
ARC
  8
24
 62
7
  6
CONTINUOUS
 10
26.000000
 20
29.000000
 40
18.500000
 50
14.029665
 51
75.970335
  0
LINE
  8
24
 62
7
  6
CONTINUOUS
 10
41.956268
 20
27.000000
 11
42.007811
 21
27.000000
  0
ARC
  8
24
 62
7
  6
CONTINUOUS
 10
26.000000
 20
29.000000
 40
14.450000
 50
-75.926814
 51
-14.073186
  0
ARC
  8
24
 62
7
  6
CONTINUOUS
 10
26.000000
 20
29.000000
 40
14.450000
 50
-165.926814
 51
-104.073186
  0
LINE
  8
24
 62
7
  6
CONTINUOUS
 10
24.000000
 20
13.043732
 11
24.000000
 21
12.992189
  0
LINE
  8
24
 62
7
  6
CONTINUOUS
 10
28.000000
 20
12.992189
 11
28.000000
 21
13.043732
  0
ARC
  8
24
 62
7
  6
CONTINUOUS
 10
26.000000
 20
29.000000
 40
18.500000
 50
-75.970335
 51
-14.029665
  0
LINE
  8
1
 62
7
  6
CONTINUOUS
 10
13.500000
 20
49.519564
 11
3.000000
 21
49.519564
  0
LINE
  8
1
 62
7
  6
CONTINUOUS
 10
3.000000
 20
49.519564
 11
3.000000
 21
8.480436
  0
LINE
  8
1
 62
7
  6
CONTINUOUS
 10
3.000000
 20
8.480436
 11
13.500000
 21
8.480436
  0
CIRCLE
  8
1
 62
7
  6
CONTINUOUS
 10
26.000000
 20
29.000000
 40
5.050000
  0
ARC
  8
24
 62
7
  6
CONTINUOUS
 10
71.094767
 20
35.474020
 40
1.500000
 50
-98.735475
 51
-9.941756
  0
ARC
  8
24
 62
7
  6
CONTINUOUS
 10
69.105233
 20
35.474020
 40
1.500000
 50
-170.058244
 51
-81.264525
  0
ARC
  8
24
 62
7
  6
CONTINUOUS
 10
63.625980
 20
29.994767
 40
1.500000
 50
-8.735475
 51
80.058244
  0
ARC
  8
24
 62
7
  6
CONTINUOUS
 10
63.625980
 20
28.005233
 40
1.500000
 50
-80.058244
 51
8.735475
  0
ARC
  8
24
 62
7
  6
CONTINUOUS
 10
69.105233
 20
22.525980
 40
1.500000
 50
81.264525
 51
170.058244
  0
ARC
  8
24
 62
7
  6
CONTINUOUS
 10
71.094767
 20
22.525980
 40
1.500000
 50
9.941756
 51
98.735475
  0
ARC
  8
24
 62
7
  6
CONTINUOUS
 10
76.574021
 20
28.005233
 40
1.500000
 50
171.264525
 51
-99.941756
  0
ARC
  8
24
 62
7
  6
CONTINUOUS
 10
76.574021
 20
29.994767
 40
1.500000
 50
99.941756
 51
-171.264525
  0
ARC
  8
24
 62
7
  6
CONTINUOUS
 10
70.100000
 20
29.000000
 40
5.050000
 50
81.264525
 51
98.735475
  0
ARC
  8
24
 62
7
  6
CONTINUOUS
 10
70.100000
 20
29.000000
 40
5.050000
 50
171.264525
 51
-171.264525
  0
ARC
  8
24
 62
7
  6
CONTINUOUS
 10
70.100000
 20
29.000000
 40
5.050000
 50
-98.735475
 51
-81.264525
  0
ARC
  8
24
 62
7
  6
CONTINUOUS
 10
70.100000
 20
29.000000
 40
5.050000
 50
-8.735475
 51
8.735475
  0
CIRCLE
  8
24
 62
7
  6
CONTINUOUS
 10
70.100000
 20
20.500000
 40
2.500000
  0
CIRCLE
  8
24
 62
7
  6
CONTINUOUS
 10
78.600000
 20
29.000000
 40
2.500000
  0
CIRCLE
  8
24
 62
7
  6
CONTINUOUS
 10
70.100000
 20
37.500000
 40
2.500000
  0
CIRCLE
  8
24
 62
7
  6
CONTINUOUS
 10
61.600000
 20
29.000000
 40
2.500000
  0
LINE
  8
24
 62
7
  6
CONTINUOUS
 10
57.600000
 20
49.519564
 11
57.600000
 21
62.000000
  0
LINE
  8
24
 62
7
  6
CONTINUOUS
 10
57.600000
 20
62.000000
 11
62.550000
 21
62.000000
  0
ARC
  8
24
 62
7
  6
CONTINUOUS
 10
63.600000
 20
62.000000
 40
1.050000
 50
180.000000
 51
0.000000
  0
ARC
  8
24
 62
7
  6
CONTINUOUS
 10
76.600000
 20
62.000000
 40
1.050000
 50
180.000000
 51
0.000000
  0
LINE
  8
24
 62
7
  6
CONTINUOUS
 10
77.650000
 20
62.000000
 11
82.600000
 21
62.000000
  0
LINE
  8
24
 62
7
  6
CONTINUOUS
 10
82.600000
 20
62.000000
 11
82.600000
 21
49.519564
  0
LINE
  8
24
 62
7
  6
CONTINUOUS
 10
82.600000
 20
8.480436
 11
82.600000
 21
7.000000
  0
LINE
  8
24
 62
7
  6
CONTINUOUS
 10
82.600000
 20
7.000000
 11
77.650000
 21
7.000000
  0
ARC
  8
24
 62
7
  6
CONTINUOUS
 10
76.600000
 20
7.000000
 40
1.050000
 50
0.000000
 51
180.000000
  0
ARC
  8
24
 62
7
  6
CONTINUOUS
 10
63.600000
 20
7.000000
 40
1.050000
 50
0.000000
 51
180.000000
  0
LINE
  8
24
 62
7
  6
CONTINUOUS
 10
62.550000
 20
7.000000
 11
57.600000
 21
7.000000
  0
LINE
  8
24
 62
7
  6
CONTINUOUS
 10
57.600000
 20
7.000000
 11
57.600000
 21
8.480436
  0
ARC
  8
24
 62
7
  6
CONTINUOUS
 10
64.443146
 20
34.656854
 40
3.233162
 50
9.941756
 51
-99.941756
  0
ARC
  8
24
 62
7
  6
CONTINUOUS
 10
64.443146
 20
23.343146
 40
3.233162
 50
99.941756
 51
-9.941756
  0
ARC
  8
24
 62
7
  6
CONTINUOUS
 10
75.756855
 20
23.343146
 40
3.233162
 50
-170.058244
 51
80.058244
  0
ARC
  8
24
 62
7
  6
CONTINUOUS
 10
75.756855
 20
34.656854
 40
3.233162
 50
-80.058244
 51
170.058244
  0
CIRCLE
  8
24
 62
7
  6
CONTINUOUS
 10
75.756855
 20
34.656854
 40
1.550000
  0
CIRCLE
  8
24
 62
7
  6
CONTINUOUS
 10
64.443146
 20
23.343146
 40
1.550000
  0
CIRCLE
  8
24
 62
7
  6
CONTINUOUS
 10
75.756855
 20
23.343146
 40
1.550000
  0
CIRCLE
  8
24
 62
7
  6
CONTINUOUS
 10
64.443146
 20
34.656854
 40
1.550000
  0
CIRCLE
  8
24
 62
7
  6
CONTINUOUS
 10
70.100000
 20
29.000000
 40
12.450000
  0
ARC
  8
24
 62
7
  6
CONTINUOUS
 10
70.100000
 20
29.000000
 40
21.050000
 50
62.900866
 51
117.099134
  0
LINE
  8
24
 62
7
  6
CONTINUOUS
 10
57.600000
 20
45.874537
 11
57.600000
 21
49.519564
  0
ARC
  8
24
 62
7
  6
CONTINUOUS
 10
70.100000
 20
29.000000
 40
21.050000
 50
-117.099134
 51
-62.900866
  0
LINE
  8
24
 62
7
  6
CONTINUOUS
 10
82.600000
 20
12.125463
 11
82.600000
 21
8.480436
  0
LINE
  8
24
 62
7
  6
CONTINUOUS
 10
57.600000
 20
8.480436
 11
57.600000
 21
12.125463
  0
ARC
  8
24
 62
7
  6
CONTINUOUS
 10
70.100000
 20
29.000000
 40
21.000000
 50
126.529607
 51
-126.529607
  0
LINE
  8
24
 62
7
  6
CONTINUOUS
 10
82.600000
 20
49.519564
 11
82.600000
 21
45.874537
  0
ARC
  8
24
 62
7
  6
CONTINUOUS
 10
70.100000
 20
29.000000
 40
21.000000
 50
-53.470393
 51
53.470393
  0
ARC
  8
24
 62
7
  6
CONTINUOUS
 10
62.600000
 20
56.000000
 40
2.000000
 50
90.000000
 51
180.000000
  0
ARC
  8
24
 62
7
  6
CONTINUOUS
 10
77.600000
 20
56.000000
 40
2.000000
 50
0.000000
 51
90.000000
  0
ARC
  8
24
 62
7
  6
CONTINUOUS
 10
62.600000
 20
53.946994
 40
2.000000
 50
180.000000
 51
-73.267255
  0
ARC
  8
24
 62
7
  6
CONTINUOUS
 10
80.600000
 20
49.519564
 40
2.000000
 50
-117.099134
 51
0.000000
  0
ARC
  8
24
 62
7
  6
CONTINUOUS
 10
77.600000
 20
53.946994
 40
2.000000
 50
-106.732745
 51
0.000000
  0
ARC
  8
24
 62
7
  6
CONTINUOUS
 10
59.600000
 20
49.519564
 40
2.000000
 50
180.000000
 51
-62.900866
  0
ARC
  8
24
 62
7
  6
CONTINUOUS
 10
86.056269
 20
33.000000
 40
2.000000
 50
-165.926814
 51
-90.000000
  0
ARC
  8
24
 62
7
  6
CONTINUOUS
 10
86.107811
 20
33.000000
 40
2.000000
 50
-90.000000
 51
14.029665
  0
ARC
  8
24
 62
7
  6
CONTINUOUS
 10
86.056269
 20
25.000000
 40
2.000000
 50
90.000000
 51
165.926814
  0
ARC
  8
24
 62
7
  6
CONTINUOUS
 10
86.107811
 20
25.000000
 40
2.000000
 50
-14.029665
 51
90.000000
  0
ARC
  8
24
 62
7
  6
CONTINUOUS
 10
74.100000
 20
44.956268
 40
2.000000
 50
180.000000
 51
-104.073186
  0
ARC
  8
24
 62
7
  6
CONTINUOUS
 10
74.100000
 20
45.007811
 40
2.000000
 50
75.970335
 51
180.000000
  0
ARC
  8
24
 62
7
  6
CONTINUOUS
 10
66.100000
 20
45.007811
 40
2.000000
 50
0.000000
 51
104.029665
  0
ARC
  8
24
 62
7
  6
CONTINUOUS
 10
66.100000
 20
44.956268
 40
2.000000
 50
-75.926814
 51
0.000000
  0
ARC
  8
24
 62
7
  6
CONTINUOUS
 10
54.143732
 20
33.000000
 40
2.000000
 50
-90.000000
 51
-14.073186
  0
ARC
  8
24
 62
7
  6
CONTINUOUS
 10
54.092190
 20
33.000000
 40
2.000000
 50
165.970335
 51
-90.000000
  0
ARC
  8
24
 62
7
  6
CONTINUOUS
 10
54.092190
 20
25.000000
 40
2.000000
 50
90.000000
 51
-165.970335
  0
ARC
  8
24
 62
7
  6
CONTINUOUS
 10
54.143732
 20
25.000000
 40
2.000000
 50
14.073186
 51
90.000000
  0
ARC
  8
24
 62
7
  6
CONTINUOUS
 10
74.100000
 20
13.043732
 40
2.000000
 50
104.073186
 51
180.000000
  0
ARC
  8
24
 62
7
  6
CONTINUOUS
 10
74.100000
 20
12.992189
 40
2.000000
 50
180.000000
 51
-75.970335
  0
ARC
  8
24
 62
7
  6
CONTINUOUS
 10
66.100000
 20
13.043732
 40
2.000000
 50
0.000000
 51
75.926814
  0
ARC
  8
24
 62
7
  6
CONTINUOUS
 10
66.100000
 20
12.992189
 40
2.000000
 50
-104.029665
 51
0.000000
  0
ARC
  8
24
 62
7
  6
CONTINUOUS
 10
59.600000
 20
8.480436
 40
2.000000
 50
62.900866
 51
180.000000
  0
ARC
  8
24
 62
7
  6
CONTINUOUS
 10
80.600000
 20
8.480436
 40
2.000000
 50
0.000000
 51
117.099134
  0
LINE
  8
24
 62
7
  6
CONTINUOUS
 10
77.600000
 20
58.000000
 11
62.600000
 21
58.000000
  0
ARC
  8
24
 62
7
  6
CONTINUOUS
 10
70.100000
 20
29.000000
 40
24.050000
 50
73.267255
 51
106.732745
  0
LINE
  8
24
 62
7
  6
CONTINUOUS
 10
79.600000
 20
53.946994
 11
79.600000
 21
56.000000
  0
LINE
  8
24
 62
7
  6
CONTINUOUS
 10
60.600000
 20
56.000000
 11
60.600000
 21
53.946994
  0
ARC
  8
24
 62
7
  6
CONTINUOUS
 10
63.600000
 20
7.000000
 40
1.050000
 50
-17.752790
 51
0.000000
  0
ARC
  8
24
 62
7
  6
CONTINUOUS
 10
76.600000
 20
7.000000
 40
1.050000
 50
180.000000
 51
-162.247210
  0
LINE
  8
24
 62
7
  6
CONTINUOUS
 10
75.600000
 20
5.000000
 11
75.600000
 21
6.679844
  0
LINE
  8
24
 62
7
  6
CONTINUOUS
 10
64.600000
 20
5.000000
 11
75.600000
 21
5.000000
  0
LINE
  8
24
 62
7
  6
CONTINUOUS
 10
64.600000
 20
6.679844
 11
64.600000
 21
5.000000
  0
ARC
  8
24
 62
7
  6
CONTINUOUS
 10
76.600000
 20
62.000000
 40
1.050000
 50
162.247210
 51
180.000000
  0
ARC
  8
24
 62
7
  6
CONTINUOUS
 10
63.600000
 20
62.000000
 40
1.050000
 50
0.000000
 51
17.752790
  0
LINE
  8
24
 62
7
  6
CONTINUOUS
 10
64.600000
 20
64.000000
 11
64.600000
 21
62.320156
  0
LINE
  8
24
 62
7
  6
CONTINUOUS
 10
75.600000
 20
64.000000
 11
64.600000
 21
64.000000
  0
LINE
  8
24
 62
7
  6
CONTINUOUS
 10
75.600000
 20
62.320156
 11
75.600000
 21
64.000000
  0
ARC
  8
24
 62
7
  6
CONTINUOUS
 10
70.100000
 20
29.000000
 40
14.450000
 50
14.073186
 51
75.926814
  0
LINE
  8
24
 62
7
  6
CONTINUOUS
 10
86.056269
 20
31.000000
 11
86.107811
 21
31.000000
  0
LINE
  8
24
 62
7
  6
CONTINUOUS
 10
86.107811
 20
27.000000
 11
86.056269
 21
27.000000
  0
ARC
  8
24
 62
7
  6
CONTINUOUS
 10
70.100000
 20
29.000000
 40
18.500000
 50
-75.970335
 51
-14.029665
  0
LINE
  8
24
 62
7
  6
CONTINUOUS
 10
72.100000
 20
45.007811
 11
72.100000
 21
44.956268
  0
ARC
  8
24
 62
7
  6
CONTINUOUS
 10
70.100000
 20
29.000000
 40
18.500000
 50
14.029665
 51
75.970335
  0
LINE
  8
24
 62
7
  6
CONTINUOUS
 10
68.100000
 20
44.956268
 11
68.100000
 21
45.007811
  0
ARC
  8
24
 62
7
  6
CONTINUOUS
 10
70.100000
 20
29.000000
 40
14.450000
 50
104.073186
 51
165.926814
  0
LINE
  8
24
 62
7
  6
CONTINUOUS
 10
54.092190
 20
31.000000
 11
54.143732
 21
31.000000
  0
ARC
  8
24
 62
7
  6
CONTINUOUS
 10
70.100000
 20
29.000000
 40
18.500000
 50
104.029665
 51
165.970335
  0
LINE
  8
24
 62
7
  6
CONTINUOUS
 10
54.143732
 20
27.000000
 11
54.092190
 21
27.000000
  0
ARC
  8
24
 62
7
  6
CONTINUOUS
 10
70.100000
 20
29.000000
 40
14.450000
 50
-165.926814
 51
-104.073186
  0
ARC
  8
24
 62
7
  6
CONTINUOUS
 10
70.100000
 20
29.000000
 40
14.450000
 50
-75.926814
 51
-14.073186
  0
LINE
  8
24
 62
7
  6
CONTINUOUS
 10
72.100000
 20
13.043732
 11
72.100000
 21
12.992189
  0
LINE
  8
24
 62
7
  6
CONTINUOUS
 10
68.100000
 20
12.992189
 11
68.100000
 21
13.043732
  0
ARC
  8
24
 62
7
  6
CONTINUOUS
 10
70.100000
 20
29.000000
 40
18.500000
 50
-165.970335
 51
-104.029665
  0
LINE
  8
1
 62
7
  6
CONTINUOUS
 10
82.600000
 20
49.519564
 11
93.100000
 21
49.519564
  0
LINE
  8
1
 62
7
  6
CONTINUOUS
 10
93.100000
 20
49.519564
 11
93.100000
 21
8.480436
  0
LINE
  8
1
 62
7
  6
CONTINUOUS
 10
93.100000
 20
8.480436
 11
82.600000
 21
8.480436
  0
CIRCLE
  8
1
 62
7
  6
CONTINUOUS
 10
70.100000
 20
29.000000
 40
5.050000
  0
LINE
  8
1
 62
7
  6
CONTINUOUS
 10
38.500000
 20
8.480436
 11
57.600000
 21
8.480436
  0
LINE
  8
1
 62
7
  6
CONTINUOUS
 10
38.500000
 20
49.519564
 11
57.600000
 21
49.519564
  0
ARC
  8
24
 62
7
  6
CONTINUOUS
 10
48.251821
 20
108.100000
 40
2.000000
 50
-51.080741
 51
90.000000
  0
ARC
  8
24
 62
7
  6
CONTINUOUS
 10
10.000000
 20
108.100000
 40
2.000000
 50
90.000000
 51
180.000000
  0
ARC
  8
24
 62
7
  6
CONTINUOUS
 10
54.300000
 20
73.100000
 40
2.000000
 50
-90.000000
 51
0.000000
  0
ARC
  8
24
 62
7
  6
CONTINUOUS
 10
54.300000
 20
103.986564
 40
2.000000
 50
0.000000
 51
128.919259
  0
ARC
  8
24
 62
7
  6
CONTINUOUS
 10
10.000000
 20
77.213436
 40
2.000000
 50
180.000000
 51
-51.080741
  0
ARC
  8
24
 62
7
  6
CONTINUOUS
 10
16.048179
 20
73.100000
 40
2.000000
 50
128.919259
 51
-90.000000
  0
LINE
  8
24
 62
7
  6
CONTINUOUS
 10
49.508270
 20
106.543936
 11
11.256449
 21
75.657372
  0
LINE
  8
24
 62
7
  6
CONTINUOUS
 10
10.000000
 20
110.100000
 11
48.251821
 21
110.100000
  0
LINE
  8
24
 62
7
  6
CONTINUOUS
 10
54.300000
 20
71.100000
 11
16.048179
 21
71.100000
  0
LINE
  8
24
 62
7
  6
CONTINUOUS
 10
56.300000
 20
103.986564
 11
56.300000
 21
73.100000
  0
LINE
  8
24
 62
7
  6
CONTINUOUS
 10
8.000000
 20
77.213436
 11
8.000000
 21
108.100000
  0
LINE
  8
24
 62
7
  6
CONTINUOUS
 10
14.791730
 20
74.656064
 11
53.043551
 21
105.542628
  0
LINE
  8
24
 62
7
  6
CONTINUOUS
 10
61.300000
 20
68.100000
 11
61.300000
 21
113.100000
  0
LINE
  8
24
 62
7
  6
CONTINUOUS
 10
3.000000
 20
68.100000
 11
61.300000
 21
68.100000
  0
LINE
  8
24
 62
7
  6
CONTINUOUS
 10
3.000000
 20
113.100000
 11
3.000000
 21
68.100000
  0
LINE
  8
24
 62
7
  6
CONTINUOUS
 10
61.300000
 20
113.100000
 11
3.000000
 21
113.100000
  0
ARC
  8
24
 62
7
  6
CONTINUOUS
 10
76.448179
 20
108.100000
 40
2.000000
 50
90.000000
 51
-128.919259
  0
ARC
  8
24
 62
7
  6
CONTINUOUS
 10
114.700000
 20
108.100000
 40
2.000000
 50
0.000000
 51
90.000000
  0
ARC
  8
24
 62
7
  6
CONTINUOUS
 10
70.400000
 20
73.100000
 40
2.000000
 50
180.000000
 51
-90.000000
  0
ARC
  8
24
 62
7
  6
CONTINUOUS
 10
70.400000
 20
103.986564
 40
2.000000
 50
51.080741
 51
180.000000
  0
ARC
  8
24
 62
7
  6
CONTINUOUS
 10
114.700000
 20
77.213436
 40
2.000000
 50
-128.919259
 51
0.000000
  0
ARC
  8
24
 62
7
  6
CONTINUOUS
 10
108.651821
 20
73.100000
 40
2.000000
 50
-90.000000
 51
51.080741
  0
LINE
  8
24
 62
7
  6
CONTINUOUS
 10
75.191730
 20
106.543936
 11
113.443551
 21
75.657372
  0
LINE
  8
24
 62
7
  6
CONTINUOUS
 10
114.700000
 20
110.100000
 11
76.448179
 21
110.100000
  0
LINE
  8
24
 62
7
  6
CONTINUOUS
 10
70.400000
 20
71.100000
 11
108.651821
 21
71.100000
  0
LINE
  8
24
 62
7
  6
CONTINUOUS
 10
68.400000
 20
103.986564
 11
68.400000
 21
73.100000
  0
LINE
  8
24
 62
7
  6
CONTINUOUS
 10
116.700000
 20
77.213436
 11
116.700000
 21
108.100000
  0
LINE
  8
24
 62
7
  6
CONTINUOUS
 10
109.908271
 20
74.656064
 11
71.656450
 21
105.542628
  0
LINE
  8
24
 62
7
  6
CONTINUOUS
 10
63.400000
 20
68.100000
 11
63.400000
 21
113.100000
  0
LINE
  8
24
 62
7
  6
CONTINUOUS
 10
121.700000
 20
68.100000
 11
63.400000
 21
68.100000
  0
LINE
  8
24
 62
7
  6
CONTINUOUS
 10
121.700000
 20
113.100000
 11
121.700000
 21
68.100000
  0
LINE
  8
24
 62
7
  6
CONTINUOUS
 10
63.400000
 20
113.100000
 11
121.700000
 21
113.100000
  0
ARC
  8
24
 62
7
  6
CONTINUOUS
 10
107.440960
 20
10.050000
 40
2.050000
 50
-90.000000
 51
15.615843
  0
ARC
  8
24
 62
7
  6
CONTINUOUS
 10
109.650000
 20
28.522345
 40
2.050000
 50
-164.384157
 51
0.000000
  0
ARC
  8
24
 62
7
  6
CONTINUOUS
 10
109.650000
 20
54.250000
 40
2.050000
 50
0.000000
 51
90.000000
  0
ARC
  8
24
 62
7
  6
CONTINUOUS
 10
102.459041
 20
54.250000
 40
2.050000
 50
90.000000
 51
-164.384157
  0
ARC
  8
24
 62
7
  6
CONTINUOUS
 10
100.250000
 20
35.777655
 40
2.050000
 50
15.615843
 51
180.000000
  0
ARC
  8
24
 62
7
  6
CONTINUOUS
 10
100.250000
 20
10.050000
 40
2.050000
 50
180.000000
 51
-90.000000
  0
LINE
  8
24
 62
7
  6
CONTINUOUS
 10
107.440960
 20
8.000000
 11
100.250000
 21
8.000000
  0
LINE
  8
24
 62
7
  6
CONTINUOUS
 10
107.675670
 20
27.970514
 11
100.484710
 21
53.698168
  0
LINE
  8
24
 62
7
  6
CONTINUOUS
 10
111.700000
 20
54.250000
 11
111.700000
 21
28.522345
  0
LINE
  8
24
 62
7
  6
CONTINUOUS
 10
102.459041
 20
56.300000
 11
109.650000
 21
56.300000
  0
LINE
  8
24
 62
7
  6
CONTINUOUS
 10
102.224331
 20
36.329486
 11
109.415291
 21
10.601832
  0
LINE
  8
24
 62
7
  6
CONTINUOUS
 10
98.200000
 20
10.050000
 11
98.200000
 21
35.777655
  0
LINE
  8
24
 62
7
  6
CONTINUOUS
 10
114.700000
 20
61.300000
 11
95.200000
 21
61.300000
  0
LINE
  8
24
 62
7
  6
CONTINUOUS
 10
114.700000
 20
3.000000
 11
114.700000
 21
61.300000
  0
LINE
  8
24
 62
7
  6
CONTINUOUS
 10
95.200000
 20
3.000000
 11
114.700000
 21
3.000000
  0
LINE
  8
24
 62
7
  6
CONTINUOUS
 10
95.200000
 20
61.300000
 11
95.200000
 21
3.000000
  0
ARC
  8
24
 62
7
  6
CONTINUOUS
 10
124.059041
 20
10.050000
 40
2.050000
 50
164.384157
 51
-90.000000
  0
ARC
  8
24
 62
7
  6
CONTINUOUS
 10
121.850001
 20
28.522345
 40
2.050000
 50
180.000000
 51
-15.615843
  0
ARC
  8
24
 62
7
  6
CONTINUOUS
 10
121.850001
 20
54.250000
 40
2.050000
 50
90.000000
 51
180.000000
  0
ARC
  8
24
 62
7
  6
CONTINUOUS
 10
129.040960
 20
54.250000
 40
2.050000
 50
-15.615843
 51
90.000000
  0
ARC
  8
24
 62
7
  6
CONTINUOUS
 10
131.250001
 20
35.777655
 40
2.050000
 50
0.000000
 51
164.384157
  0
ARC
  8
24
 62
7
  6
CONTINUOUS
 10
131.250001
 20
10.050000
 40
2.050000
 50
-90.000000
 51
0.000000
  0
LINE
  8
24
 62
7
  6
CONTINUOUS
 10
124.059041
 20
8.000000
 11
131.250001
 21
8.000000
  0
LINE
  8
24
 62
7
  6
CONTINUOUS
 10
123.824331
 20
27.970514
 11
131.015291
 21
53.698168
  0
LINE
  8
24
 62
7
  6
CONTINUOUS
 10
119.800001
 20
54.250000
 11
119.800001
 21
28.522345
  0
LINE
  8
24
 62
7
  6
CONTINUOUS
 10
129.040960
 20
56.300000
 11
121.850001
 21
56.300000
  0
LINE
  8
24
 62
7
  6
CONTINUOUS
 10
129.275670
 20
36.329486
 11
122.084710
 21
10.601832
  0
LINE
  8
24
 62
7
  6
CONTINUOUS
 10
133.300001
 20
10.050000
 11
133.300001
 21
35.777655
  0
LINE
  8
24
 62
7
  6
CONTINUOUS
 10
116.800001
 20
61.300000
 11
136.300001
 21
61.300000
  0
LINE
  8
24
 62
7
  6
CONTINUOUS
 10
116.800001
 20
3.000000
 11
116.800001
 21
61.300000
  0
LINE
  8
24
 62
7
  6
CONTINUOUS
 10
136.300001
 20
3.000000
 11
116.800001
 21
3.000000
  0
LINE
  8
24
 62
7
  6
CONTINUOUS
 10
136.300001
 20
61.300000
 11
136.300001
 21
3.000000
  0
LINE
  8
1
 62
7
  6
CONTINUOUS
 10
18.500000
 20
7.000000
 11
18.500000
 21
2.900000
  0
LINE
  8
1
 62
7
  6
CONTINUOUS
 10
18.500000
 20
2.900000
 11
33.500000
 21
2.900000
  0
LINE
  8
1
 62
7
  6
CONTINUOUS
 10
33.500000
 20
2.900000
 11
33.500000
 21
7.000000
  0
LINE
  8
1
 62
7
  6
CONTINUOUS
 10
33.500000
 20
7.000000
 11
18.500000
 21
7.000000
  0
LINE
  8
1
 62
7
  6
CONTINUOUS
 10
18.500000
 20
66.100000
 11
18.500000
 21
62.000000
  0
LINE
  8
1
 62
7
  6
CONTINUOUS
 10
18.500000
 20
62.000000
 11
33.500000
 21
62.000000
  0
LINE
  8
1
 62
7
  6
CONTINUOUS
 10
33.500000
 20
62.000000
 11
33.500000
 21
66.100000
  0
LINE
  8
1
 62
7
  6
CONTINUOUS
 10
33.500000
 20
66.100000
 11
18.500000
 21
66.100000
  0
LINE
  8
1
 62
7
  6
CONTINUOUS
 10
77.600000
 20
7.000000
 11
77.600000
 21
2.900000
  0
LINE
  8
1
 62
7
  6
CONTINUOUS
 10
77.600000
 20
2.900000
 11
62.600000
 21
2.900000
  0
LINE
  8
1
 62
7
  6
CONTINUOUS
 10
62.600000
 20
2.900000
 11
62.600000
 21
7.000000
  0
LINE
  8
1
 62
7
  6
CONTINUOUS
 10
62.600000
 20
7.000000
 11
77.600000
 21
7.000000
  0
LINE
  8
1
 62
7
  6
CONTINUOUS
 10
77.600000
 20
66.100000
 11
77.600000
 21
62.000000
  0
LINE
  8
1
 62
7
  6
CONTINUOUS
 10
77.600000
 20
62.000000
 11
62.600000
 21
62.000000
  0
LINE
  8
1
 62
7
  6
CONTINUOUS
 10
62.600000
 20
62.000000
 11
62.600000
 21
66.100000
  0
LINE
  8
1
 62
7
  6
CONTINUOUS
 10
62.600000
 20
66.100000
 11
77.600000
 21
66.100000
  0
ENDSEC
  0
EOF
