  0
SECTION
  2
HEADER
  9
$ACADVER
  1
AC1009
  9
$INSBASE
 10
0.000000
 20
0.000000
  9
$EXTMIN
 10
0.000000
 20
0.000000
  9
$EXTMAX
 10
594.000000
 20
420.000000
  9
$LIMMIN
 10
0.000000
 20
0.000000
  9
$LIMMAX
 10
594.000000
 20
420.000000
  9
$VIEWCTR
 10
297.000000
 20
210.000000
  9
$VIEWSIZE
 40
420.000000
  9
$PEXTMIN
 10
0.000000
 20
0.000000
 30
0.000000
  9
$PEXTMAX
 10
297.000000
 20
210.000000
 30
0.000000
  9
$SNAPMODE
 70
     0
  9
$SNAPUNIT
 10
1.000000
 20
1.000000
  9
$SNAPBASE
 10
0.000000
 20
0.000000
  9
$SNAPANG
 50
0.000000
  9
$SNAPISOPAIR
 70
     0
  9
$SNAPSTYLE
 70
     0
  9
$GRIDMODE
 70
     0
  9
$GRIDUNIT
 10
0.000000
 20
0.000000
  9
$ORTHOMODE
 70
     0
  9
$REGENMODE
 70
     1
  9
$FILLMODE
 70
     1
  9
$QTEXTMODE
 70
     0
  9
$DRAGMODE
 70
     2
  9
$LTSCALE
 40
0.500000
  9
$OSMODE
 70
     0
  9
$ATTMODE
 70
     1
  9
$TEXTSIZE
 40
10.000000
  9
$TRACEWID
 40
0.050000
  9
$TEXTSTYLE
  7
STANDARD
  9
$CLAYER
  8
0
  9
$CELTYPE
  6
BYLAYER
  9
$CECOLOR
 62
   256
  9
$DIMSCALE
 40
1.000000
  9
$DIMASZ
 40
1.000000
  9
$DIMEXO
 40
0.000000
  9
$DIMDLI
 40
0.500000
  9
$DIMRND
 40
0.000000
  9
$DIMDLE
 40
0.000000
  9
$DIMEXE
 40
0.000000
  9
$DIMTP
 40
0.000000
  9
$DIMTM
 40
0.000000
  9
$DIMTXT
 40
4.000000
  9
$DIMCEN
 40
0.000000
  9
$DIMTSZ
 40
0.000000
  9
$DIMTOL
 70
     0
  9
$DIMLIM
 70
     0
  9
$DIMTIH
 70
     1
  9
$DIMTOH
 70
     1
  9
$DIMSE1
 70
     0
  9
$DIMSE2
 70
     0
  9
$DIMTAD
 70
     0
  9
$DIMZIN
 70
     0
  9
$DIMBLK
  1

  9
$DIMASO
 70
     0
  9
$DIMSHO
 70
     0
  9
$DIMPOST
  1

  9
$DIMAPOST
  1

  9
$DIMALT
 70
     0
  9
$DIMALTD
 70
     0
  9
$DIMALTF
 40
25.400000
  9
$DIMLFAC
 40
1.000000
  9
$DIMTOFL
 70
     0
  9
$DIMTVP
 40
0.000000
  9
$DIMTIX
 70
     0
  9
$DIMSOXD
 70
     0
  9
$DIMSAH
 70
     0
  9
$DIMBLKL
  1

  9
$DIMBLKR
  1

  9
$LUNITS
 70
     2
  9
$LUPREC
 70
     2
  9
$AXISMODE
 70
     0
  9
$AXISUNIT
 10
1.000000
 20
1.000000
  9
$SKETCHINC
 40
0.000000
  9
$FILLETRAD
 40
0.000000
  9
$AUNITS
 70
     1
  9
$AUPREC
 70
     2
  9
$MENU
  1
ACAD
  9
$ELEVATION
 40
0.000000
  9
$THICKNESS
 40
0.000000
  9
$VIEWDIR
 10
0.000000
 20
0.000000
 30
1.000000
  9
$LIMCHECK
 70
     1
  9
$BLIPMODE
 70
     1
  9
$CHAMFERA
 40
0.000000
  9
$CHAMFERB
 40
0.000000
  9
$FASTZOOM
 70
     1
  9
$SKPOLY
 70
     0
  9
$TDCREATE
 40
0.000000
  9
$TDUPDATE
 40
0.000000
  9
$TDINDWG
 40
0.000000
  9
$TDUSRTIMER
 40
0.000000
  9
$USRTIMER
 70
     1
  9
$ANGBASE
 50
0.000000
  9
$ANGDIR
 70
     0
  9
$PDMODE
 70
     0
  9
$PDSIZE
 40
0.000000
  9
$PLINEWID
 40
0.000000
  9
$COORDS
 70
     2
  9
$USERI1
 70
     0
  9
$USERI2
 70
     0
  9
$USERI3
 70
     0
  9
$USERI4
 70
     0
  9
$USERI5
 70
     0
  9
$USERR1
 40
0.000000
  9
$USERR2
 40
0.000000
  9
$USERR3
 40
0.000000
  9
$USERR4
 40
0.000000
  9
$USERR5
 40
0.000000
  0
ENDSEC
  0
SECTION
  2
TABLES
  0
TABLE
  2
LTYPE
 70
     5
  0
LTYPE
  2
CONTINUOUS
 70
    64
  3
Solid line
 72
    65
 73
     0
 40
0.0
  0
LTYPE
  2
HIDDEN
 70
    64
  3
------------------------
 72
    65
 73
     2
 40
12.6
 49
8.4
 49
-4.2
  0
LTYPE
  2
DOT
 70
    64
  3
ееееееееееееееееееееееее
 72
    65
 73
     2
 40
8.0
 49
6.0
 49
-2.0
  0
LTYPE
  2
DASHDOT
 70
    64
  3
--е--е--е--е--е--е--е--
 72
    65
 73
     4
 40
50.5
 49
30.0
 49
-9.0
 49
2.5
 49
-9.0
  0
LTYPE
  2
DIVIDE
 70
    64
  3
--ее--ее--ее--ее--ее--
 72
    65
 73
     6
 40
58.0
 49
30.0
 49
-9.0
 49
2.5
 49
-5.0
 49
2.5
 49
-9.0
  0
LTYPE
  2
ACAD_ISO06W100
 70
    64
  3
____ ... ____ ... ____
 72
    65
 73
     8
 40
37.5
 49
24.0
 49
-3.0
 49
0.5
 49
-3.0
 49
0.5
 49
-3.0
 49
0.5
 49
-3.0
  0
LTYPE
  2
ACAD_ISO14W100
 70
    64
  3
__ . . . __ . . . __ . . . 
 72
    65
 73
     8
 40
25.5
 49
12.0
 49
-3.0
 49
0.5
 49
-3.0
 49
0.5
 49
-3.0
 49
0.5
 49
-3.0
  0
ENDTAB
  0
TABLE
  2
LAYER
 70
1
  0
LAYER
  2
23
 70
64
 62
7
  6
CONTINUOUS
  0
ENDTAB
  0
TABLE
  2
STYLE
 70
     2
  0
STYLE
  2
STANDARD
 70
    64
 40
0.0
 41
1.0
 50
0.0
 71
     0
 42
0.2
  3
TXT
  4

  0
STYLE
  2
KANJI
 70
    64
 40
0.0
 41
1.0
 50
0.0
 71
     0
 42
0.2
  3
TXT
  4
BIGFONT
  0
ENDTAB
  0
TABLE
  2
VIEW
 70
     0
  0
ENDTAB
  0
ENDSEC
  0
SECTION
  2
BLOCKS
  0
ENDSEC
  0
SECTION
  2
ENTITIES
  0
ARC
  8
23
 62
7
  6
CONTINUOUS
 10
32.636563
 20
18.100575
 40
2.000000
 50
111.375136
 51
-130.426079
  0
ARC
  8
23
 62
7
  6
CONTINUOUS
 10
20.973437
 20
18.100575
 40
2.000000
 50
-49.573921
 51
68.624864
  0
ARC
  8
23
 62
7
  6
CONTINUOUS
 10
22.224088
 20
8.000000
 40
2.000000
 50
130.426079
 51
-90.000000
  0
ARC
  8
23
 62
7
  6
CONTINUOUS
 10
24.459841
 20
9.904530
 40
2.000000
 50
70.426079
 51
130.426079
  0
ARC
  8
23
 62
7
  6
CONTINUOUS
 10
29.150159
 20
9.904530
 40
2.000000
 50
49.573921
 51
109.573921
  0
ARC
  8
23
 62
7
  6
CONTINUOUS
 10
31.385912
 20
8.000000
 40
2.000000
 50
-90.000000
 51
49.573921
  0
ARC
  8
23
 62
7
  6
CONTINUOUS
 10
40.305000
 20
5.000000
 40
2.000000
 50
-90.000000
 51
-56.164772
  0
ARC
  8
23
 62
7
  6
CONTINUOUS
 10
13.305000
 20
5.000000
 40
2.000000
 50
-123.835228
 51
-90.000000
  0
ARC
  8
23
 62
7
  6
CONTINUOUS
 10
12.055000
 20
10.503388
 40
2.000000
 50
180.000000
 51
-49.573921
  0
ARC
  8
23
 62
7
  6
CONTINUOUS
 10
5.000000
 20
10.567111
 40
2.000000
 50
180.000000
 51
-123.835228
  0
ARC
  8
23
 62
7
  6
CONTINUOUS
 10
12.055000
 20
26.800202
 40
2.000000
 50
22.798248
 51
180.000000
  0
ARC
  8
23
 62
7
  6
CONTINUOUS
 10
48.610000
 20
10.567111
 40
2.000000
 50
-56.164772
 51
0.000000
  0
ARC
  8
23
 62
7
  6
CONTINUOUS
 10
48.610000
 20
26.432889
 40
2.000000
 50
0.000000
 51
56.164772
  0
ARC
  8
23
 62
7
  6
CONTINUOUS
 10
40.305000
 20
32.000000
 40
2.000000
 50
56.164772
 51
90.000000
  0
ARC
  8
23
 62
7
  6
CONTINUOUS
 10
39.766481
 20
32.000000
 40
2.000000
 50
90.000000
 51
175.588274
  0
ARC
  8
23
 62
7
  6
CONTINUOUS
 10
13.843519
 20
32.000000
 40
2.000000
 50
4.411726
 51
90.000000
  0
ARC
  8
23
 62
7
  6
CONTINUOUS
 10
13.305000
 20
32.000000
 40
2.000000
 50
90.000000
 51
123.835228
  0
ARC
  8
23
 62
7
  6
CONTINUOUS
 10
5.000000
 20
26.432889
 40
2.000000
 50
123.835228
 51
180.000000
  0
ARC
  8
23
 62
7
  6
CONTINUOUS
 10
41.555000
 20
26.800202
 40
2.000000
 50
0.000000
 51
157.201752
  0
ARC
  8
23
 62
7
  6
CONTINUOUS
 10
41.555000
 20
10.503388
 40
2.000000
 50
-130.426079
 51
0.000000
  0
LINE
  8
23
 62
7
  6
CONTINUOUS
 10
40.258067
 20
8.980902
 11
31.339630
 21
16.578088
  0
LINE
  8
23
 62
7
  6
CONTINUOUS
 10
22.270370
 20
16.578088
 11
13.351933
 21
8.980902
  0
LINE
  8
23
 62
7
  6
CONTINUOUS
 10
20.927156
 20
9.522486
 11
23.162908
 21
11.427016
  0
ARC
  8
23
 62
7
  6
CONTINUOUS
 10
26.805000
 20
16.500000
 40
5.000000
 50
-109.573921
 51
-70.426079
  0
LINE
  8
23
 62
7
  6
CONTINUOUS
 10
30.447092
 20
11.427016
 11
32.682844
 21
9.522486
  0
LINE
  8
23
 62
7
  6
CONTINUOUS
 10
31.385912
 20
6.000000
 11
22.224088
 21
6.000000
  0
LINE
  8
23
 62
7
  6
CONTINUOUS
 10
10.055000
 20
10.503388
 11
10.055000
 21
26.800202
  0
ARC
  8
23
 62
7
  6
CONTINUOUS
 10
26.805000
 20
33.000000
 40
14.000000
 50
-157.201752
 51
-111.375136
  0
ARC
  8
23
 62
7
  6
CONTINUOUS
 10
26.805000
 20
33.000000
 40
14.000000
 50
-68.624864
 51
-22.798248
  0
LINE
  8
23
 62
7
  6
CONTINUOUS
 10
43.555000
 20
26.800202
 11
43.555000
 21
10.503388
  0
LINE
  8
23
 62
7
  6
CONTINUOUS
 10
40.305000
 20
3.000000
 11
13.305000
 21
3.000000
  0
LINE
  8
23
 62
7
  6
CONTINUOUS
 10
3.000000
 20
10.567111
 11
3.000000
 21
26.432889
  0
LINE
  8
23
 62
7
  6
CONTINUOUS
 10
49.723613
 20
8.905826
 11
41.418613
 21
3.338715
  0
LINE
  8
23
 62
7
  6
CONTINUOUS
 10
50.610000
 20
26.432889
 11
50.610000
 21
10.567111
  0
LINE
  8
23
 62
7
  6
CONTINUOUS
 10
41.418613
 20
33.661285
 11
49.723613
 21
28.094174
  0
LINE
  8
23
 62
7
  6
CONTINUOUS
 10
39.766481
 20
34.000000
 11
40.305000
 21
34.000000
  0
ARC
  8
23
 62
7
  6
CONTINUOUS
 10
26.805000
 20
33.000000
 40
11.000000
 50
-175.588274
 51
-4.411726
  0
LINE
  8
23
 62
7
  6
CONTINUOUS
 10
13.305000
 20
34.000000
 11
13.843519
 21
34.000000
  0
LINE
  8
23
 62
7
  6
CONTINUOUS
 10
3.886387
 20
28.094174
 11
12.191387
 21
33.661285
  0
LINE
  8
23
 62
7
  6
CONTINUOUS
 10
12.191387
 20
3.338715
 11
3.886387
 21
8.905826
  0
LINE
  8
23
 62
7
  6
CONTINUOUS
 10
7.060000
 20
14.495000
 11
5.050000
 21
14.495000
  0
ARC
  8
23
 62
7
  6
CONTINUOUS
 10
5.050000
 20
15.545000
 40
1.050000
 50
90.000000
 51
-90.000000
  0
LINE
  8
23
 62
7
  6
CONTINUOUS
 10
5.050000
 20
16.595000
 11
5.050000
 21
20.405000
  0
ARC
  8
23
 62
7
  6
CONTINUOUS
 10
5.050000
 20
21.455000
 40
1.050000
 50
90.000000
 51
-90.000000
  0
LINE
  8
23
 62
7
  6
CONTINUOUS
 10
5.050000
 20
22.505000
 11
7.060000
 21
22.505000
  0
ARC
  8
23
 62
7
  6
CONTINUOUS
 10
7.060000
 20
21.455000
 40
1.050000
 50
-90.000000
 51
90.000000
  0
LINE
  8
23
 62
7
  6
CONTINUOUS
 10
7.060000
 20
20.405000
 11
7.060000
 21
16.595000
  0
ARC
  8
23
 62
7
  6
CONTINUOUS
 10
7.060000
 20
15.545000
 40
1.050000
 50
-90.000000
 51
90.000000
  0
CIRCLE
  8
23
 62
7
  6
CONTINUOUS
 10
13.305000
 20
5.000000
 40
1.350000
  0
CIRCLE
  8
23
 62
7
  6
CONTINUOUS
 10
40.305000
 20
5.000000
 40
1.350000
  0
CIRCLE
  8
23
 62
7
  6
CONTINUOUS
 10
13.305000
 20
32.000000
 40
1.350000
  0
CIRCLE
  8
23
 62
7
  6
CONTINUOUS
 10
40.305000
 20
32.000000
 40
1.350000
  0
LINE
  8
23
 62
7
  6
CONTINUOUS
 10
48.560000
 20
14.495000
 11
46.550000
 21
14.495000
  0
ARC
  8
23
 62
7
  6
CONTINUOUS
 10
46.550000
 20
15.545000
 40
1.050000
 50
90.000000
 51
-90.000000
  0
LINE
  8
23
 62
7
  6
CONTINUOUS
 10
46.550000
 20
16.595000
 11
46.550000
 21
20.405000
  0
ARC
  8
23
 62
7
  6
CONTINUOUS
 10
46.550000
 20
21.455000
 40
1.050000
 50
90.000000
 51
-90.000000
  0
LINE
  8
23
 62
7
  6
CONTINUOUS
 10
46.550000
 20
22.505000
 11
48.560000
 21
22.505000
  0
ARC
  8
23
 62
7
  6
CONTINUOUS
 10
48.560000
 20
21.455000
 40
1.050000
 50
-90.000000
 51
90.000000
  0
LINE
  8
23
 62
7
  6
CONTINUOUS
 10
48.560000
 20
20.405000
 11
48.560000
 21
16.595000
  0
ARC
  8
23
 62
7
  6
CONTINUOUS
 10
48.560000
 20
15.545000
 40
1.050000
 50
-90.000000
 51
90.000000
  0
LINE
  8
23
 62
7
  6
CONTINUOUS
 10
27.714327
 20
19.208162
 11
28.695673
 21
18.641581
  0
ARC
  8
23
 62
7
  6
CONTINUOUS
 10
28.695673
 20
17.591581
 40
1.050000
 50
-30.000000
 51
90.000000
  0
LINE
  8
23
 62
7
  6
CONTINUOUS
 10
29.605000
 20
17.066581
 11
29.605000
 21
15.933419
  0
ARC
  8
23
 62
7
  6
CONTINUOUS
 10
28.695673
 20
15.408419
 40
1.050000
 50
-90.000000
 51
30.000000
  0
LINE
  8
23
 62
7
  6
CONTINUOUS
 10
28.695673
 20
14.358419
 11
27.714327
 21
13.791838
  0
ARC
  8
23
 62
7
  6
CONTINUOUS
 10
26.805000
 20
14.316838
 40
1.050000
 50
-150.000000
 51
-30.000000
  0
LINE
  8
23
 62
7
  6
CONTINUOUS
 10
25.895673
 20
13.791838
 11
24.914327
 21
14.358419
  0
ARC
  8
23
 62
7
  6
CONTINUOUS
 10
24.914327
 20
15.408419
 40
1.050000
 50
150.000000
 51
-90.000000
  0
LINE
  8
23
 62
7
  6
CONTINUOUS
 10
24.005000
 20
15.933419
 11
24.005000
 21
17.066581
  0
ARC
  8
23
 62
7
  6
CONTINUOUS
 10
24.914327
 20
17.591581
 40
1.050000
 50
90.000000
 51
-150.000000
  0
LINE
  8
23
 62
7
  6
CONTINUOUS
 10
24.914327
 20
18.641581
 11
25.895673
 21
19.208162
  0
ARC
  8
23
 62
7
  6
CONTINUOUS
 10
26.805000
 20
18.683162
 40
1.050000
 50
30.000000
 51
150.000000
  0
CIRCLE
  8
23
 62
7
  6
CONTINUOUS
 10
26.805000
 20
16.500000
 40
1.550000
  0
ARC
  8
23
 62
7
  6
CONTINUOUS
 10
32.636563
 20
51.999425
 40
2.000000
 50
130.426079
 51
-111.375136
  0
ARC
  8
23
 62
7
  6
CONTINUOUS
 10
20.973437
 20
51.999425
 40
2.000000
 50
-68.624864
 51
49.573921
  0
ARC
  8
23
 62
7
  6
CONTINUOUS
 10
22.224088
 20
62.100000
 40
2.000000
 50
90.000000
 51
-130.426079
  0
ARC
  8
23
 62
7
  6
CONTINUOUS
 10
24.459841
 20
60.195470
 40
2.000000
 50
-130.426079
 51
-70.426079
  0
ARC
  8
23
 62
7
  6
CONTINUOUS
 10
29.150159
 20
60.195470
 40
2.000000
 50
-109.573921
 51
-49.573921
  0
ARC
  8
23
 62
7
  6
CONTINUOUS
 10
31.385912
 20
62.100000
 40
2.000000
 50
-49.573921
 51
90.000000
  0
ARC
  8
23
 62
7
  6
CONTINUOUS
 10
40.305000
 20
65.100000
 40
2.000000
 50
56.164772
 51
90.000000
  0
ARC
  8
23
 62
7
  6
CONTINUOUS
 10
13.305000
 20
65.100000
 40
2.000000
 50
90.000000
 51
123.835228
  0
ARC
  8
23
 62
7
  6
CONTINUOUS
 10
12.055000
 20
59.596612
 40
2.000000
 50
49.573921
 51
180.000000
  0
ARC
  8
23
 62
7
  6
CONTINUOUS
 10
5.000000
 20
59.532889
 40
2.000000
 50
123.835228
 51
180.000000
  0
ARC
  8
23
 62
7
  6
CONTINUOUS
 10
12.055000
 20
43.299798
 40
2.000000
 50
180.000000
 51
-22.798248
  0
ARC
  8
23
 62
7
  6
CONTINUOUS
 10
48.610000
 20
59.532889
 40
2.000000
 50
0.000000
 51
56.164772
  0
ARC
  8
23
 62
7
  6
CONTINUOUS
 10
48.610000
 20
43.667111
 40
2.000000
 50
-56.164772
 51
0.000000
  0
ARC
  8
23
 62
7
  6
CONTINUOUS
 10
40.305000
 20
38.100000
 40
2.000000
 50
-90.000000
 51
-56.164772
  0
ARC
  8
23
 62
7
  6
CONTINUOUS
 10
39.766481
 20
38.100000
 40
2.000000
 50
-175.588274
 51
-90.000000
  0
ARC
  8
23
 62
7
  6
CONTINUOUS
 10
13.843519
 20
38.100000
 40
2.000000
 50
-90.000000
 51
-4.411726
  0
ARC
  8
23
 62
7
  6
CONTINUOUS
 10
13.305000
 20
38.100000
 40
2.000000
 50
-123.835228
 51
-90.000000
  0
ARC
  8
23
 62
7
  6
CONTINUOUS
 10
5.000000
 20
43.667111
 40
2.000000
 50
180.000000
 51
-123.835228
  0
ARC
  8
23
 62
7
  6
CONTINUOUS
 10
41.555000
 20
43.299798
 40
2.000000
 50
-157.201752
 51
0.000000
  0
ARC
  8
23
 62
7
  6
CONTINUOUS
 10
41.555000
 20
59.596612
 40
2.000000
 50
0.000000
 51
130.426079
  0
LINE
  8
23
 62
7
  6
CONTINUOUS
 10
40.258067
 20
61.119098
 11
31.339630
 21
53.521912
  0
LINE
  8
23
 62
7
  6
CONTINUOUS
 10
22.270370
 20
53.521912
 11
13.351933
 21
61.119098
  0
LINE
  8
23
 62
7
  6
CONTINUOUS
 10
20.927156
 20
60.577514
 11
23.162908
 21
58.672984
  0
ARC
  8
23
 62
7
  6
CONTINUOUS
 10
26.805000
 20
53.600000
 40
5.000000
 50
70.426079
 51
109.573921
  0
LINE
  8
23
 62
7
  6
CONTINUOUS
 10
30.447092
 20
58.672984
 11
32.682844
 21
60.577514
  0
LINE
  8
23
 62
7
  6
CONTINUOUS
 10
31.385912
 20
64.100000
 11
22.224088
 21
64.100000
  0
LINE
  8
23
 62
7
  6
CONTINUOUS
 10
10.055000
 20
59.596612
 11
10.055000
 21
43.299798
  0
ARC
  8
23
 62
7
  6
CONTINUOUS
 10
26.805000
 20
37.100000
 40
14.000000
 50
111.375136
 51
157.201752
  0
ARC
  8
23
 62
7
  6
CONTINUOUS
 10
26.805000
 20
37.100000
 40
14.000000
 50
22.798248
 51
68.624864
  0
LINE
  8
23
 62
7
  6
CONTINUOUS
 10
43.555000
 20
43.299798
 11
43.555000
 21
59.596612
  0
LINE
  8
23
 62
7
  6
CONTINUOUS
 10
40.305000
 20
67.100000
 11
13.305000
 21
67.100000
  0
LINE
  8
23
 62
7
  6
CONTINUOUS
 10
3.000000
 20
59.532889
 11
3.000000
 21
43.667111
  0
LINE
  8
23
 62
7
  6
CONTINUOUS
 10
49.723613
 20
61.194174
 11
41.418613
 21
66.761285
  0
LINE
  8
23
 62
7
  6
CONTINUOUS
 10
50.610000
 20
43.667111
 11
50.610000
 21
59.532889
  0
LINE
  8
23
 62
7
  6
CONTINUOUS
 10
41.418613
 20
36.438715
 11
49.723613
 21
42.005826
  0
LINE
  8
23
 62
7
  6
CONTINUOUS
 10
39.766481
 20
36.100000
 11
40.305000
 21
36.100000
  0
ARC
  8
23
 62
7
  6
CONTINUOUS
 10
26.805000
 20
37.100000
 40
11.000000
 50
4.411726
 51
175.588274
  0
LINE
  8
23
 62
7
  6
CONTINUOUS
 10
13.305000
 20
36.100000
 11
13.843519
 21
36.100000
  0
LINE
  8
23
 62
7
  6
CONTINUOUS
 10
3.886387
 20
42.005826
 11
12.191387
 21
36.438715
  0
LINE
  8
23
 62
7
  6
CONTINUOUS
 10
12.191387
 20
66.761285
 11
3.886387
 21
61.194174
  0
LINE
  8
23
 62
7
  6
CONTINUOUS
 10
7.060000
 20
55.605000
 11
5.050000
 21
55.605000
  0
ARC
  8
23
 62
7
  6
CONTINUOUS
 10
5.050000
 20
54.555000
 40
1.050000
 50
90.000000
 51
-90.000000
  0
LINE
  8
23
 62
7
  6
CONTINUOUS
 10
5.050000
 20
53.505000
 11
5.050000
 21
49.695000
  0
ARC
  8
23
 62
7
  6
CONTINUOUS
 10
5.050000
 20
48.645000
 40
1.050000
 50
90.000000
 51
-90.000000
  0
LINE
  8
23
 62
7
  6
CONTINUOUS
 10
5.050000
 20
47.595000
 11
7.060000
 21
47.595000
  0
ARC
  8
23
 62
7
  6
CONTINUOUS
 10
7.060000
 20
48.645000
 40
1.050000
 50
-90.000000
 51
90.000000
  0
LINE
  8
23
 62
7
  6
CONTINUOUS
 10
7.060000
 20
49.695000
 11
7.060000
 21
53.505000
  0
ARC
  8
23
 62
7
  6
CONTINUOUS
 10
7.060000
 20
54.555000
 40
1.050000
 50
-90.000000
 51
90.000000
  0
CIRCLE
  8
23
 62
7
  6
CONTINUOUS
 10
13.305000
 20
65.100000
 40
1.350000
  0
CIRCLE
  8
23
 62
7
  6
CONTINUOUS
 10
40.305000
 20
65.100000
 40
1.350000
  0
CIRCLE
  8
23
 62
7
  6
CONTINUOUS
 10
13.305000
 20
38.100000
 40
1.350000
  0
CIRCLE
  8
23
 62
7
  6
CONTINUOUS
 10
40.305000
 20
38.100000
 40
1.350000
  0
LINE
  8
23
 62
7
  6
CONTINUOUS
 10
48.560000
 20
55.605000
 11
46.550000
 21
55.605000
  0
ARC
  8
23
 62
7
  6
CONTINUOUS
 10
46.550000
 20
54.555000
 40
1.050000
 50
90.000000
 51
-90.000000
  0
LINE
  8
23
 62
7
  6
CONTINUOUS
 10
46.550000
 20
53.505000
 11
46.550000
 21
49.695000
  0
ARC
  8
23
 62
7
  6
CONTINUOUS
 10
46.550000
 20
48.645000
 40
1.050000
 50
90.000000
 51
-90.000000
  0
LINE
  8
23
 62
7
  6
CONTINUOUS
 10
46.550000
 20
47.595000
 11
48.560000
 21
47.595000
  0
ARC
  8
23
 62
7
  6
CONTINUOUS
 10
48.560000
 20
48.645000
 40
1.050000
 50
-90.000000
 51
90.000000
  0
LINE
  8
23
 62
7
  6
CONTINUOUS
 10
48.560000
 20
49.695000
 11
48.560000
 21
53.505000
  0
ARC
  8
23
 62
7
  6
CONTINUOUS
 10
48.560000
 20
54.555000
 40
1.050000
 50
-90.000000
 51
90.000000
  0
LINE
  8
23
 62
7
  6
CONTINUOUS
 10
27.714327
 20
50.891838
 11
28.695673
 21
51.458419
  0
ARC
  8
23
 62
7
  6
CONTINUOUS
 10
28.695673
 20
52.508419
 40
1.050000
 50
-90.000000
 51
30.000000
  0
LINE
  8
23
 62
7
  6
CONTINUOUS
 10
29.605000
 20
53.033419
 11
29.605000
 21
54.166581
  0
ARC
  8
23
 62
7
  6
CONTINUOUS
 10
28.695673
 20
54.691581
 40
1.050000
 50
-30.000000
 51
90.000000
  0
LINE
  8
23
 62
7
  6
CONTINUOUS
 10
28.695673
 20
55.741581
 11
27.714327
 21
56.308162
  0
ARC
  8
23
 62
7
  6
CONTINUOUS
 10
26.805000
 20
55.783162
 40
1.050000
 50
30.000000
 51
150.000000
  0
LINE
  8
23
 62
7
  6
CONTINUOUS
 10
25.895673
 20
56.308162
 11
24.914327
 21
55.741581
  0
ARC
  8
23
 62
7
  6
CONTINUOUS
 10
24.914327
 20
54.691581
 40
1.050000
 50
90.000000
 51
-150.000000
  0
LINE
  8
23
 62
7
  6
CONTINUOUS
 10
24.005000
 20
54.166581
 11
24.005000
 21
53.033419
  0
ARC
  8
23
 62
7
  6
CONTINUOUS
 10
24.914327
 20
52.508419
 40
1.050000
 50
150.000000
 51
-90.000000
  0
LINE
  8
23
 62
7
  6
CONTINUOUS
 10
24.914327
 20
51.458419
 11
25.895673
 21
50.891838
  0
ARC
  8
23
 62
7
  6
CONTINUOUS
 10
26.805000
 20
51.416838
 40
1.050000
 50
-150.000000
 51
-30.000000
  0
CIRCLE
  8
23
 62
7
  6
CONTINUOUS
 10
26.805000
 20
53.600000
 40
1.550000
  0
ARC
  8
23
 62
7
  6
CONTINUOUS
 10
70.683437
 20
18.100575
 40
2.000000
 50
-49.573921
 51
68.624864
  0
ARC
  8
23
 62
7
  6
CONTINUOUS
 10
82.346564
 20
18.100575
 40
2.000000
 50
111.375136
 51
-130.426079
  0
ARC
  8
23
 62
7
  6
CONTINUOUS
 10
81.095912
 20
8.000000
 40
2.000000
 50
-90.000000
 51
49.573921
  0
ARC
  8
23
 62
7
  6
CONTINUOUS
 10
78.860160
 20
9.904530
 40
2.000000
 50
49.573921
 51
109.573921
  0
ARC
  8
23
 62
7
  6
CONTINUOUS
 10
74.169841
 20
9.904530
 40
2.000000
 50
70.426079
 51
130.426079
  0
ARC
  8
23
 62
7
  6
CONTINUOUS
 10
71.934089
 20
8.000000
 40
2.000000
 50
130.426079
 51
-90.000000
  0
ARC
  8
23
 62
7
  6
CONTINUOUS
 10
63.015000
 20
5.000000
 40
2.000000
 50
-123.835228
 51
-90.000000
  0
ARC
  8
23
 62
7
  6
CONTINUOUS
 10
90.015000
 20
5.000000
 40
2.000000
 50
-90.000000
 51
-56.164772
  0
ARC
  8
23
 62
7
  6
CONTINUOUS
 10
91.265000
 20
10.503388
 40
2.000000
 50
-130.426079
 51
0.000000
  0
ARC
  8
23
 62
7
  6
CONTINUOUS
 10
98.320000
 20
10.567111
 40
2.000000
 50
-56.164772
 51
0.000000
  0
ARC
  8
23
 62
7
  6
CONTINUOUS
 10
91.265000
 20
26.800202
 40
2.000000
 50
0.000000
 51
157.201752
  0
ARC
  8
23
 62
7
  6
CONTINUOUS
 10
54.710000
 20
10.567111
 40
2.000000
 50
180.000000
 51
-123.835228
  0
ARC
  8
23
 62
7
  6
CONTINUOUS
 10
54.710000
 20
26.432889
 40
2.000000
 50
123.835228
 51
180.000000
  0
ARC
  8
23
 62
7
  6
CONTINUOUS
 10
63.015000
 20
32.000000
 40
2.000000
 50
90.000000
 51
123.835228
  0
ARC
  8
23
 62
7
  6
CONTINUOUS
 10
63.553519
 20
32.000000
 40
2.000000
 50
4.411726
 51
90.000000
  0
ARC
  8
23
 62
7
  6
CONTINUOUS
 10
89.476482
 20
32.000000
 40
2.000000
 50
90.000000
 51
175.588274
  0
ARC
  8
23
 62
7
  6
CONTINUOUS
 10
90.015000
 20
32.000000
 40
2.000000
 50
56.164772
 51
90.000000
  0
ARC
  8
23
 62
7
  6
CONTINUOUS
 10
98.320000
 20
26.432889
 40
2.000000
 50
0.000000
 51
56.164772
  0
ARC
  8
23
 62
7
  6
CONTINUOUS
 10
61.765000
 20
26.800202
 40
2.000000
 50
22.798248
 51
180.000000
  0
ARC
  8
23
 62
7
  6
CONTINUOUS
 10
61.765000
 20
10.503388
 40
2.000000
 50
180.000000
 51
-49.573921
  0
LINE
  8
23
 62
7
  6
CONTINUOUS
 10
63.061933
 20
8.980902
 11
71.980370
 21
16.578088
  0
LINE
  8
23
 62
7
  6
CONTINUOUS
 10
81.049631
 20
16.578088
 11
89.968067
 21
8.980902
  0
LINE
  8
23
 62
7
  6
CONTINUOUS
 10
82.392845
 20
9.522486
 11
80.157092
 21
11.427016
  0
ARC
  8
23
 62
7
  6
CONTINUOUS
 10
76.515000
 20
16.500000
 40
5.000000
 50
-109.573921
 51
-70.426079
  0
LINE
  8
23
 62
7
  6
CONTINUOUS
 10
72.872908
 20
11.427016
 11
70.637156
 21
9.522486
  0
LINE
  8
23
 62
7
  6
CONTINUOUS
 10
71.934089
 20
6.000000
 11
81.095912
 21
6.000000
  0
LINE
  8
23
 62
7
  6
CONTINUOUS
 10
93.265000
 20
10.503388
 11
93.265000
 21
26.800202
  0
ARC
  8
23
 62
7
  6
CONTINUOUS
 10
76.515000
 20
33.000000
 40
14.000000
 50
-68.624864
 51
-22.798248
  0
ARC
  8
23
 62
7
  6
CONTINUOUS
 10
76.515000
 20
33.000000
 40
14.000000
 50
-157.201752
 51
-111.375136
  0
LINE
  8
23
 62
7
  6
CONTINUOUS
 10
59.765000
 20
26.800202
 11
59.765000
 21
10.503388
  0
LINE
  8
23
 62
7
  6
CONTINUOUS
 10
63.015000
 20
3.000000
 11
90.015000
 21
3.000000
  0
LINE
  8
23
 62
7
  6
CONTINUOUS
 10
100.320000
 20
10.567111
 11
100.320000
 21
26.432889
  0
LINE
  8
23
 62
7
  6
CONTINUOUS
 10
53.596387
 20
8.905826
 11
61.901387
 21
3.338715
  0
LINE
  8
23
 62
7
  6
CONTINUOUS
 10
52.710000
 20
26.432889
 11
52.710000
 21
10.567111
  0
LINE
  8
23
 62
7
  6
CONTINUOUS
 10
61.901387
 20
33.661285
 11
53.596387
 21
28.094174
  0
LINE
  8
23
 62
7
  6
CONTINUOUS
 10
63.553519
 20
34.000000
 11
63.015000
 21
34.000000
  0
ARC
  8
23
 62
7
  6
CONTINUOUS
 10
76.515000
 20
33.000000
 40
11.000000
 50
-175.588274
 51
-4.411726
  0
LINE
  8
23
 62
7
  6
CONTINUOUS
 10
90.015000
 20
34.000000
 11
89.476482
 21
34.000000
  0
LINE
  8
23
 62
7
  6
CONTINUOUS
 10
99.433613
 20
28.094174
 11
91.128613
 21
33.661285
  0
LINE
  8
23
 62
7
  6
CONTINUOUS
 10
91.128613
 20
3.338715
 11
99.433613
 21
8.905826
  0
LINE
  8
23
 62
7
  6
CONTINUOUS
 10
96.260000
 20
14.495000
 11
98.270000
 21
14.495000
  0
ARC
  8
23
 62
7
  6
CONTINUOUS
 10
98.270000
 20
15.545000
 40
1.050000
 50
-90.000000
 51
90.000000
  0
LINE
  8
23
 62
7
  6
CONTINUOUS
 10
98.270000
 20
16.595000
 11
98.270000
 21
20.405000
  0
ARC
  8
23
 62
7
  6
CONTINUOUS
 10
98.270000
 20
21.455000
 40
1.050000
 50
-90.000000
 51
90.000000
  0
LINE
  8
23
 62
7
  6
CONTINUOUS
 10
98.270000
 20
22.505000
 11
96.260000
 21
22.505000
  0
ARC
  8
23
 62
7
  6
CONTINUOUS
 10
96.260000
 20
21.455000
 40
1.050000
 50
90.000000
 51
-90.000000
  0
LINE
  8
23
 62
7
  6
CONTINUOUS
 10
96.260000
 20
20.405000
 11
96.260000
 21
16.595000
  0
ARC
  8
23
 62
7
  6
CONTINUOUS
 10
96.260000
 20
15.545000
 40
1.050000
 50
90.000000
 51
-90.000000
  0
CIRCLE
  8
23
 62
7
  6
CONTINUOUS
 10
90.015000
 20
5.000000
 40
1.350000
  0
CIRCLE
  8
23
 62
7
  6
CONTINUOUS
 10
63.015000
 20
5.000000
 40
1.350000
  0
CIRCLE
  8
23
 62
7
  6
CONTINUOUS
 10
90.015000
 20
32.000000
 40
1.350000
  0
CIRCLE
  8
23
 62
7
  6
CONTINUOUS
 10
63.015000
 20
32.000000
 40
1.350000
  0
LINE
  8
23
 62
7
  6
CONTINUOUS
 10
54.760000
 20
14.495000
 11
56.770000
 21
14.495000
  0
ARC
  8
23
 62
7
  6
CONTINUOUS
 10
56.770000
 20
15.545000
 40
1.050000
 50
-90.000000
 51
90.000000
  0
LINE
  8
23
 62
7
  6
CONTINUOUS
 10
56.770000
 20
16.595000
 11
56.770000
 21
20.405000
  0
ARC
  8
23
 62
7
  6
CONTINUOUS
 10
56.770000
 20
21.455000
 40
1.050000
 50
-90.000000
 51
90.000000
  0
LINE
  8
23
 62
7
  6
CONTINUOUS
 10
56.770000
 20
22.505000
 11
54.760000
 21
22.505000
  0
ARC
  8
23
 62
7
  6
CONTINUOUS
 10
54.760000
 20
21.455000
 40
1.050000
 50
90.000000
 51
-90.000000
  0
LINE
  8
23
 62
7
  6
CONTINUOUS
 10
54.760000
 20
20.405000
 11
54.760000
 21
16.595000
  0
ARC
  8
23
 62
7
  6
CONTINUOUS
 10
54.760000
 20
15.545000
 40
1.050000
 50
90.000000
 51
-90.000000
  0
LINE
  8
23
 62
7
  6
CONTINUOUS
 10
75.605674
 20
19.208162
 11
74.624327
 21
18.641581
  0
ARC
  8
23
 62
7
  6
CONTINUOUS
 10
74.624327
 20
17.591581
 40
1.050000
 50
90.000000
 51
-150.000000
  0
LINE
  8
23
 62
7
  6
CONTINUOUS
 10
73.715000
 20
17.066581
 11
73.715000
 21
15.933419
  0
ARC
  8
23
 62
7
  6
CONTINUOUS
 10
74.624327
 20
15.408419
 40
1.050000
 50
150.000000
 51
-90.000000
  0
LINE
  8
23
 62
7
  6
CONTINUOUS
 10
74.624327
 20
14.358419
 11
75.605674
 21
13.791838
  0
ARC
  8
23
 62
7
  6
CONTINUOUS
 10
76.515000
 20
14.316838
 40
1.050000
 50
-150.000000
 51
-30.000000
  0
LINE
  8
23
 62
7
  6
CONTINUOUS
 10
77.424327
 20
13.791838
 11
78.405674
 21
14.358419
  0
ARC
  8
23
 62
7
  6
CONTINUOUS
 10
78.405674
 20
15.408419
 40
1.050000
 50
-90.000000
 51
30.000000
  0
LINE
  8
23
 62
7
  6
CONTINUOUS
 10
79.315000
 20
15.933419
 11
79.315000
 21
17.066581
  0
ARC
  8
23
 62
7
  6
CONTINUOUS
 10
78.405674
 20
17.591581
 40
1.050000
 50
-30.000000
 51
90.000000
  0
LINE
  8
23
 62
7
  6
CONTINUOUS
 10
78.405674
 20
18.641581
 11
77.424327
 21
19.208162
  0
ARC
  8
23
 62
7
  6
CONTINUOUS
 10
76.515000
 20
18.683162
 40
1.050000
 50
30.000000
 51
150.000000
  0
CIRCLE
  8
23
 62
7
  6
CONTINUOUS
 10
76.515000
 20
16.500000
 40
1.550000
  0
ARC
  8
23
 62
7
  6
CONTINUOUS
 10
70.683437
 20
51.999425
 40
2.000000
 50
-68.624864
 51
49.573921
  0
ARC
  8
23
 62
7
  6
CONTINUOUS
 10
82.346564
 20
51.999425
 40
2.000000
 50
130.426079
 51
-111.375136
  0
ARC
  8
23
 62
7
  6
CONTINUOUS
 10
81.095912
 20
62.100000
 40
2.000000
 50
-49.573921
 51
90.000000
  0
ARC
  8
23
 62
7
  6
CONTINUOUS
 10
78.860160
 20
60.195470
 40
2.000000
 50
-109.573921
 51
-49.573921
  0
ARC
  8
23
 62
7
  6
CONTINUOUS
 10
74.169841
 20
60.195470
 40
2.000000
 50
-130.426079
 51
-70.426079
  0
ARC
  8
23
 62
7
  6
CONTINUOUS
 10
71.934089
 20
62.100000
 40
2.000000
 50
90.000000
 51
-130.426079
  0
ARC
  8
23
 62
7
  6
CONTINUOUS
 10
63.015000
 20
65.100000
 40
2.000000
 50
90.000000
 51
123.835228
  0
ARC
  8
23
 62
7
  6
CONTINUOUS
 10
90.015000
 20
65.100000
 40
2.000000
 50
56.164772
 51
90.000000
  0
ARC
  8
23
 62
7
  6
CONTINUOUS
 10
91.265000
 20
59.596612
 40
2.000000
 50
0.000000
 51
130.426079
  0
ARC
  8
23
 62
7
  6
CONTINUOUS
 10
98.320000
 20
59.532889
 40
2.000000
 50
0.000000
 51
56.164772
  0
ARC
  8
23
 62
7
  6
CONTINUOUS
 10
91.265000
 20
43.299798
 40
2.000000
 50
-157.201752
 51
0.000000
  0
ARC
  8
23
 62
7
  6
CONTINUOUS
 10
54.710000
 20
59.532889
 40
2.000000
 50
123.835228
 51
180.000000
  0
ARC
  8
23
 62
7
  6
CONTINUOUS
 10
54.710000
 20
43.667111
 40
2.000000
 50
180.000000
 51
-123.835228
  0
ARC
  8
23
 62
7
  6
CONTINUOUS
 10
63.015000
 20
38.100000
 40
2.000000
 50
-123.835228
 51
-90.000000
  0
ARC
  8
23
 62
7
  6
CONTINUOUS
 10
63.553519
 20
38.100000
 40
2.000000
 50
-90.000000
 51
-4.411726
  0
ARC
  8
23
 62
7
  6
CONTINUOUS
 10
89.476482
 20
38.100000
 40
2.000000
 50
-175.588274
 51
-90.000000
  0
ARC
  8
23
 62
7
  6
CONTINUOUS
 10
90.015000
 20
38.100000
 40
2.000000
 50
-90.000000
 51
-56.164772
  0
ARC
  8
23
 62
7
  6
CONTINUOUS
 10
98.320000
 20
43.667111
 40
2.000000
 50
-56.164772
 51
0.000000
  0
ARC
  8
23
 62
7
  6
CONTINUOUS
 10
61.765000
 20
43.299798
 40
2.000000
 50
180.000000
 51
-22.798248
  0
ARC
  8
23
 62
7
  6
CONTINUOUS
 10
61.765000
 20
59.596612
 40
2.000000
 50
49.573921
 51
180.000000
  0
LINE
  8
23
 62
7
  6
CONTINUOUS
 10
63.061933
 20
61.119098
 11
71.980370
 21
53.521912
  0
LINE
  8
23
 62
7
  6
CONTINUOUS
 10
81.049631
 20
53.521912
 11
89.968067
 21
61.119098
  0
LINE
  8
23
 62
7
  6
CONTINUOUS
 10
82.392845
 20
60.577514
 11
80.157092
 21
58.672984
  0
ARC
  8
23
 62
7
  6
CONTINUOUS
 10
76.515000
 20
53.600000
 40
5.000000
 50
70.426079
 51
109.573921
  0
LINE
  8
23
 62
7
  6
CONTINUOUS
 10
72.872908
 20
58.672984
 11
70.637156
 21
60.577514
  0
LINE
  8
23
 62
7
  6
CONTINUOUS
 10
71.934089
 20
64.100000
 11
81.095912
 21
64.100000
  0
LINE
  8
23
 62
7
  6
CONTINUOUS
 10
93.265000
 20
59.596612
 11
93.265000
 21
43.299798
  0
ARC
  8
23
 62
7
  6
CONTINUOUS
 10
76.515000
 20
37.100000
 40
14.000000
 50
22.798248
 51
68.624864
  0
ARC
  8
23
 62
7
  6
CONTINUOUS
 10
76.515000
 20
37.100000
 40
14.000000
 50
111.375136
 51
157.201752
  0
LINE
  8
23
 62
7
  6
CONTINUOUS
 10
59.765000
 20
43.299798
 11
59.765000
 21
59.596612
  0
LINE
  8
23
 62
7
  6
CONTINUOUS
 10
63.015000
 20
67.100000
 11
90.015000
 21
67.100000
  0
LINE
  8
23
 62
7
  6
CONTINUOUS
 10
100.320000
 20
59.532889
 11
100.320000
 21
43.667111
  0
LINE
  8
23
 62
7
  6
CONTINUOUS
 10
53.596387
 20
61.194174
 11
61.901387
 21
66.761285
  0
LINE
  8
23
 62
7
  6
CONTINUOUS
 10
52.710000
 20
43.667111
 11
52.710000
 21
59.532889
  0
LINE
  8
23
 62
7
  6
CONTINUOUS
 10
61.901387
 20
36.438715
 11
53.596387
 21
42.005826
  0
LINE
  8
23
 62
7
  6
CONTINUOUS
 10
63.553519
 20
36.100000
 11
63.015000
 21
36.100000
  0
ARC
  8
23
 62
7
  6
CONTINUOUS
 10
76.515000
 20
37.100000
 40
11.000000
 50
4.411726
 51
175.588274
  0
LINE
  8
23
 62
7
  6
CONTINUOUS
 10
90.015000
 20
36.100000
 11
89.476482
 21
36.100000
  0
LINE
  8
23
 62
7
  6
CONTINUOUS
 10
99.433613
 20
42.005826
 11
91.128613
 21
36.438715
  0
LINE
  8
23
 62
7
  6
CONTINUOUS
 10
91.128613
 20
66.761285
 11
99.433613
 21
61.194174
  0
LINE
  8
23
 62
7
  6
CONTINUOUS
 10
96.260000
 20
55.605000
 11
98.270000
 21
55.605000
  0
ARC
  8
23
 62
7
  6
CONTINUOUS
 10
98.270000
 20
54.555000
 40
1.050000
 50
-90.000000
 51
90.000000
  0
LINE
  8
23
 62
7
  6
CONTINUOUS
 10
98.270000
 20
53.505000
 11
98.270000
 21
49.695000
  0
ARC
  8
23
 62
7
  6
CONTINUOUS
 10
98.270000
 20
48.645000
 40
1.050000
 50
-90.000000
 51
90.000000
  0
LINE
  8
23
 62
7
  6
CONTINUOUS
 10
98.270000
 20
47.595000
 11
96.260000
 21
47.595000
  0
ARC
  8
23
 62
7
  6
CONTINUOUS
 10
96.260000
 20
48.645000
 40
1.050000
 50
90.000000
 51
-90.000000
  0
LINE
  8
23
 62
7
  6
CONTINUOUS
 10
96.260000
 20
49.695000
 11
96.260000
 21
53.505000
  0
ARC
  8
23
 62
7
  6
CONTINUOUS
 10
96.260000
 20
54.555000
 40
1.050000
 50
90.000000
 51
-90.000000
  0
CIRCLE
  8
23
 62
7
  6
CONTINUOUS
 10
90.015000
 20
65.100000
 40
1.350000
  0
CIRCLE
  8
23
 62
7
  6
CONTINUOUS
 10
63.015000
 20
65.100000
 40
1.350000
  0
CIRCLE
  8
23
 62
7
  6
CONTINUOUS
 10
90.015000
 20
38.100000
 40
1.350000
  0
CIRCLE
  8
23
 62
7
  6
CONTINUOUS
 10
63.015000
 20
38.100000
 40
1.350000
  0
LINE
  8
23
 62
7
  6
CONTINUOUS
 10
54.760000
 20
55.605000
 11
56.770000
 21
55.605000
  0
ARC
  8
23
 62
7
  6
CONTINUOUS
 10
56.770000
 20
54.555000
 40
1.050000
 50
-90.000000
 51
90.000000
  0
LINE
  8
23
 62
7
  6
CONTINUOUS
 10
56.770000
 20
53.505000
 11
56.770000
 21
49.695000
  0
ARC
  8
23
 62
7
  6
CONTINUOUS
 10
56.770000
 20
48.645000
 40
1.050000
 50
-90.000000
 51
90.000000
  0
LINE
  8
23
 62
7
  6
CONTINUOUS
 10
56.770000
 20
47.595000
 11
54.760000
 21
47.595000
  0
ARC
  8
23
 62
7
  6
CONTINUOUS
 10
54.760000
 20
48.645000
 40
1.050000
 50
90.000000
 51
-90.000000
  0
LINE
  8
23
 62
7
  6
CONTINUOUS
 10
54.760000
 20
49.695000
 11
54.760000
 21
53.505000
  0
ARC
  8
23
 62
7
  6
CONTINUOUS
 10
54.760000
 20
54.555000
 40
1.050000
 50
90.000000
 51
-90.000000
  0
LINE
  8
23
 62
7
  6
CONTINUOUS
 10
75.605674
 20
50.891838
 11
74.624327
 21
51.458419
  0
ARC
  8
23
 62
7
  6
CONTINUOUS
 10
74.624327
 20
52.508419
 40
1.050000
 50
150.000000
 51
-90.000000
  0
LINE
  8
23
 62
7
  6
CONTINUOUS
 10
73.715000
 20
53.033419
 11
73.715000
 21
54.166581
  0
ARC
  8
23
 62
7
  6
CONTINUOUS
 10
74.624327
 20
54.691581
 40
1.050000
 50
90.000000
 51
-150.000000
  0
LINE
  8
23
 62
7
  6
CONTINUOUS
 10
74.624327
 20
55.741581
 11
75.605674
 21
56.308162
  0
ARC
  8
23
 62
7
  6
CONTINUOUS
 10
76.515000
 20
55.783162
 40
1.050000
 50
30.000000
 51
150.000000
  0
LINE
  8
23
 62
7
  6
CONTINUOUS
 10
77.424327
 20
56.308162
 11
78.405674
 21
55.741581
  0
ARC
  8
23
 62
7
  6
CONTINUOUS
 10
78.405674
 20
54.691581
 40
1.050000
 50
-30.000000
 51
90.000000
  0
LINE
  8
23
 62
7
  6
CONTINUOUS
 10
79.315000
 20
54.166581
 11
79.315000
 21
53.033419
  0
ARC
  8
23
 62
7
  6
CONTINUOUS
 10
78.405674
 20
52.508419
 40
1.050000
 50
-90.000000
 51
30.000000
  0
LINE
  8
23
 62
7
  6
CONTINUOUS
 10
78.405674
 20
51.458419
 11
77.424327
 21
50.891838
  0
ARC
  8
23
 62
7
  6
CONTINUOUS
 10
76.515000
 20
51.416838
 40
1.050000
 50
-150.000000
 51
-30.000000
  0
CIRCLE
  8
23
 62
7
  6
CONTINUOUS
 10
76.515000
 20
53.600000
 40
1.550000
  0
ENDSEC
  0
EOF
